<?xml version="1.0" standalone="no"?>
<!DOCTYPE svg PUBLIC "-//W3C//DTD SVG 1.1//EN" "http://www.w3.org/Graphics/SVG/1.1/DTD/svg11.dtd" >
<svg>
<metadata>
Created by FontForge 20090914 at Sun Feb  5 16:05:51 2017
 By www-data
1999 by Boba Fonts - http://www.swfans.net/multimedia/bobafonts
</metadata>
<defs>
<font id="Aurek-Besh" horiz-adv-x="532" >
  <font-face 
    font-family="Aurek-Besh"
    font-weight="400"
    font-stretch="normal"
    units-per-em="1000"
    panose-1="0 0 8 5 0 0 0 0 0 0"
    ascent="800"
    descent="-200"
    x-height="968"
    cap-height="975"
    bbox="11.7127 -91.999 1701 1144"
    underline-thickness="20"
    underline-position="-123"
    unicode-range="U+0020-U+201D"
  />
<missing-glyph horiz-adv-x="500" 
d="M63 0v800h375v-800h-375zM125 63h250v675h-250v-675z" />
    <glyph glyph-name=".notdef" horiz-adv-x="500" 
d="M63 0v800h375v-800h-375zM125 63h250v675h-250v-675z" />
    <glyph glyph-name="space" unicode=" " horiz-adv-x="505" 
 />
    <glyph glyph-name="exclam" unicode="!" horiz-adv-x="479" 
d="M404 368l-298 -296v210l298 296v-210zM402 712l-298 -296v210l298 296v-210z" />
    <glyph glyph-name="quotedbl" unicode="&#x22;" horiz-adv-x="992" 
d="M872 976v-503h-353l-497 503h283l343 -352v352h224z" />
    <glyph glyph-name="numbersign" unicode="#" horiz-adv-x="1743" 
d="M1701 968l-452 -969h-889v299h187v-73h570l246 522l14 23v3h-830v-65h-187v260h1341zM249 968v-260h-224v260h224zM25 298h224v-299h-224v299z" />
    <glyph glyph-name="dollar" unicode="$" horiz-adv-x="1122" 
d="M268 968v-195h112v195h112v-195h600l-589 -774h-282l430 561h-159v-195h-112v195h-112v-195h-112v195h-111v213h111v195h112z" />
    <glyph glyph-name="percent" unicode="%" horiz-adv-x="1557" 
d="M1064 968l467 -969h-1511v226h1170l-254 520h-916v223h1044z" />
    <glyph glyph-name="ampersand" unicode="&#x26;" horiz-adv-x="1420" 
d="M1382 968v-969h-1280l-61 61v333h223v-188h914v185h-581v204h581v170h-914v-201h-223v355l50 50h1291z" />
    <glyph glyph-name="quotesingle" unicode="'" horiz-adv-x="600" 
d="M392 1085l120 -89h-180v-611l-222 213v487h282z" />
    <glyph glyph-name="parenleft" unicode="(" horiz-adv-x="582" 
d="M246 -1v379h-186v214h186v376h206v-969h-206z" />
    <glyph glyph-name="parenright" unicode=")" horiz-adv-x="578" 
d="M298 -1v379h186v214h-186v376h-206v-969h206z" />
    <glyph glyph-name="asterisk" unicode="*" horiz-adv-x="1020" 
d="M911 966l61 -61v-844l-61 -61h-350v223h188v520h-188v223h350zM464 966v-223h-187v-520h187v-223h-349l-62 61v844l62 61h349z" />
    <glyph glyph-name="plus" unicode="+" horiz-adv-x="1416" 
d="M1351 13l-25 -7l-37 -6h-1178l-40 4l-24 8l-10 20l-3 33v845l4 31l11 19l20 11l42 3h1178l43 -2l21 -8l9 -18l5 -36v-845l-4 -35zM1148 196v560h-892v-164h556v-200h-560v-196h896z" />
    <glyph glyph-name="comma" unicode="," horiz-adv-x="408" 
d="M81 0v492h219v-492h-219z" />
    <glyph glyph-name="hyphen" unicode="-" horiz-adv-x="768" 
d="M90 976v-207h567v207h-567z" />
    <glyph glyph-name="hyphen" unicode="&#x2010;" horiz-adv-x="768" 
d="M90 976v-207h567v207h-567z" />
    <glyph glyph-name="period" unicode="." horiz-adv-x="766" 
d="M382 0v492h219v-492h-219zM81 -1v492h219v-492h-219z" />
    <glyph glyph-name="slash" unicode="/" horiz-adv-x="557" 
d="M516 550l-186 -146v-404h-220v402l188 148v428l219 -1z" />
    <glyph glyph-name="zero" unicode="0" horiz-adv-x="328" 
d="M86 442c-6 12 -9.83594 22.333 -11.5029 31s-2.5 25.167 -2.5 49.5s0.833008 40.833 2.5 49.5s3.33398 15.834 5.00098 21.501s5.33398 9.66699 11.001 12s13 4.33301 22 6s25.667 2.5 50 2.5s41 -0.833008 50 -2.5s16.333 -3.5 22 -5.5s9.33398 -5.33301 11.001 -10
s3.5 -12 5.5 -22s3 -27.167 3 -51.5s-1 -40.5 -3 -48.5s-4.16699 -14.833 -6.5 -20.5s-6.5 -10 -12.5 -13s-13 -5.5 -21 -7.5s-24.167 -3 -48.5 -3s-40.5 0.666992 -48.5 2s-17.333 4.66602 -28 9.99902z" />
    <glyph glyph-name="one" unicode="1" 
d="M86 442c-6 12 -9.83594 22.333 -11.5029 31s-2.5 25.167 -2.5 49.5s0.833008 40.833 2.5 49.5s3.33398 15.834 5.00098 21.501s5.33398 9.66699 11.001 12s13 4.33301 22 6s25.667 2.5 50 2.5s41 -0.833008 50 -2.5s16.333 -3.5 22 -5.5s9.33398 -5.33301 11.001 -10
s3.5 -12 5.5 -22s3 -27.167 3 -51.5s-1 -40.5 -3 -48.5s-4.16699 -14.833 -6.5 -20.5s-6.5 -10 -12.5 -13s-13 -5.5 -21 -7.5s-24.167 -3 -48.5 -3s-40.5 0.666992 -48.5 2s-17.333 4.66602 -28 9.99902zM301.997 442c-6 12 -9.83594 22.333 -11.5029 31
s-2.5 25.167 -2.5 49.5s0.833008 40.833 2.5 49.5s3.33398 15.834 5.00098 21.501s5.33398 9.66699 11.001 12s13 4.33301 22 6s25.667 2.5 50 2.5s41 -0.833008 50 -2.5s16.333 -3.5 22 -5.5s9.33398 -5.33301 11.001 -10s3.5 -12 5.5 -22s3 -27.167 3 -51.5
s-1 -40.5 -3 -48.5s-4.16699 -14.833 -6.5 -20.5s-6.5 -10 -12.5 -13s-13 -5.5 -21 -7.5s-24.167 -3 -48.5 -3s-40.5 0.666992 -48.5 2s-17.333 4.66602 -28 9.99902z" />
    <glyph glyph-name="two" unicode="2" 
d="M86 442c-6 12 -9.83594 22.333 -11.5029 31s-2.5 25.167 -2.5 49.5s0.833008 40.833 2.5 49.5s3.33398 15.834 5.00098 21.501s5.33398 9.66699 11.001 12s13 4.33301 22 6s25.667 2.5 50 2.5s41 -0.833008 50 -2.5s16.333 -3.5 22 -5.5s9.33398 -5.33301 11.001 -10
s3.5 -12 5.5 -22s3 -27.167 3 -51.5s-1 -40.5 -3 -48.5s-4.16699 -14.833 -6.5 -20.5s-6.5 -10 -12.5 -13s-13 -5.5 -21 -7.5s-24.167 -3 -48.5 -3s-40.5 0.666992 -48.5 2s-17.333 4.66602 -28 9.99902zM301.997 442c-6 12 -9.83594 22.333 -11.5029 31
s-2.5 25.167 -2.5 49.5s0.833008 40.833 2.5 49.5s3.33398 15.834 5.00098 21.501s5.33398 9.66699 11.001 12s13 4.33301 22 6s25.667 2.5 50 2.5s41 -0.833008 50 -2.5s16.333 -3.5 22 -5.5s9.33398 -5.33301 11.001 -10s3.5 -12 5.5 -22s3 -27.167 3 -51.5
s-1 -40.5 -3 -48.5s-4.16699 -14.833 -6.5 -20.5s-6.5 -10 -12.5 -13s-13 -5.5 -21 -7.5s-24.167 -3 -48.5 -3s-40.5 0.666992 -48.5 2s-17.333 4.66602 -28 9.99902zM303.994 225c-6 12 -9.83594 22.333 -11.5029 31s-2.5 25.167 -2.5 49.5s0.833008 40.833 2.5 49.5
s3.33398 15.834 5.00098 21.501s5.33398 9.66699 11.001 12s13 4.33301 22 6s25.667 2.5 50 2.5s41 -0.833008 50 -2.5s16.333 -3.5 22 -5.5s9.33398 -5.33301 11.001 -10s3.5 -12 5.5 -22s3 -27.167 3 -51.5s-1 -40.5 -3 -48.5s-4.16699 -14.833 -6.5 -20.5
s-6.5 -10 -12.5 -13s-13 -5.5 -21 -7.5s-24.167 -3 -48.5 -3s-40.5 0.666992 -48.5 2s-17.333 4.66602 -28 9.99902z" />
    <glyph glyph-name="three" unicode="3" 
d="M302 13c-6 12 -9.83594 22.333 -11.5029 31s-2.5 25.167 -2.5 49.5s0.833008 40.833 2.5 49.5s3.33398 15.834 5.00098 21.501s5.33398 9.66699 11.001 12s13 4.33301 22 6s25.667 2.5 50 2.5s41 -0.833008 50 -2.5s16.333 -3.5 22 -5.5s9.33398 -5.33301 11.001 -10
s3.5 -12 5.5 -22s3 -27.167 3 -51.5s-1 -40.5 -3 -48.5s-4.16699 -14.833 -6.5 -20.5s-6.5 -10 -12.5 -13s-13 -5.5 -21 -7.5s-24.167 -3 -48.5 -3s-40.5 0.666992 -48.5 2s-17.333 4.66602 -28 9.99902zM85.9971 442c-6 12 -9.83594 22.333 -11.5029 31
s-2.5 25.167 -2.5 49.5s0.833008 40.833 2.5 49.5s3.33398 15.834 5.00098 21.501s5.33398 9.66699 11.001 12s13 4.33301 22 6s25.667 2.5 50 2.5s41 -0.833008 50 -2.5s16.333 -3.5 22 -5.5s9.33398 -5.33301 11.001 -10s3.5 -12 5.5 -22s3 -27.167 3 -51.5
s-1 -40.5 -3 -48.5s-4.16699 -14.833 -6.5 -20.5s-6.5 -10 -12.5 -13s-13 -5.5 -21 -7.5s-24.167 -3 -48.5 -3s-40.5 0.666992 -48.5 2s-17.333 4.66602 -28 9.99902zM301.994 442c-6 12 -9.83594 22.333 -11.5029 31s-2.5 25.167 -2.5 49.5s0.833008 40.833 2.5 49.5
s3.33398 15.834 5.00098 21.501s5.33398 9.66699 11.001 12s13 4.33301 22 6s25.667 2.5 50 2.5s41 -0.833008 50 -2.5s16.333 -3.5 22 -5.5s9.33398 -5.33301 11.001 -10s3.5 -12 5.5 -22s3 -27.167 3 -51.5s-1 -40.5 -3 -48.5s-4.16699 -14.833 -6.5 -20.5
s-6.5 -10 -12.5 -13s-13 -5.5 -21 -7.5s-24.167 -3 -48.5 -3s-40.5 0.666992 -48.5 2s-17.333 4.66602 -28 9.99902zM303.991 225c-6 12 -9.83594 22.333 -11.5029 31s-2.5 25.167 -2.5 49.5s0.833008 40.833 2.5 49.5s3.33398 15.834 5.00098 21.501
s5.33398 9.66699 11.001 12s13 4.33301 22 6s25.667 2.5 50 2.5s41 -0.833008 50 -2.5s16.333 -3.5 22 -5.5s9.33398 -5.33301 11.001 -10s3.5 -12 5.5 -22s3 -27.167 3 -51.5s-1 -40.5 -3 -48.5s-4.16699 -14.833 -6.5 -20.5s-6.5 -10 -12.5 -13s-13 -5.5 -21 -7.5
s-24.167 -3 -48.5 -3s-40.5 0.666992 -48.5 2s-17.333 4.66602 -28 9.99902z" />
    <glyph glyph-name="four" unicode="4" 
d="M302 442c-6 12 -9.83594 22.333 -11.5029 31s-2.5 25.167 -2.5 49.5s0.833008 40.833 2.5 49.5s3.33398 15.834 5.00098 21.501s5.33398 9.66699 11.001 12s13 4.33301 22 6s25.667 2.5 50 2.5s41 -0.833008 50 -2.5s16.333 -3.5 22 -5.5s9.33398 -5.33301 11.001 -10
s3.5 -12 5.5 -22s3 -27.167 3 -51.5s-1 -40.5 -3 -48.5s-4.16699 -14.833 -6.5 -20.5s-6.5 -10 -12.5 -13s-13 -5.5 -21 -7.5s-24.167 -3 -48.5 -3s-40.5 0.666992 -48.5 2s-17.333 4.66602 -28 9.99902zM80.9971 239l-4.00195 41.001v273
c0.666992 27.333 3.83398 43.666 9.50098 48.999s13.667 8.66602 24 9.99902s27.666 2 51.999 2s41.333 -0.833008 51 -2.5s17.5 -4.5 23.5 -8.5s9.66699 -18 11 -42v-278c-1.33301 -27.333 -4.33301 -44.166 -9 -50.499s-12.5 -11 -23.5 -14s-28.667 -4.5 -53 -4.5
s-41.666 1.16699 -51.999 3.5s-20.166 9.5 -29.499 21.5z" />
    <glyph glyph-name="five" unicode="5" 
d="M302 442c-6 12 -9.83594 22.333 -11.5029 31s-2.5 25.167 -2.5 49.5s0.833008 40.833 2.5 49.5s3.33398 15.834 5.00098 21.501s5.33398 9.66699 11.001 12s13 4.33301 22 6s25.667 2.5 50 2.5s41 -0.833008 50 -2.5s16.333 -3.5 22 -5.5s9.33398 -5.33301 11.001 -10
s3.5 -12 5.5 -22s3 -27.167 3 -51.5s-1 -40.5 -3 -48.5s-4.16699 -14.833 -6.5 -20.5s-6.5 -10 -12.5 -13s-13 -5.5 -21 -7.5s-24.167 -3 -48.5 -3s-40.5 0.666992 -48.5 2s-17.333 4.66602 -28 9.99902zM303.997 225c-6 12 -9.83594 22.333 -11.5029 31
s-2.5 25.167 -2.5 49.5s0.833008 40.833 2.5 49.5s3.33398 15.834 5.00098 21.501s5.33398 9.66699 11.001 12s13 4.33301 22 6s25.667 2.5 50 2.5s41 -0.833008 50 -2.5s16.333 -3.5 22 -5.5s9.33398 -5.33301 11.001 -10s3.5 -12 5.5 -22s3 -27.167 3 -51.5
s-1 -40.5 -3 -48.5s-4.16699 -14.833 -6.5 -20.5s-6.5 -10 -12.5 -13s-13 -5.5 -21 -7.5s-24.167 -3 -48.5 -3s-40.5 0.666992 -48.5 2s-17.333 4.66602 -28 9.99902zM80.9941 239l-4.00195 41.001v273c0.666992 27.333 3.83398 43.666 9.50098 48.999
s13.667 8.66602 24 9.99902s27.666 2 51.999 2s41.333 -0.833008 51 -2.5s17.5 -4.5 23.5 -8.5s9.66699 -18 11 -42v-278c-1.33301 -27.333 -4.33301 -44.166 -9 -50.499s-12.5 -11 -23.5 -14s-28.667 -4.5 -53 -4.5s-41.666 1.16699 -51.999 3.5s-20.166 9.5 -29.499 21.5z
" />
    <glyph glyph-name="six" unicode="6" 
d="M302 442c-6 12 -9.83594 22.333 -11.5029 31s-2.5 25.167 -2.5 49.5s0.833008 40.833 2.5 49.5s3.33398 15.834 5.00098 21.501s5.33398 9.66699 11.001 12s13 4.33301 22 6s25.667 2.5 50 2.5s41 -0.833008 50 -2.5s16.333 -3.5 22 -5.5s9.33398 -5.33301 11.001 -10
s3.5 -12 5.5 -22s3 -27.167 3 -51.5s-1 -40.5 -3 -48.5s-4.16699 -14.833 -6.5 -20.5s-6.5 -10 -12.5 -13s-13 -5.5 -21 -7.5s-24.167 -3 -48.5 -3s-40.5 0.666992 -48.5 2s-17.333 4.66602 -28 9.99902zM303.997 225c-6 12 -9.83594 22.333 -11.5029 31
s-2.5 25.167 -2.5 49.5s0.833008 40.833 2.5 49.5s3.33398 15.834 5.00098 21.501s5.33398 9.66699 11.001 12s13 4.33301 22 6s25.667 2.5 50 2.5s41 -0.833008 50 -2.5s16.333 -3.5 22 -5.5s9.33398 -5.33301 11.001 -10s3.5 -12 5.5 -22s3 -27.167 3 -51.5
s-1 -40.5 -3 -48.5s-4.16699 -14.833 -6.5 -20.5s-6.5 -10 -12.5 -13s-13 -5.5 -21 -7.5s-24.167 -3 -48.5 -3s-40.5 0.666992 -48.5 2s-17.333 4.66602 -28 9.99902zM301.994 13c-6 12 -9.83594 22.333 -11.5029 31s-2.5 25.167 -2.5 49.5s0.833008 40.833 2.5 49.5
s3.33398 15.834 5.00098 21.501s5.33398 9.66699 11.001 12s13 4.33301 22 6s25.667 2.5 50 2.5s41 -0.833008 50 -2.5s16.333 -3.5 22 -5.5s9.33398 -5.33301 11.001 -10s3.5 -12 5.5 -22s3 -27.167 3 -51.5s-1 -40.5 -3 -48.5s-4.16699 -14.833 -6.5 -20.5
s-6.5 -10 -12.5 -13s-13 -5.5 -21 -7.5s-24.167 -3 -48.5 -3s-40.5 0.666992 -48.5 2s-17.333 4.66602 -28 9.99902zM80.9912 239l-4.00195 41.001v273c0.666992 27.333 3.83398 43.666 9.50098 48.999s13.667 8.66602 24 9.99902s27.666 2 51.999 2
s41.333 -0.833008 51 -2.5s17.5 -4.5 23.5 -8.5s9.66699 -18 11 -42v-278c-1.33301 -27.333 -4.33301 -44.166 -9 -50.499s-12.5 -11 -23.5 -14s-28.667 -4.5 -53 -4.5s-41.666 1.16699 -51.999 3.5s-20.166 9.5 -29.499 21.5z" />
    <glyph glyph-name="seven" unicode="7" 
d="M82 33l-5 69v419c1.33301 40 4 64.333 8 73s11.833 14.167 23.5 16.5s29.667 3.5 54 3.5s43 -0.666992 56 -2s21.167 -6.5 24.5 -15.5s5 -30.167 5 -63.5v-425c-0.666992 -48 -3.16699 -76.333 -7.5 -85s-12.333 -14.5 -24 -17.5s-29.667 -4.5 -54 -4.5
s-42.5 1.83301 -54.5 5.5s-20.667 12.5 -26 26.5zM302 442c-6 12 -9.83594 22.333 -11.5029 31s-2.5 25.167 -2.5 49.5s0.833008 40.833 2.5 49.5s3.33398 15.834 5.00098 21.501s5.33398 9.66699 11.001 12s13 4.33301 22 6s25.667 2.5 50 2.5s41 -0.833008 50 -2.5
s16.333 -3.5 22 -5.5s9.33398 -5.33301 11.001 -10s3.5 -12 5.5 -22s3 -27.167 3 -51.5s-1 -40.5 -3 -48.5s-4.16699 -14.833 -6.5 -20.5s-6.5 -10 -12.5 -13s-13 -5.5 -21 -7.5s-24.167 -3 -48.5 -3s-40.5 0.666992 -48.5 2s-17.333 4.66602 -28 9.99902z" />
    <glyph glyph-name="eight" unicode="8" 
d="M82 33l-5 69v419c1.33301 40 4 64.333 8 73s11.833 14.167 23.5 16.5s29.667 3.5 54 3.5s43 -0.666992 56 -2s21.167 -6.5 24.5 -15.5s5 -30.167 5 -63.5v-425c-0.666992 -48 -3.16699 -76.333 -7.5 -85s-12.333 -14.5 -24 -17.5s-29.667 -4.5 -54 -4.5
s-42.5 1.83301 -54.5 5.5s-20.667 12.5 -26 26.5zM302 442c-6 12 -9.83594 22.333 -11.5029 31s-2.5 25.167 -2.5 49.5s0.833008 40.833 2.5 49.5s3.33398 15.834 5.00098 21.501s5.33398 9.66699 11.001 12s13 4.33301 22 6s25.667 2.5 50 2.5s41 -0.833008 50 -2.5
s16.333 -3.5 22 -5.5s9.33398 -5.33301 11.001 -10s3.5 -12 5.5 -22s3 -27.167 3 -51.5s-1 -40.5 -3 -48.5s-4.16699 -14.833 -6.5 -20.5s-6.5 -10 -12.5 -13s-13 -5.5 -21 -7.5s-24.167 -3 -48.5 -3s-40.5 0.666992 -48.5 2s-17.333 4.66602 -28 9.99902zM303.997 225
c-6 12 -9.83594 22.333 -11.5029 31s-2.5 25.167 -2.5 49.5s0.833008 40.833 2.5 49.5s3.33398 15.834 5.00098 21.501s5.33398 9.66699 11.001 12s13 4.33301 22 6s25.667 2.5 50 2.5s41 -0.833008 50 -2.5s16.333 -3.5 22 -5.5s9.33398 -5.33301 11.001 -10
s3.5 -12 5.5 -22s3 -27.167 3 -51.5s-1 -40.5 -3 -48.5s-4.16699 -14.833 -6.5 -20.5s-6.5 -10 -12.5 -13s-13 -5.5 -21 -7.5s-24.167 -3 -48.5 -3s-40.5 0.666992 -48.5 2s-17.333 4.66602 -28 9.99902z" />
    <glyph glyph-name="nine" unicode="9" 
d="M82 33l-5 69v419c1.33301 40 4 64.333 8 73s11.833 14.167 23.5 16.5s29.667 3.5 54 3.5s43 -0.666992 56 -2s21.167 -6.5 24.5 -15.5s5 -30.167 5 -63.5v-425c-0.666992 -48 -3.16699 -76.333 -7.5 -85s-12.333 -14.5 -24 -17.5s-29.667 -4.5 -54 -4.5
s-42.5 1.83301 -54.5 5.5s-20.667 12.5 -26 26.5zM302 442c-6 12 -9.83594 22.333 -11.5029 31s-2.5 25.167 -2.5 49.5s0.833008 40.833 2.5 49.5s3.33398 15.834 5.00098 21.501s5.33398 9.66699 11.001 12s13 4.33301 22 6s25.667 2.5 50 2.5s41 -0.833008 50 -2.5
s16.333 -3.5 22 -5.5s9.33398 -5.33301 11.001 -10s3.5 -12 5.5 -22s3 -27.167 3 -51.5s-1 -40.5 -3 -48.5s-4.16699 -14.833 -6.5 -20.5s-6.5 -10 -12.5 -13s-13 -5.5 -21 -7.5s-24.167 -3 -48.5 -3s-40.5 0.666992 -48.5 2s-17.333 4.66602 -28 9.99902zM303.997 225
c-6 12 -9.83594 22.333 -11.5029 31s-2.5 25.167 -2.5 49.5s0.833008 40.833 2.5 49.5s3.33398 15.834 5.00098 21.501s5.33398 9.66699 11.001 12s13 4.33301 22 6s25.667 2.5 50 2.5s41 -0.833008 50 -2.5s16.333 -3.5 22 -5.5s9.33398 -5.33301 11.001 -10
s3.5 -12 5.5 -22s3 -27.167 3 -51.5s-1 -40.5 -3 -48.5s-4.16699 -14.833 -6.5 -20.5s-6.5 -10 -12.5 -13s-13 -5.5 -21 -7.5s-24.167 -3 -48.5 -3s-40.5 0.666992 -48.5 2s-17.333 4.66602 -28 9.99902zM301.994 13c-6 12 -9.83594 22.333 -11.5029 31
s-2.5 25.167 -2.5 49.5s0.833008 40.833 2.5 49.5s3.33398 15.834 5.00098 21.501s5.33398 9.66699 11.001 12s13 4.33301 22 6s25.667 2.5 50 2.5s41 -0.833008 50 -2.5s16.333 -3.5 22 -5.5s9.33398 -5.33301 11.001 -10s3.5 -12 5.5 -22s3 -27.167 3 -51.5
s-1 -40.5 -3 -48.5s-4.16699 -14.833 -6.5 -20.5s-6.5 -10 -12.5 -13s-13 -5.5 -21 -7.5s-24.167 -3 -48.5 -3s-40.5 0.666992 -48.5 2s-17.333 4.66602 -28 9.99902z" />
    <glyph glyph-name="colon" unicode=":" horiz-adv-x="638" 
d="M86 0v206h193l-193 197v290l481 -487v-206h-481z" />
    <glyph glyph-name="semicolon" unicode=";" horiz-adv-x="516" 
d="M344 976v-977h-198v977h198z" />
    <glyph glyph-name="less" unicode="&#x3c;" horiz-adv-x="1161" 
d="M1126 968v-969h-224v374h-346l-260 -374h-260l414 598h452v371h224z" />
    <glyph glyph-name="equal" unicode="=" horiz-adv-x="1251" 
d="M1206 968v-969h-198v746h-394l-366 -746h-221l355 729v17h-184v223h1008z" />
    <glyph glyph-name="greater" unicode="&#x3e;" horiz-adv-x="1648" 
d="M99 227l64 -227h1308l61 227h-1433zM94 260l-64 185l97 47l83 60l82 73l69 75l47 86l35 87l27 99h713l20 -77l35 -98l47 -92l69 -85l83 -72l79 -51l98 -52l-71 -185l-120 59l-120 78l-124 107l-79 85l-54 84l-36 82h-388l-48 -97l-50 -67l-84 -94l-110 -92l-120 -81z" />
    <glyph glyph-name="question" unicode="?" horiz-adv-x="646" 
d="M175 24l-20 -24h223l34 34l29 42l31 47l31 59l26 73l20 75l9 89l6 88l-6 88l-9 81l-17 78l-20 59l-29 55l-28 47l-34 39l-20 20h-323v-467h211v351l23 -47l20 -57l17 -76l14 -83l6 -83l-6 -83l-11 -91l-20 -67l-26 -63l-31 -52l-32 -49l-34 -42z" />
    <glyph glyph-name="at" unicode="@" horiz-adv-x="1103" 
d="M1057 552l-7 -128.001l-21 -91l-21 -53l-8 -3c-35.333 -78.667 -96.666 -147 -183.999 -205c-46.667 -30 -109 -51.667 -187 -65h-130l-65 11l-7 9l-48 11l-80 41l-56 39l-48 49c-70 85.333 -111.667 177 -125 275c-7.33301 86.667 4 176.334 34 269.001l19 35l8 3
c-2 10 20.667 45.333 68 106l44 41c88.667 66.667 172 103 250 109h139c69.333 -12 130.666 -34.333 183.999 -67c140 -88 220.333 -216.667 241 -386zM165 306.999c9.33301 -2.66699 16.667 -0.666992 22 6l-26 77l38 15h2l-9 79c-3.33301 20 -0.333008 59.333 9 118
l-40 11l23 72l-9 15l-18 -4l-34 -140c-2 -115.333 12 -198.333 42 -249zM209.001 736.999l50 61h13l18 -22l12 -4c51.333 50 104 81.667 158 95l-11 48l83 11h3l-3 31l-79 -11l-64 -23l-80 -45c-33.333 -28 -58 -52 -74 -72h-10l-33 -48l3 -12zM816.001 775.999l11 3.00098
l25 27l17 -19c7.33301 2.66699 19.333 -11 36 -41c5.33301 -3.33301 13 0.666992 23 12l-23 36h-11l-11 23l-44 46c-60 45.333 -141.333 76.666 -244 93.999l-12 -4l5 -27l59 -3l19 -8l-7 -48c86.667 -28.667 139 -59 157 -91zM513.001 57l25.001 -0.000976562v26l-82 11
l8 50c-56.667 20 -95.334 37.667 -116.001 53c-20 12.667 -35.333 26.334 -46 41.001l-24 -30h-16l-50 60l-17 -12c-2 -6.66699 5.66699 -19 23 -37l81 -80l94 -52zM592.002 56.999l67.001 7c38 10 80.333 26.667 127 50c20 9.33301 51.333 34.333 94 75l53 64v12l-16 6
l-15 -6l-8 -23l-30 -30h-12l-22 26h-11l-56 -52l-70 -35l-31 -7l7 -41c-18.667 -13.333 -43.334 -20 -74.001 -20zM954.003 309.999c10 -2 20.667 20.667 32 68l17 88c3.33301 50.667 1.33301 97 -6 139l-39 102l-22 -11l26 -76l-34 -11c-7.33301 -2.66699 -10 -10 -8 -22
c16 -20.667 16 -79 0 -175l42 -11l-21 -83c8.66699 0 13 -2.66699 13 -8zM332.003 312.999l11.999 4.99902l27 30c16.667 7.33301 40.667 26.333 72 57h10l18 -19l42 -23l25 -8l-22 -124v-23h93l-21 147l56 23l33 30l62 -53h10l37 -37c9.33301 0 27 26.333 53 79v11l-129 42
c-6.66699 0 -8.66699 6.33301 -6 19c8 12.667 10 30 6 52l-6 42c10 0 55 16.667 135 50l-12 30l-38 49v8l-112 -95c-34 30.667 -63.667 47.334 -89 50.001l17 147l-17 4l-78 -4l25 -147c-38 -10 -66.667 -26.667 -86 -50h-11l-100 87h-9l-44 -75v-12l137 -49
c-7.33301 -5.33301 -9.66602 -34.333 -6.99902 -87l7 -15l-7 -7h-14c-55.333 -28 -92.333 -42 -111 -42l-5 -8z" />
    <glyph glyph-name="A" unicode="A" horiz-adv-x="1686" 
d="M44 972h226v-191h611l312 191h454l-766 -416h-837v416zM44 416h862l751 -416h-425l-368 191h-597v-191h-223v416z" />
    <glyph glyph-name="B" unicode="B" horiz-adv-x="1566" 
d="M309 965h950l279 -315v-51h-246l-112 149h-788l-117 -149h-245v51zM480 602h633v-232h-633v232zM27 343h246l115 -129h790l113 127h245v-45l-279 -297h-951l-279 297v47z" />
    <glyph glyph-name="C" unicode="C" horiz-adv-x="901" 
d="M38 966h225v-668h-225v668zM335 668h222v-370h-222v370zM629 668h225v-668h-225v668z" />
    <glyph glyph-name="D" unicode="D" horiz-adv-x="1240" 
d="M1201 965l-3 -17l-804 -948h-292l328 370h-356l152 222h397l130 151l-731 1l143 221h1036z" />
    <glyph glyph-name="E" unicode="E" horiz-adv-x="1510" 
d="M1480 973v-224h-149v-749h-202v749h-28l-356 -749h-259l-467 973h251l348 -696l337 696h525z" />
    <glyph glyph-name="F" unicode="F" horiz-adv-x="1516" 
d="M852 967l-0.00195312 -232.998c125.333 20.667 225.333 44.667 300 72s182.667 85.333 324 174v-200c-112 -74.667 -211.667 -129.834 -299 -165.501s-195.666 -66.834 -324.999 -93.501v-298h624v-223h-1436v669l262 1c118.667 5.33301 233.334 17.333 344.001 36l1 261
h205zM260.998 223.002h386v251c-90 -12 -183.667 -19.333 -281 -22h-106z" />
    <glyph glyph-name="G" unicode="G" horiz-adv-x="1495" 
d="M1444 975l-3 -17l-523 -958h-852v975h183v-750h561l280 542v6h-468v-59h-186v261h1008z" />
    <glyph glyph-name="H" unicode="H" horiz-adv-x="1570" 
d="M1539 975v-224h-1514v224h1514zM285 601h994v-224h-994v224zM25 225h1514v-225h-1514v225z" />
    <glyph glyph-name="I" unicode="I" horiz-adv-x="629" 
d="M572 975v-974.999h-185v730l-197 -196l-143 144c-2 5.33301 0.666992 10.666 8 15.999l276 281h241z" />
    <glyph glyph-name="J" unicode="J" horiz-adv-x="1461" 
d="M1426 971l-466 -971.001h-908v219h772l136 304c-69.333 -40.667 -133.333 -68.334 -192 -83.001s-126 -27.5 -202 -38.5s-199.333 -17.833 -370 -20.5h-140v219h144c168 10.667 276 19.334 324 26.001s113.333 22.334 196 47.001c101.333 37.333 184 73 248 107
s136 98 216 192z" />
    <glyph glyph-name="K" unicode="K" horiz-adv-x="1521" 
d="M1437 971c12.667 -5.33301 21.668 -14.667 27.001 -28v-910c-4.66699 -16 -15.334 -27 -32.001 -33h-1369v224h1180v524h-1180v223h1374z" />
    <glyph glyph-name="L" unicode="L" horiz-adv-x="1007" 
d="M944 976v-977h-260l-630 413l117 183l575 -373v754h198z" />
    <glyph glyph-name="M" unicode="M" horiz-adv-x="1000" 
d="M894 972v-261l-208 -2l-277 -485h552l-135 -224h-795l535 972h328z" />
    <glyph glyph-name="N" unicode="N" horiz-adv-x="1582" 
d="M318 188l24 2l409 782h257l544 -972h-252l-418 768l-406 -768h-250l-15 1l-25 36l-23 39l-31 54l-27 62l-26 65l-15 75l-16 85l-6 88l6 88l8 80l16 78l17 59l27 54l26 47l31 39l18 20h185l-32 -31l-26 -38l-26 -47l-20 -46l-18 -57l-16 -75l-13 -83l-5 -83l5 -83l16 -88
l20 -67l21 -41z" />
    <glyph glyph-name="O" unicode="O" horiz-adv-x="1388" 
d="M1036 972l331 -773l-132 -199h-1067l-137 202l319 770h686zM263 213h871l-226 535h-421z" />
    <glyph glyph-name="P" unicode="P" horiz-adv-x="1022" 
d="M967 967v-966.999h-736c-122.667 89.333 -188 234 -196 434c16 214.667 95.333 392 238 532h320v-234h-222v52h-36c-50.667 -58.667 -76 -175.334 -76 -350.001c-2.66699 -129.333 16 -200 56 -212h428v746z" />
    <glyph glyph-name="Q" unicode="Q" horiz-adv-x="1333" 
d="M1261 972l36 -36v-351h-224v185h-821v-546h689l-297 -224h-532l-73 73v860l39 39h1183z" />
    <glyph glyph-name="R" unicode="R" horiz-adv-x="1302" 
d="M1275 972l-816 -972h-283l600 720v17h-720l176 235h1043z" />
    <glyph glyph-name="S" unicode="S" horiz-adv-x="1479" 
d="M482 972l739 -741v741h208v-972h-285l-973 972h311zM90 462l756 -274l-67 -188l-759 269z" />
    <glyph glyph-name="T" unicode="T" horiz-adv-x="1607" 
d="M888 972v-787h64l331 336h291l-524 -521h-509l-529 524h293l334 -336h61v784h188z" />
    <glyph glyph-name="U" unicode="U" horiz-adv-x="1421" 
d="M1336 972l48 -48v-874l-51 -50h-1294v972h224v-762h897v538h-289l-137 -185h-289l306 409h585z" />
    <glyph glyph-name="V" unicode="V" horiz-adv-x="1261" 
d="M353 972l258 -261h42l257 261h317l-502 -504v-468h-187v468l-502 501z" />
    <glyph glyph-name="W" unicode="W" horiz-adv-x="1469" 
d="M1427 958l8 -16l6 -36v-846l-5 -31l-8 -17l-20 -6l-38 -6h-1275l-40 4l-20 11l-8 20l-6 30v841l5 30l8 22l20 10l38 2h1278l40 -5zM1248 235v513h-1007v-513h1007z" />
    <glyph glyph-name="X" unicode="X" horiz-adv-x="1209" 
d="M1173 99l-210 -99h-724l-209 99l484 871h213zM899 192l-278 564l-306 -564h584z" />
    <glyph glyph-name="Y" unicode="Y" horiz-adv-x="1428" 
d="M1398 974l-538 -974h-336l-494 890v46l27 31l33 7h451l227 -404h-234l-146 294h-110l392 -708h50l458 818h220z" />
    <glyph glyph-name="Z" unicode="Z" horiz-adv-x="1293" 
d="M1265 968v-969h-1179l-50 50v268h259v-92h746v335h-464l-148 -151h-338l372 372h578v187h224z" />
    <glyph glyph-name="bracketleft" unicode="[" horiz-adv-x="1020" 
d="M319 319l5 -11h6v11h-11zM432 481l-10 -16l-17 5h6zM151 48l-5 -9l55 19l234 251l8 5l-113 -22zM346 438l103 -0.000976562l21 -16l-5 -17l-43 -21c-14.667 10.667 -50.667 14.334 -108 11.001zM508 458.999l6.00098 -10h16l-11 -6
c3.33301 -10.667 8.66602 -16 15.999 -16l-5 -16l-22 21l6 6zM508.001 367.999v-17h16l11 22l16 -5v10l-16 6zM530.001 350.999l5 -10l22 5v5h-27zM562.001 458.999l-11 -5zM562.001 421.999v-6h6v6h-6zM562.001 350.999l6 -10h5v10h-11zM562.001 367.999v-11h11v11h-11z
M578.001 345.999v-5h6v5h-6zM578.001 394.999v-6h11v6h-11zM584.001 410.999v-6h5v6h-5zM589.001 404.999v-5h6v5h-6zM595.001 415.999v-5h10v5h-10zM578.001 529.999c-3.33301 -4 2.33301 -11.333 17 -22l27 6l-6 27l-27 -6v6zM622 550.999v-10h10v10h-10zM632 529.999v-6
h6v6h-6zM530 929.999c7.33301 7.33301 36 0 86 -22l38 -389l-32 -11h-6l6 -22l-38 11l5 11h-16l-22 -27h-59l32 33h27l-5 10h-108l-27 60c-4 18 1.33301 43 16 75zM589 388.999l11 -16c25.333 0 38 7.33301 38 22l21 -6v11l-32 5h-27zM659 388.999v-5h6v5h-6zM670 394.999
v-11h6v11h-6zM681 448.999l5 -11zM692 296.999l5 -11l11 6v5h-16zM751 280.999l-16 -5zM768 275.999h-11h11zM249 323.999l5.00098 17.002c61.333 3.33301 93.666 -2.33398 96.999 -17.001c115.333 54 178.666 81 189.999 81v-16c18 7.33301 28.667 5.66602 32 -5.00098
l11 16l-33 11l-5 16h5l-16 27c28.667 -7.33301 41.334 -16.333 38.001 -27l5 22l22 -11c7.33301 7.33301 16.333 7.33301 27 0l-5 -22l70 6l-6 -6l11 -21l-11 -6h49v11l6 -16l16 5v-5l16 16l-5 -49l-17 17c-3.33301 -11.333 0.333984 -18.666 11.001 -21.999l-5 -11l-6 6
l-21 -6l-16 22h-11l32 -33v-10l54 10l11 -21v-11l-16 22l-76 -11l97 -22c-39.333 14.667 -73.333 14.667 -102 0l18 -32l179 -226l9 -12l26 11v16l-124 232l-27 6c25.333 3.33301 41.333 -7.66699 48 -33l114 -216l-38 -22l-211 271l-21 5l-27 27l21 -11l6 6l-6 11h22
c7.33301 3.33301 0 15.666 -22 36.999l-11 -10l-5 5l-22 -5l6 -11l-108 5l-6 -5c-28.667 14 -50.334 14 -65.001 0l-259 -276l-65 -22l195 265l-16 22l-55 -5zM611.001 905.001c-44 21.333 -70.333 28.667 -79 22l-103 -268c-14 -32 -19 -56.333 -15 -73l25 -55l5 -4l124 1
l25 25l4 -12l17 6l4 9l18 4l5 -18l4 -20l6 2zM419.001 614.002l116 310h6l-118 -310h-4zM630.001 702.002l-16 -2l-9 115l13 -1zM546.001 778.002l60 -7v-3zM532.001 709.002l79 -6v-3zM484.001 533.002l84 363l3 -3l-84 -359zM365.001 244.002l-77 -16l-3 -6l85 19l-1 4z
M228.001 151.002l77 21l-4 -4l-76 -22zM871.001 70.002l13 6l12 -23l-9 -6l-9 12l18 8l-1 3l-19 -9zM871.001 150.002l-50 -21l4 -4zM832.001 127.002l14 -23l4 3l-15 22zM279.001 218.002l-44 -60l46 13l49 59zM282.001 210.002l-10 -13l53 10l10 12zM293.001 205.002
l-12 -16l27 6l12 12zM235.001 146.002l-27 -41l-16 -7l31 43zM339.001 290.002l-24 -30l7 4l18 23h18l4 7zM160.001 51.002l39 14l21 23l-42 -9zM895.001 38.002l28 14l9 -19l1 -6l-21 -10zM808.001 239.002l48 -89l12 4l-9 15l-5 -2l-5 11l5 2l-8 19l-7 -2l-6 11l6 3
l-19 33zM775.001 246.002l5 -11l32 11l-2 9l-8 -3l4 -12l-7 -3l-10 14zM770.001 191.002l51 21l3 -4l-50 -20zM777.001 182.002l49 19l3 -5l-47 -18zM536.001 903.002l12 -4l-8 -17l-9 4zM527.001 879.002l10 -5l-12 -31l-10 3zM512.001 839.002l23 -9l-1 -4l-22 9v4z
M509.001 828.002l25 -9l-4 -5l-25 10zM502.001 818.002l27 -10l-2 -6l-24 11zM428.001 585.002l61 -7v-3l-69 8l1 3zM509.001 610.002l14 -3l-7 -73l-21 -2zM770.001 408.002l2 15l-2 13l-11 8l-29 1h-34l15 2l32 1l20 -2l13 -5l3 -16zM653.001 511.002l12 -21l-6 -5l9 -18
l7 -4l9 -10l-11 6l-5 1l-14 23l4 7z" />
    <glyph glyph-name="backslash" unicode="\" horiz-adv-x="221" 
 />
    <glyph glyph-name="bracketright" unicode="]" horiz-adv-x="932" 
d="M37 481l5 -9zM42 509l4 -9zM56 370l4 -9zM60 343l5 -10zM65 315l4 -9zM65 644l4 -10zM69 287l5 -9zM69 671l5 -9zM74 699l5 -9zM79 727l4 -9zM83 755l5 -10zM88 782l5 -9zM93 153l4 -9zM93 810l4 -9zM97 125l5 -9zM97 838l5 -9zM102 97l4 -9zM116 875l-10 -5zM167 861
l-10 -5zM204 468v-5h4v5h-4zM116 838l92 -278c6.66699 -12 0.666992 -35 -18 -69l-74 -5l-60 5zM213 486l-9 -5zM227 407l-9 -4zM218 528v-9l9 4v5h-9zM208 514l14 28l9 -10l-13 -37l-5 5l-9 -5l14 19v5zM231 463v-5h10v5h-10zM236 523l5 -14zM241 556v-5h9v5h-9zM255 838
l-10 -5zM250 403v-5h9v5h-9zM255 454v-5h4v5h-4zM264 394v-10h5v10h-5zM269 380v-5h4v5h-4zM269 537v-9h9v14zM273 569l5 -9zM287 634v-4h5v4h-5zM319 139v-5h5v5h-5zM278 370l65 -194v-23l9 4l-65 213h-9zM255 546v-9h9l5 19l13 -14l61 222l9 14l-5 23l-23 -83h-9l4 -14
l-9 -5l5 -9l-9 -5l4 -9l-9 -5l5 -9l-10 -5l5 -9l-9 -4l4 -14l-23 -37v-10l9 5l-4 -9l-5 4zM130 856l176 -41.001l-5 9l55 -18l33 -232c6 -15.333 -0.333008 -30.666 -19 -45.999l-55 -19l-9 -9l-37 5l4 14h-9l-19 -24h-14v-9l-4 -5v19l23 14l-5 5l5 13h-14v24
c-34 74 -69.333 172.667 -106 296v4zM444 406.999v-4l14 4v5zM454 592.999l18 -5h-18v5zM458 420.999l4.99902 -14c9.33301 0 15.333 6.33301 18 19c6.66699 -6 19.334 1.66699 38.001 23l-5 23l-14 -18h-23l-9 -28zM499.999 578.999l23 -10h-23v10zM531.999 457.999v-4
l19 4v5zM550.999 541.999c-15.333 -3.33301 -23 2.66699 -23 18zM545.999 448.999v-9h14l-4 9h-10zM87.999 476.999c52.667 -6 99 -6.00195 139 -0.00195312l4 -9l51 4v-4l14 9l14 -9c-2.66699 8.66699 9.66602 11.667 36.999 9v-14l19 60c64.667 40 103 23 115 -51l-4 -14
l23 5l-5 14h14c6.66699 15.333 14.334 20 23.001 14h5l-5 9l14 -5l-9 -4l-5 -14l28 -5l-4 -23l13 -14l-13 -9l-28 -42l-51 -23l-65 14l-28 23c6.66699 -15.333 5.33398 -24.666 -3.99902 -27.999l4 -27l-9 -14l5 -19l-10 -18l5 -19l-14 -65l5 -4l-10 -65l-46 -14v9l-180 -41
l111 338l-10 -5l19 14l-5 9l-9 -9l-9 4c6 6.66699 6 14.667 0 24l-14 -10l14 -32l-5 -9h-9l5 27l-10 -9c3.33301 18.667 -1.33398 26.334 -14.001 23.001l14 -37l-4 -46l-84 -264l-64 347l13 5h5l-5 9zM568.999 402.997l5 -14zM568.999 564.997l5 -9zM573.999 360.997l5 -14
zM573.999 605.997l5 -9zM578.999 318.997l4 -13zM578.999 647.997l4 -14zM582.999 277.997l5 -9zM582.999 467.997v-5h5v5h-5zM582.999 689.997l5 -14zM587.999 235.997l5 -9zM587.999 730.997l5 -13zM592.999 198.997l4 -14zM592.999 768.997l4 -10zM596.999 156.997l5 -13
zM596.999 809.997l5 -9zM601.999 115.997l4 -14zM601.999 851.997l4 -14zM605.999 73.9971l5 -14zM605.999 888.997l5 -9zM610.999 31.9971l5 -9zM610.999 930.997l5 -10zM624.999 939.997l-9 -5zM643.999 832.997v-4h4v4h-4zM647.999 809.997v-4h5v4h-5zM652.999 786.997
v-5h4v5h-4zM587.999 480.997v-9l93 5v4h-93zM689.999 443.997v-4h4v4h-4zM693.999 420.997v-4h5v4h-5zM698.999 430.997v-5h5v5h-5zM703.999 383.997v-9v9zM726.999 443.997v-4h4v4h-4zM726.999 462.997v-5h4v5h-4zM703.999 504.997l-0.000976562 -28h14v-9l9 4l-14 42l5 -5
l13 28c-8.66699 3.33301 -11.667 11 -9 23l-4 -28h-10c6.66699 -2.66699 5.33398 -11.667 -3.99902 -27zM726.998 513.997v-5h9v14zM730.998 439.997v-9l10 4v5h-10zM721.998 494.997v-4l19 9v5zM740.998 379.997v-5h4v5h-4zM740.998 467.997v-5h4v5h-4zM735.998 490.997
v-14l9 4v19zM740.998 513.997v-5h4v5h-4zM744.998 480.997v-4h5v4h-5zM749.998 462.997v-5h5v5h-5zM744.998 522.997v-4h10v4h-10zM754.998 467.997v-5h4v5h-4zM777.998 485.997v-5h4v5h-4zM791.998 485.997v-5h4v5h-4zM578.998 485.997l46 431l14 -28l-5 -19h10l46 -222
l-5 -18l9 4l-4 -32l9 -5l-5 -74l-13 -42l18 5l-5 23l10 10c-9.33301 15.333 -6.33301 26 9 32l-9 18l14 -13l-74 347l-19 18l5 10l176 -79v-14l-5 5l-65 -269v-9c15.333 0 18.333 -11 9 -33l10 5l55 292l28 -320l-19 -287l-9 -32c6 -6 6 -30.667 0 -74l-51 259l-9 32v-55
l56 -259l-176 -84v5l-5 32l5 -9c12 0 18 7.66699 18 23l65 310l14 37v10l-19 -5l10 -5l-10 -4l5 -14l-14 9l-74 -347l-46 393v33l9 14zM413.998 510.997l13 -8l20 18l-8 8l-18 5zM433.998 496.997l4 -14l25 2l-3 15l-9 12zM436.998 470.997l-3 -13l19 -15l7 12l1 15z
M403.998 510.997l3 20l-11 -2l-12 -10l11 -14zM384.998 460.997l-11 -11l3 -8l8 -9l7 20zM409.998 503.997c-0.666992 -2 -2.66602 -3.66895 -5.99902 -5.00195s-6.5 -4 -9.5 -8s-4.33301 -8.16699 -4 -12.5s1.33301 -8.66602 3 -12.999s4.66699 -7.33301 9 -9
s8.16602 -2.5 11.499 -2.5s6.5 0.833008 9.5 2.5s4.83301 4.33398 5.5 8.00098s1 7.5 1 11.5s-1.16699 8.5 -3.5 13.5s-7.83301 9.83301 -16.5 14.5z" />
    <glyph glyph-name="asciicircum" unicode="^" horiz-adv-x="261" 
 />
    <glyph glyph-name="underscore" unicode="_" horiz-adv-x="992" 
 />
    <glyph glyph-name="grave" unicode="`" horiz-adv-x="992" 
 />
    <glyph glyph-name="a" unicode="a" horiz-adv-x="1686" 
d="M44 972h226v-191h611l312 191h454l-766 -416h-837v416zM44 416h862l751 -416h-425l-368 191h-597v-191h-223v416z" />
    <glyph glyph-name="b" unicode="b" horiz-adv-x="1566" 
d="M309 965h950l279 -315v-51h-246l-112 149h-788l-117 -149h-245v51zM480 602h633v-232h-633v232zM27 343h246l115 -129h790l113 127h245v-45l-279 -297h-951l-279 297v47z" />
    <glyph glyph-name="c" unicode="c" horiz-adv-x="901" 
d="M38 966h225v-668h-225v668zM335 668h222v-370h-222v370zM629 668h225v-668h-225v668z" />
    <glyph glyph-name="d" unicode="d" horiz-adv-x="1240" 
d="M1201 965l-3 -17l-804 -948h-292l328 370h-356l152 222h397l130 151l-731 1l143 221h1036z" />
    <glyph glyph-name="e" unicode="e" horiz-adv-x="1510" 
d="M1480 973v-224h-149v-749h-202v749h-28l-356 -749h-259l-467 973h251l348 -696l337 696h525z" />
    <glyph glyph-name="f" unicode="f" horiz-adv-x="1516" 
d="M852 967l-0.00195312 -232.998c125.333 20.667 225.333 44.667 300 72s182.667 85.333 324 174v-200c-112 -74.667 -211.667 -129.834 -299 -165.501s-195.666 -66.834 -324.999 -93.501v-298h624v-223h-1436v669l262 1c118.667 5.33301 233.334 17.333 344.001 36l1 261
h205zM260.998 223.002h386v251c-90 -12 -183.667 -19.333 -281 -22h-106z" />
    <glyph glyph-name="g" unicode="g" horiz-adv-x="1495" 
d="M1444 975l-3 -17l-523 -958h-852v975h183v-750h561l280 542v6h-468v-59h-186v261h1008z" />
    <glyph glyph-name="h" unicode="h" horiz-adv-x="1570" 
d="M1539 975v-224h-1514v224h1514zM285 601h994v-224h-994v224zM25 225h1514v-225h-1514v225z" />
    <glyph glyph-name="i" unicode="i" horiz-adv-x="629" 
d="M572 975v-974.999h-185v730l-197 -196l-143 144c-2 5.33301 0.666992 10.666 8 15.999l276 281h241z" />
    <glyph glyph-name="j" unicode="j" horiz-adv-x="1461" 
d="M1426 971l-466 -971.001h-908v219h772l136 304c-69.333 -40.667 -133.333 -68.334 -192 -83.001s-126 -27.5 -202 -38.5s-199.333 -17.833 -370 -20.5h-140v219h144c168 10.667 276 19.334 324 26.001s113.333 22.334 196 47.001c101.333 37.333 184 73 248 107
s136 98 216 192z" />
    <glyph glyph-name="k" unicode="k" horiz-adv-x="1521" 
d="M1437 971c12.667 -5.33301 21.668 -14.667 27.001 -28v-910c-4.66699 -16 -15.334 -27 -32.001 -33h-1369v224h1180v524h-1180v223h1374z" />
    <glyph glyph-name="l" unicode="l" horiz-adv-x="1007" 
d="M944 976v-977h-260l-630 413l117 183l575 -373v754h198z" />
    <glyph glyph-name="m" unicode="m" horiz-adv-x="1000" 
d="M894 972v-261l-208 -2l-277 -485h552l-135 -224h-795l535 972h328z" />
    <glyph glyph-name="n" unicode="n" horiz-adv-x="1582" 
d="M318 188l24 2l409 782h257l544 -972h-252l-418 768l-406 -768h-250l-15 1l-25 36l-23 39l-31 54l-27 62l-26 65l-15 75l-16 85l-6 88l6 88l8 80l16 78l17 59l27 54l26 47l31 39l18 20h185l-32 -31l-26 -38l-26 -47l-20 -46l-18 -57l-16 -75l-13 -83l-5 -83l5 -83l16 -88
l20 -67l21 -41z" />
    <glyph glyph-name="o" unicode="o" horiz-adv-x="1388" 
d="M1036 972l331 -773l-132 -199h-1067l-137 202l319 770h686zM263 213h871l-226 535h-421z" />
    <glyph glyph-name="p" unicode="p" horiz-adv-x="1022" 
d="M967 967v-966.999h-736c-122.667 89.333 -188 234 -196 434c16 214.667 95.333 392 238 532h320v-234h-222v52h-36c-50.667 -58.667 -76 -175.334 -76 -350.001c-2.66699 -129.333 16 -200 56 -212h428v746z" />
    <glyph glyph-name="q" unicode="q" horiz-adv-x="1333" 
d="M1261 972l36 -36v-351h-224v185h-821v-546h689l-297 -224h-532l-73 73v860l39 39h1183z" />
    <glyph glyph-name="r" unicode="r" horiz-adv-x="1302" 
d="M1275 972l-816 -972h-283l600 720v17h-720l176 235h1043z" />
    <glyph glyph-name="s" unicode="s" horiz-adv-x="1479" 
d="M482 972l739 -741v741h208v-972h-285l-973 972h311zM90 462l756 -274l-67 -188l-759 269z" />
    <glyph glyph-name="t" unicode="t" horiz-adv-x="1607" 
d="M888 972v-787h64l331 336h291l-524 -521h-509l-529 524h293l334 -336h61v784h188z" />
    <glyph glyph-name="u" unicode="u" horiz-adv-x="1421" 
d="M1336 972l48 -48v-874l-51 -50h-1294v972h224v-762h897v538h-289l-137 -185h-289l306 409h585z" />
    <glyph glyph-name="v" unicode="v" horiz-adv-x="1261" 
d="M353 972l258 -261h42l257 261h317l-502 -504v-468h-187v468l-502 501z" />
    <glyph glyph-name="w" unicode="w" horiz-adv-x="1469" 
d="M1427 958l8 -16l6 -36v-846l-5 -31l-8 -17l-20 -6l-38 -6h-1275l-40 4l-20 11l-8 20l-6 30v841l5 30l8 22l20 10l38 2h1278l40 -5zM1248 235v513h-1007v-513h1007z" />
    <glyph glyph-name="x" unicode="x" horiz-adv-x="1209" 
d="M1173 99l-210 -99h-724l-209 99l484 871h213zM899 192l-278 564l-306 -564h584z" />
    <glyph glyph-name="y" unicode="y" horiz-adv-x="1428" 
d="M1398 974l-538 -974h-336l-494 890v46l27 31l33 7h451l227 -404h-234l-146 294h-110l392 -708h50l458 818h220z" />
    <glyph glyph-name="z" unicode="z" horiz-adv-x="1293" 
d="M1265 968v-969h-1179l-50 50v268h259v-92h746v335h-464l-148 -151h-338l372 372h578v187h224z" />
    <glyph glyph-name="braceleft" unicode="{" horiz-adv-x="1020" 
d="M88 729v-11v11zM99 740v-5h6v5h-6zM193 834v-5h6v5h-6zM210 845v-5h5v5h-5zM227 856v-5h5v5h-5zM326 260v-6h5v6h-5zM470 470v-6h5v6h-5zM646 492v-6h6v6h-6zM663 459v-23l11 6l-5 17h-6zM691 453v-11h5v11h-5zM724 403v-33h5v33h-5zM740 337v-6h6v6h-6zM729 459l6 -23
l11 6v17h-17zM746 365v-6h5v6h-5zM746 376v-6h5v6h-5zM696 492l33 -6v-11h17l-6 11l11 6h-55zM746 503v-6h5v6h-5zM746 271v-6h11v6h-11zM762 254v-5h6v5h-6zM768 547v-6h11v6h-11zM779 232v-5h6v5h-6zM779 365v-6h6v6h-6zM779 552v-5h6v5h-6zM785 243v-11h5v11h-5zM790 249
v-6h6v6h-6zM790 558v-6h6v6h-6zM796 564v-6l16 6v11zM812 586v-6h6v6h-6zM762 271l6 -11c3.33301 7.33301 14.333 7.33301 33 0l22 77v22l-11 -5l-11 -78zM818 376v-6h11v44zM840 470v-6h5v6h-5zM840 359v-28l11 23v38zM823 293v-17l44 11l-33 6l6 38zM867 298v-5h11v5h-11z
M878 365v-6h6v6h-6zM890 492l5 -11zM15 540c37.333 141.333 104.335 243.001 201.002 305.001s176 88 238 78c44 10.667 110.333 -0.333008 199 -33c154.667 -78 243 -194.333 265 -349v-38l-55 5l-17 67l6 -72l-44 11l-22 -17l-28 6v-17l39 -5l33 5
c44 -14.667 73.333 -14.667 88 0c-7.33301 -10.667 -5.33301 -21.667 6 -33l-166 6c-4 -11.333 -0.333008 -19 11 -23h22l-5 12l44 -12l-6 -5l6 -11l11 22l16 -44c-3.33301 44 17 58.667 61 44c7.33301 -40.667 -7.33398 -101.334 -44.001 -182.001
c-74 -147.333 -199.333 -230.333 -376 -249c-22 -7.33301 -86.333 2 -193 28c-62.667 18 -134.667 73 -216 165c-54.667 107.333 -80.334 172 -77.001 194v66l17 11h-17zM304.002 470.001v-6l44 6v5zM530.002 470.001v-11l72 5zM381.002 470.001v-6h22l-5 11z
M545.002 467.001l-3 27v13v62l-5 -55l-28 2l28 -7l1 -17l-48 -4h45v-9l-17 -2zM395.002 449.001l-1 7l-47 1v-15l21 -3l1 -26l5 -4l-4 -9l4 -7v-51l1 -67l-2 -8l-33 -3l6 -6l90 1l98 -2l35 1l-68 3l-99 1l-19 3l-2 36l16 1l-10 3l-6 1l-2 37l14 4l-1 45h-4v-40l-8 -3l-1 52
v36l21 3l1 -8l212 -1l-206 6l-1 16l251 4l-253 -2zM580.002 480.001l70 -7l1 6l-10 3v14l15 1l2 -25l66 -4l-1 12l-26 6l-5 9l45 3l4 9l16 2l8 -2l22 -5l20 18l41 -10l-4 41l-1 31l7 -1l1 -12l8 -18l9 -13l-4 -8l7 -17l41 -4l4 11l-2 22l-3 25l-7 28l-11 37l-10 26l-13 27
l-17 30l-25 36l-13 1v-13l4 -11l-9 -3l-20 14l2 -6l8 -17l-4 -9l5 -9l7 -19l8 -16v-15l-1 -27l-6 -24l-9 -17l-8 -12l11 7l8 12l10 7l3 -10l1 -16l-16 -11l-1 -7l-20 -14l-20 -2l-14 11l-33 4l-29 8l-17 11l-15 11l-12 12l-13 12l-19 38l11 -18l16 -18l14 -17l20 -12l2 5
l7 2l2 4l5 10l3 5l2 11l-6 6l4 8l-1 10l-3 13l5 3l-4 12l11 14l5 3l-1 5v23l3 -12l5 -1l28 20l5 -4l25 1l13 -8l-4 8l-14 24l-15 21l-22 17l-21 15l-35 9l-33 -1l-28 -12l-24 -30l-8 -43l10 -68l17 -33l14 -22l17 -17l24 -25l28 -11l3 -11l-17 -10l-12 -2l-18 -4l-19 -6
l-7 3l-4 2l-5 -16l-16 -4zM743.002 707.001l20 -2l-3 -8l-4 -11l4 -11l-12 -7l-6 12l-7 11l1 6l11 1l-1 8l4 -1l-4 1zM723.002 686.001l11 -6l-2 -10l4 -6l-3 -6l-2 -9l-5 -10l-3 16l-4 -11l-4 -3l2 -12l-1 -12l8 -3l8 -14l-9 4l-3 -8l-3 -12l-13 6l14 13l-5 11l1 8l13 10
l-19 18l4 5l12 8l3 12l-1 12zM745.002 637.001l-3 -12l5 1l5 6l-4 7zM704.002 629.001l3 -21l-2 -12l-7 -13l-10 -3l-9 9l12 -16l-3 -4l29 -11l-12 20l15 -2l11 8l-14 8l26 2l-4 16l-30 22l35 -5l-28 40l33 -6l18 -6l4 19l-2 24l18 -14l11 -13l-2 14l-13 8l-13 11l10 -44
l3 -32l-11 13l-46 29l-7 6l36 -34l-35 9l-10 -4zM459.002 402.001h-7l-7 3l-2 8l-1 -30l3 -64l2 -15l2 -35l4 -6l-3 26l8 7l3 -3l2 -26l2 12l7 1l2 -5l3 -7l8 10l9 -8l6 -3l1 16l11 2l-2 27l-19 -3v29l-2 5v58l-3 12l-4 -30l-6 2l-1 24l-5 -13l-7 -4v29zM451.002 385.001
l11 -2l7 3l5 -11h13l-1 -55l-2 40l-12 4l-2 -77l-2 73l-5 9l-6 -1l-1 -40l1 -23l-5 25l1 30zM452.002 234.001l2 -22h-3l12 6l-8 5l4 2l-12 4zM482.002 227.001l7 -26l4 -17l-9 -17l13 -1l-2 -19l1 -3l5 -25l1 34v40l-2 16l13 1l-4 13l-12 -6l-3 2l6 10l-9 -1z
M513.002 109.001l-1 -3l3 -3l2 2zM527.002 171.001l1 -7l12 7l-4 5l-4 -5h-5zM378.002 144.001l-4 -5l1 -3l4 -4l4 5zM406.002 221.001v-4l-1 -8l2 6zM554.002 148.001l-3 -18l6 -14l10 18l-5 5l3 6zM476.002 320.001l2 -22l24 -6l4 40l-2 32l-26 -22zM122.002 294.001
l4 -10l6 8zM148.002 336.001l5 -6l4 5l-2 4zM107.002 365.001l5 -5l2 4l-3 4zM132.002 365.001l4 -5l3 4l-3 2zM189.002 360.001l7 -10l3 6l-3 4h-7zM174.002 350.001l3 -4l3 4l-2 4zM177.002 385.001l5 -5l7 4l-6 5zM248.002 412.001l-6 -2l4 -4l4 3zM143.002 321.001
l-13 -5l17 1l5 -5l8 -5v6l-3 7l12 5zM170.002 339.001l1 -5l5 -4l4 7l-5 5zM95.002 480.001v-5l13 2l15 -5h33l-22 3l-16 4zM109.002 425.001l5 -3l6 5l-4 5zM216.002 245.001l-2 -3l4 -4l6 6l-5 3zM140.002 655.001l1 -6l11 3l-2 3h-10zM192.002 496.001l4 -10l9 6l-5 2
l-3 2h-5zM61.002 532.001l4 -4l5 4l-2 3zM62.002 514.001l3 -4l7 3l-2 3zM89.002 528.001l5 -7l2 5l-1 3zM58.002 440.001l2 -3l6 2l-1 4zM766.002 210.001l-24 -30l24 14l12 10v12zM736.002 222.001l-6 -14l-28 -22l-20 -18l34 20l16 14l12 32z" />
    <glyph glyph-name="bar" unicode="|" horiz-adv-x="600" 
 />
    <glyph glyph-name="braceright" unicode="}" horiz-adv-x="1020" 
d="M64 473v-3h2v3h-2zM35 494l10 -12l16 -2l3 -5c-2 4.66699 3.33301 7 16 7v7l-26 5c-4.66699 -3.33301 -11.667 -3.33301 -21 0h2zM102 461v-9l7 -5h4l-4 21zM116 369v-17h7c-3.33301 9.33301 -3.33301 17.333 0 24zM116 582l2 -10l5 7v7zM118 433l3 -15h4v17zM125 537v-7
l5 2l-2 5h-3zM128 612v-2h2v2h-2zM123 518l2 -5l7 2v3h-9zM125 548v-7h7l-2 7h-5zM90 487l0.000976562 -9.00098c6 4.66699 11.333 2 16 -8l29 5c0 4.66699 -7.33301 8 -22 10c-2.66699 -3.33301 -11.334 -2.66602 -26.001 2.00098h3zM142.001 415.999v-2h2v2h-2z
M142.001 599.999v-2h2v2h-2zM139.001 656.999l5 -9h5c1.33301 1.33301 -1 4.33301 -7 9h-3zM149.001 635.999v-5h2v5h-2zM151.001 666.999v-5h3v5h-3zM149.001 659.999l2 -8h5l-5 8h-2zM151.001 677.999v-7l5 3l-2 4h-3zM156.001 276.999v-5h2v5h-2zM149.001 417.999
l2.00098 -7l10 5c1.33301 4.66699 -0.333984 8 -5.00098 10h-5zM158.002 195.999l3 -5h2v5h-5zM147.002 368.999c4.66699 1.33301 9.33301 -4.33398 14 -17.001v-14l-7 2c-3.33301 -6 -0.333008 -9.66699 9 -11l2 -19l-11 2l-5 21l2 10
c-4.66699 4.66699 -6 13.334 -4 26.001zM163.001 585.999v-4h2v4h-2zM161.001 675.999l2 -9h2v9h-4zM170.001 434.999v-2h3v2h-3zM170.001 529.999v-3h3v3h-3zM170.001 609.999v-2h3v2h-3zM168.001 651.999v-4h5v4h-5zM170.001 451.999v-5h5v5h-5zM173.001 510.999v-3h2v3
h-2zM173.001 670.999v-4h4v4h-4zM177.001 169.999v-2h3v2h-3zM180.001 332.999l2 -9h2v9h-4zM182.001 555.999v-5h5v5h-5zM180.001 651.999l2 -9l5 5l-3 4h-4zM182.001 675.999v-5h5v5h-5zM182.001 410.999l7 -2v-7l-9 2zM187.001 384.999l2 -7h2v7h-4zM187.001 448.999v-7
h4v7h-4zM189.001 623.999v-5h2v5h-2zM170.001 384.999l5 -9l7 2l5 17l2 -3l5 3c-3.33301 22 -3.33301 36 0 42l-5 -2l-5 -14l-11 12l-3 -10c6.66699 -22 6.66699 -34.667 0 -38zM163.001 190.999l5 -11l9 7l12 -12h7l-5 12h-9l-2 4l-5 -2zM187.001 169.999l4 -7h8l-5 7h-7z
M199.001 153.999v-5h4v5h-4zM199.001 183.999l2 -4h2v4h-4zM201.001 429.999v-2h5v2h-5zM203.001 675.999v-5h3v5h-3zM203.001 200.999v-2h5v2h-5zM158.001 538.999l-0.000976562 -4.99902h10l-3 7l15 -2l-5 -14l-7 2v-19l5 3l-3 9l7 -7h3l-3 9h7v10l7 -2l8 7l-5 -7h9l-7 18
l12 24l-2 5l-7 -5c-2 -14 -5.33301 -22 -10 -24c-9.33301 -2.66699 -14.666 0.666016 -15.999 9.99902c-10 -3.33301 -15 -7.33301 -15 -12l3 -7h-3zM206 702v-2h2v2h-2zM206 267l2 -5h2v5h-4zM203 381v-7h7l-2 7h-5zM206 584v-7l4 2l-2 5h-2zM201 173l5 -11.999l7 2
c1.33301 1.33301 -1 4.66602 -7 9.99902h-5zM210 357.001l3 -7h-7zM210 662.001v-5h3v5h-3zM201 615.001l2 -10l12 5l-12 5h-2zM213 622.001v-3h2v3h-2zM210 161.001l3 -7h4l-2 7h-5zM210 184.001l5 -9h2l-2 9h-5zM215 690.001v-2h5v2h-5zM220 591.001v-2h2v2h-2z
M220 674.001v-5h5v5h-5zM222 161.001v-5h5v5h-5zM225 416.001v-2h2v2h-2zM213 430.001l9 -7l5 3l-2 7zM225 520.001v-2h4v2h-4zM225 541.001l2 -7l5 3v4h-7zM225 572.001v-2h7v4zM217 402.001l3 -5l7 3v-8l9 5l-7 14h-4l2 -9h-10zM232 132.001l2 -7h5l-3 7h-4zM229 229.001
l10 -4h-5l5 -8v-14l-10 12v14zM234 544.001l2 -10h3v10h-5zM234 591.001l2 -5h3v5h-5zM236 243.001v-4h5v4h-5zM239 125.001l2 -4h2v4h-4zM241 572.001v-5h2v5h-2zM241 558.001l2 -5l5 3v2h-7zM189 300.001v-4.00098c6.66699 2.66699 13.667 -1.33301 21 -12l12 12l21 -5
l8 2l-3 5c-25.333 0 -38 4 -38 12c-2.66699 2.66699 -9.66699 -0.666016 -21 -9.99902zM236 340c-1.33301 -6 1 -9.66699 7 -11l-4 -7l7 -8l9 3l-2 9c6 2 6 8.33301 0 19l-5 -5l-2 3zM234 390v-2c6 2.66699 10 2.66699 12 0l5 4l7 -9l-3 17l-4 -3l-8 7
c2 -8 -1 -12.667 -9 -14zM260 456l-5 -2zM210 149l17 -10v-4l26 2l9 -5v5l-21 5l-2 5l-14 -3l-8 7zM258 428v-7h4l-2 7h-2zM265 199v-5l-5 2zM260 336v-3h5v3h-5zM253 478l14 -3l-5 -7l-9 5v5zM267 376v-5h3v5h-3zM272 300v-4h2v4h-2zM272 376v-2h2v2h-2zM270 135v-5h7v5h-7
zM277 416v-2h2v2h-2zM284 364h4v-5h-4v5zM286 279v-2h5v2h-5zM286 333v-4h5l-3 4h-2zM286 390l5 -2l-5 -12l2 12zM300 303v-5h5l-2 5h-3zM281 473l17 -3l5 3l4 -5l-4 -5l-24 5zM307 258v-3h3v3h-3zM307 267v-5l7 3l-2 5zM307 333v-9l7 5l-4 4h-3zM310 364l4 -2v-5h-4v7z
M310 130v-5h7l-3 5h-4zM317 390c1.33301 -9.33301 -0.333008 -14.668 -5 -16.001c-1.33301 6 -5.33301 9.66699 -12 11c3.33301 -1.33301 9 0.333984 17 5.00098zM314.001 219.998v-10h8l-3 12zM319.001 436.998v-2h3v2h-3zM314.001 422.998l3 -5l5 3l2 -3v8z
M322.001 167.998v-7h4l-2 7h-2zM331.001 169.998v-7h5v7h-5zM336.001 254.998v-2h2v2h-2zM333.001 503.998l3 -12h2v12h-5zM215.001 245.998c-3.33301 -8 0 -17.667 10 -29l-3 -2l5 -14h-7c-6.66699 -16 0.333008 -25.333 21 -28l2 -17l-14 2v-4l10 -3l9 5l5 -7h2l-16 42
l59 -9l5 -21l4 -5l-2 24l26 -5l5 5l7 -3v5c-6.66699 -1.33301 -10.667 1 -12 7l2 2l-2 15l7 4v3l-12 -3l-9 -11l2 -17l-14 2l-5 3c2 4.66699 -0.333008 12.334 -7 23.001c0 -6 -4 -9.66699 -12 -11v-5c6.66699 1.33301 10 3.66602 10 6.99902l5 -10l-3 -4l-21 7l2 7l-7 7
c3.33301 4.66699 0.333008 15.667 -9 33h-5l2 -24l-2 -2l-5 7l-12 12l-9 2c0 10 -4 13.333 -12 10zM343.001 313.998l2.00098 -9l5 2l-2 10c6 0 6.66699 4 2 12l-5 -3c3.33301 -6 2.66602 -10 -2.00098 -12zM352.002 120.998v-3h7l-2 5zM357.002 465.998h5l-3 -7z
M364.002 446.998v-3h2v3h-2zM366.002 500.998v-2h3v2h-3zM371.002 413.998l3 -7h2l-2 7h-3zM371.002 465.998h5v-7l-5 2v5zM326.002 287.998l5 -11l7 2l14 -7c2 -6.66699 6.66699 -10 14 -10l5 5c3.33301 -6 7.33301 -6.66699 12 -2l-5 14l3 2l-10 17l5 9h-5l-2 24l-5 -2
l2 -7l-2 2l-7 -5l2 -21l7 7l-4 -9l4 -5l-4 -5c-8 0 -12.667 3.33301 -14 10v-5zM383.002 488.998v-2h2v2h-2zM118.002 316.998v-5.00293l26 -7l5 -7l-2 -7c6 -2 9 -5.33301 9 -10h5l-3 22l17 -5l-2 9c7.33301 8 9.66602 13.667 6.99902 17l-10 2l-5 40l8 -2
c-2 -9.33301 0.333008 -15.666 7 -18.999l-3 -9h7l-2 19h5l-5 4l2 5l10 -12l-7 -23l2 -3l10 5c-3.33301 -8 -3.33301 -13.667 0 -17h11l10 10l2 21l-5 10c12.667 1.33301 22.334 -1 29.001 -7c1.33301 6 5.33301 9 12 9v-7l19 2c0 -9.33301 3.66699 -13.333 11 -12l-2 5h5
l-3 -9l5 -3v-14c4.66699 0 6.33398 -2.33301 5.00098 -7l5 2l-3 29l10 2l38 -5l28 10l-10 2v5l-4 -2l-3 2v7l5 -5l14 -2v-5l7 5l3 12l-3 7c-7.33301 -6.66699 -16 -6.66699 -26 0c3.33301 8 2.66602 12.667 -2.00098 14c-1.33301 18.667 1 28 7 28
c-4.66699 0 -6.33398 8.66699 -5.00098 26l-4 -2l2 -7c0 -11.333 -3 -17 -9 -17l7 -4l-3 -3l3 -30l-7 -10l4 -2v-21l-23 4v22l-7 9l4 9l-4 15c2.66699 -2 6.33398 0.333008 11.001 7l-2 2l-17 -2c3.33301 -9.33301 3.33301 -16.666 0 -21.999l-9 3l2 7h-7l-4 -7l-5 5h7l2 2
l-2 21l-17 -19l-7 -30l5 -12l-12 -5l-7 2v15h-7l2 -8l-2 -2l-7 5l-7 -7l4 -10c-2.66699 6.66699 -8 10.667 -16 12l-28 2l-8 8c-6 -3.33301 -15.333 -2.66602 -28 2.00098v7l-5 2l-4 -2l2 9c-4.66699 2 -6.33398 6 -5.00098 12l-4 -4v-26
c-2 -6.66699 -7.66699 -7.66699 -17 -3l9 -38l-14 3l3 -14c10.667 0 15.334 -2.66699 14.001 -8zM383.002 498.995v-7h5l2 7l-2 5zM390.002 453.995h5l-3 -10zM383.002 406.995v-10h5l4 7v-12h5c3.33301 8 0.333008 13.667 -9 17l2 12l-7 -3v-11zM397.002 422.995v-2h3v2h-3
zM400.002 429.995v-4h4v4h-4zM385.002 266.995v-5c6.66699 0 10 -1.33301 10 -4l12 4l-3 5h-19zM404.002 408.995v-5h5v5h-5zM385.002 212.995l2.99902 -24l16 -7l7 2v12c-7.33301 2 -12.666 -0.333008 -15.999 -7l-5 10c6.66699 4.66699 6.66699 10 0 16zM414.001 422.995
v-2h2v2h-2zM402.001 335.995v-5l5 2l9 -4l2 2l-2 7zM411.001 477.995v-3l10 3v4zM416.001 264.995v-5h7v7zM423.001 439.995v-5h3v5h-3zM418.001 507.995l3 -4l5 2v12h-5zM426.001 124.995v-2h2v2h-2zM430.001 103.995v-2h3v2h-3zM426.001 377.995v-4l7 2l-3 7z
M416.001 148.995l1.99902 -5l5 3c-1.33301 -8 0.333984 -13 5.00098 -15v12l2 -2l7 2c2 6.66699 -0.333008 10.667 -7 12l5 14h-14zM433 231.995l2 -7h2v7h-4zM428 269.995l2 -12l7 2l-2 19h-5l3 -7zM435 446.995v-3h2v3h-2zM440 122.995v-5h2v5h-2zM433 375.995v-2l9 2
l-2 5zM348 179.995l-0.000976562 -5l42 -7l5 -36l7 -2l-2 -9l11 -3l3 -7h16l3 -7l4 7h7l-2 5l-14 -3v8l-7 -5l-7 2c2.66699 17.333 1.66699 28.333 -3 33l-9 -2l2 9l3 -2l9 5v9l-7 7l-28 -2l-3 35l-7 5l-2 -7c4.66699 -12.667 6.33398 -23 5.00098 -31l-15 3l3 28h-7l2 -5
l-5 -4l5 -12c0 -6.66699 -3 -9 -9 -7zM439.999 221.995l4 -9h5c-3.33301 4.66699 -3.33301 8.66699 0 12zM443.999 432.995v-5h8v5h-8zM448.999 89.9951v-10h5v10h-5zM446.999 399.995l2 -22l5 3l-2 21zM451.999 75.9951v-5h4v5h-4zM443.999 108.995v-7l12 4v5z
M200.999 651.995v-4l31 -5l-3 -17h5l-2 -11h4c-1.33301 -3.33301 1 -7.33301 7 -12l3 -19l9 -7l3 -12c6 1.33301 10 -1 12 -7l7 2l14 -9l5 -10l7 3l2 -5l28 -5l5 -7l2 5c10 1.33301 15.667 -1 17 -7l2 5c38 0 70.333 10 97 30v3l-40 -10
c-33.333 -4.66699 -69.666 3.33301 -108.999 24l-7 9l-7 3c-4.66699 10.667 -13.334 18.334 -26.001 23.001l-9 59c-2 11.333 0.333008 28.666 7 51.999c8 2 10.333 7.66699 7 17c9.33301 3.33301 13.333 8 12 14h-5l-26 -40l-12 -10l2 -9l-11 -24l2 -4l-5 -7l3 -10l-19 5z
M439.999 302.995l2 -5l7 2l-2 -9l7 9h5l-5 7c-9.33301 2 -14 0.666992 -14 -4zM422.999 335.995v-5h7v-12l7 3l17 -8l5 5l-7 14l-8 -2l-7 5l-2 -3zM458.999 410.995l2 -4h2v4h-4zM462.999 432.995v-5l5 2v3h-5zM465.999 481.995v-2h4v2h-4zM467.999 51.9951v-7h5v7h-5z
M439.999 167.995l2.00098 -12c12.667 1.33301 19 -1.66699 19 -9l-9 -8l4 -2l-2 -14l5 -7c7.33301 -2 12.666 -0.333008 15.999 5c-3.33301 2.66699 -3.33301 12 0 28l-7 14l7 2c3.33301 17.333 -0.666992 27 -12 29h-4l-5 -31l-2 5h-12zM461 205.995v-7l9 -5l8 2l-10 12z
M478 543.995v-5h4v5h-4zM480 46.9951l2 -7h3v7h-5zM468 347.995l2 -10.001c8 -1.33301 13.667 0.333984 17 5.00098l-7 12zM466 375.994l4 -14h10v-5h5l9 21l-5 7l3 17l-10 2l3 3l-3 4c-1.33301 2 -4.33301 -0.333008 -9 -7c3.33301 -1.33301 2.33301 -10 -3 -26z
M492 89.9941v-5h4v5h-4zM478 422.994l7 -9h4l-4 9l2 -2l7 9h5v5l-12 -2zM501 526.994v-5h3v5h-3zM478 122.994l2 -12l19 -5l9 5v10h-4l-3 -5c-3.33301 14 -11 16.333 -23 7zM506 493.994v-2h2v2h-2zM513 39.9941v-2h2v2h-2zM494 44.9941v-5l7 -2l14 5l-4 4l-10 -4z
M485 172.994l2 -5l19 -3l2 -4l7 2l7 31l-4 9l-12 -4l-5 2l3 -10c-12.667 0 -19 -6 -19 -18zM522 75.9941v-3h3v3h-3zM520 167.994v-3h5v8zM520 323.994v-2h5v2h-5zM527 172.994v-5h3v5h-3zM530 264.994v-3h4v3h-4zM532 495.994v-2h2v2h-2zM534 34.9941v-2h3v2h-3z
M482 153.994l7.00098 -5c-4.66699 -8 -2.33398 -13.667 6.99902 -17l17 3v-3l7 3l5 12c1.33301 -3.33301 6 -3.33301 14 0l-2 7l-24 -5l-5 5l-26 4v-4zM537.001 172.994v-8h2v8h-2zM527.001 453.994l12 -2v-5l-12 5v2zM511.001 86.9941c7.33301 2 9.66699 -4 7 -18l4 7l-2 4
h7l-7 -19l2 -4c3.33301 8 9 9.33301 17 4l7 8l-5 7l-4 -7h-7c4.66699 4.66699 6 9.33398 4 14.001l-7 9h-12c0 -4.66699 -2.33301 -6.33398 -7 -5.00098h3zM541.002 874.994h5v-5h-5v5zM546.002 172.994v-3h2v3h-2zM537.002 380.994l2 -10h9v5l-7 5h-4zM522.002 115.994
l3 -7l21 2v-7l5 7l-14 12l-5 -2l2 -5l-9 5zM513.002 344.994l7 -14c8 3.33301 13.667 3.33301 17 0l4 14l7 -2l3 2c-3.33301 4.66699 -7.33301 7 -12 7l-2 10h-22l5 -10l-2 -7h-5zM544.002 94.9941v-5l7 -5l5 2l-8 8h-4zM553.002 389.994v-2h3v2h-3zM553.002 479.994v-2h3v2
h-3zM546.002 32.9941l5 -5l12 3l-3 4zM556.002 344.994v-5l7 3v2h-7zM558.002 893.994h7v-5h-7v5zM565.002 162.994v-2h2v2h-2zM567.002 72.9941v-4v4zM565.002 94.9941v-3h5v3h-5zM551.002 498.994l5 -10l-3 -2l5 -17l12 -2l-3 -5l-9 5l-7 -2l2 9l-7 3l7 11l-5 5z
M560.002 176.994l14 -2v-5l-14 3v4zM556.002 143.994c-3.33301 -6 2.66699 -10.667 18 -14h8l-5 12l-10 -3l-4 12zM582.002 146.994v-5h4v7zM582.002 127.994v-3h7v5zM579.002 169.994l5.00098 10l7 -5c1.33301 -8 -0.333984 -12.667 -5.00098 -14h-7l5 12zM593.003 278.994
v-5h3v5h-3zM589.003 42.9941h9l-5 -8l-4 3v5zM600.003 337.994v-2h3v2h-3zM608.003 75.9941v-5v5zM537.003 179.994v-2.99902l7 3l14 -12c6 3.33301 10 2.33301 12 -3l-3 -7l3 -2c1.33301 3.33301 9 2.66602 23 -2.00098l12 11c-4.66699 8 -3 13.667 5 17l-19 2l-2 5l-29 -5
c-9.33301 11.333 -17 10 -23 -4zM612.003 75.9951l3 -5zM626.003 77.9951l-4 -2zM624.003 344.995l2 -5zM617.003 904.995h9l-2 -9l-7 5v4zM626.003 219.995v-5h3v5h-3zM634.003 864.995l4 -2l-4 -2v4zM636.003 344.995l5 -2v-7h-7zM636.003 65.9951v-2h7v2h-7z
M586.003 886.995l16.999 -5.00098c4.66699 3.33301 12.334 3.33301 23.001 0c2 6 7 9 15 9c-3.33301 -12.667 -11.333 -18 -24 -16l5 -7l9 2l-2 -7l-3 2l-9 -4l-9 4l-8 -4l-11 7c-2 -3.33301 -10 -3.33301 -24 0l7 11c8 -1.33301 12.667 1.33398 14 8.00098z
M643.002 68.9941v-3h5v3h-5zM643.002 834.994v-5h5v5h-5zM641.002 207.994l2 -7h5l-3 5h10v4zM657.002 389.994h5l-7 -14zM655.002 886.994l7 -3l-12 -14h-5zM662.002 176.994v-4h2v4h-2zM624.002 855.994l14.001 -3l10 -9c9.33301 0 15.666 -3 18.999 -9l-12 -15l-24 7l3 8
l-15 2zM662.003 869.994l5 -7v-12l-10 7zM652.003 328.994l12 -7h7c2 1.33301 -0.333008 4.33301 -7 9zM667.003 339.994v-2h4v2h-4zM641.003 734.994c14 2 24 0.333008 30 -5l-2 -4l-12 4l-14 -4l-5 2zM674.003 793.994v-4h2v4h-2zM667.003 909.994
c9.33301 2 14.667 0.333008 16 -5l-2 -4l-14 4v5zM686.004 876.994h4v-7h-7zM690.004 725.994h7v-5h-7v5zM690.004 290.994l10 -5h-10v5zM660.004 800.994c6 5.33301 17.667 0 35 -16l-2 -12l11 -5l-2 -4h-7c-6 4.66699 -9 10 -9 16c-2 -8 -7.66699 -9.66699 -17 -5
c-11.333 10 -16 16.333 -14 19zM704.004 897.994v-2h3v2h-3zM704.004 635.994h5v-5h-5v5zM712.004 309.994v-3h2v3h-2zM695.004 748.994c11.333 2 18.333 0.666992 21 -4l-4 -15l-31 3l7 2zM707.004 760.994h9v-7h-12zM714.004 266.994v-5h5v5h-5zM719.004 585.994l11 -2v-5
h-14zM738.004 760.994l-5 -2zM735.004 325.994l5 -2l-2 -10zM740.004 228.994l7 -2v-5l-7 3v4zM749.004 718.994v-5l-7 2zM749.004 325.994l5 -2l-5 -7v9zM610.004 240.994l-0.00292969 -4.99902l7 3l2 -10v-2l5 2l-2 5c8 -1.33301 12 -3.66602 12 -6.99902h9l-7 -7l2 -3
l12 3l14 -17l-4 -7l2 -5c-20.667 -1.33301 -31.667 0.333984 -33 5.00098l-12 -7l2 -7c16 3.33301 35 3.33301 57 0l-5 -9h12c-1.33301 6 4.33398 9 17.001 9c0 3.33301 -4 5 -12 5l7 7v5c18.667 0 30.334 -3.33301 35.001 -10l5 7h5l-5 12l31 14v5l-14 2v5
c-9.33301 1.33301 -16.666 -0.333984 -21.999 -5.00098l3 -4l-10 -8h-7l7 10c-14 1.33301 -25.667 -3.33398 -35 -14.001l-2 4c-5.33301 6.66699 -11 6.66699 -17 0l-9 12l-12 -4l4 11l-23 10c-4.66699 -4.66699 -11.667 -6.33398 -21 -5.00098h2zM730.001 640.995
c5.33301 -6.66699 12.667 -6.66699 22 0l14 -5l-21 -7l-17 5l-5 -3zM766.002 337.995v-2h2v2h-2zM759.002 718.995l12 -3v-4h-12v7zM735.002 746.995c9.33301 -4.66699 15 -3 17 5l2 -7l17 -5l-3 -7l-9 5l-14 -3l-12 7zM773.002 245.995v-3h2v3h-2zM778.002 233.995v-5h2v5
h-2zM778.002 245.995v-3h2v3h-2zM778.002 739.995h5v-5h-5v5zM697.002 242.995l9.99902 -3.99902c12.667 2.66699 20.334 1.66699 23.001 -3l10 3l-2 7l23 9h7v-7h5l-2 5l14 7l-10 5v7l-23 -2l-3 -5c-17.333 1.33301 -25 -4.33398 -23 -17.001l-17 3zM785.001 713.996h5v-5
h-5v5zM780.001 756.996l12 -5l-2 -7l-19 2zM778.001 633.996l23 -3l-4 -5h-22zM780.001 247.996l5 -8.99902l19 7v5l-14 -3v5c-4.66699 1.33301 -8 -0.333984 -10 -5.00098zM806.001 354.997l3 -5zM809.001 588.997h4v-5h-4v5zM809.001 609.997l9 -5l-9 -2v7z
M820.001 264.997v-3h5v3h-5zM806.001 711.997l19 -5v-5l-21 5zM801.001 283.997l3 -5l12 -2h11v7l-11 -3l-5 5zM825.001 318.997l2 -5zM835.001 566.997v-4l-10 2zM837.001 531.997l2 -5h-4zM827.001 609.997l12.001 -5l7 3v-5c-12.667 3.33301 -21.334 3.33301 -26.001 0z
M832.002 389.997l3 -9.00098l4 2v-2l5 4l5 -2l-10 -19h-16c-3.33301 4.66699 -7.33301 6.33398 -12 5.00098c6 1.33301 13 8.33301 21 21zM837.002 706.996l14 -3l-2 -7c-8 3.33301 -12.667 3.33301 -14 0zM844.002 292.996v-7h9l-2 7h-7zM823.002 493.996l30 -5l-4 -7
l-29 5zM839.002 278.996v-7l17 2v5h-17zM842.002 543.996l16 -3v-4l-16 2v5zM856.002 552.996h5v-5h-5v5zM832.002 595.996l13.999 -3c-1.33301 -6 0.333984 -9.66699 5.00098 -11l10 -5l-29 -3c0 5.33301 -3 8 -9 8zM863.001 694.996v-5h5v5h-5zM870.001 280.996v-4h7v4h-7
zM884.001 607.996v-3h3v3h-3zM889.001 611.996v-4h9v4h-9zM891.001 313.996l3 -4c4.66699 2.66699 14 1.66699 28 -3l-7 7h-24zM879.001 328.996l-0.000976562 -4.99902l8 2l4 -4l14 2c8 -6.66699 14.333 -7.33398 19 -2.00098l-2 4c-9.33301 -1.33301 -15.666 1 -18.999 7z
M927 339.997h-12h12zM929 384.997v-4l-5 2zM969 519.997l3 -5zM473 961.997c42.667 3.33301 77.3428 1.67188 104.01 -4.99512c2 -11.333 32.333 -23 91 -35c41.333 -21.333 73.333 -45 96 -71c-5.33301 -16 -14.666 -29 -27.999 -39l67 -20l3 -9
c4.66699 1.33301 12.667 -5 24 -19l2 -15c11.333 -9.33301 16 -17 14 -23c12.667 -12.667 23 -22.334 31 -29.001v-7l-24 -7l5 -20c23.333 -2 34.333 -11 33 -27c-18.667 -1.33301 -28.667 0.333984 -30 5.00098l9 -19l12 -7v-5
c3.33301 10.667 12.666 12.334 27.999 5.00098l-5 -15l19 -9c0 -8 -3 -12.667 -9 -14l14 -5l-5 -24c10 -6 22.667 -9.66699 38 -11l-2 -17l14 17l12 -24v-14c-4.66699 17.333 -9.33398 26 -14.001 26h-5c-1.33301 -11.333 -7.66602 -16 -18.999 -14l-9 11
c7.33301 0 12.666 3.33301 15.999 10l-31 2l-14 22l10 11l-17 3l2 9l-2 7c3.33301 -2.66699 7.33301 -2.66699 12 0l-2 7l-31 3l-10 7l3 2c1.33301 4.66699 -3.33398 8 -14.001 10c4.66699 9.33301 2 14.666 -8 15.999c3.33301 6.66699 3.33301 10.667 0 12l-52 5l-7 7
l88 -12l2 2l-2 10l-19 -3l-28 8v4c7.33301 -2.66699 12.666 -2.66699 15.999 0v7h-7v10c-9.33301 1.33301 -12.333 6 -9 14l23 -2v26c-8 -8 -13.333 -10.333 -16 -7l2 9l-12 17h-5l-4 -15l-10 15l-14 -3v5l2 -2l5 2l-5 9c10 -2.66699 16.333 -2.66699 19 0v5h-7l5 10l-5 7
l-16 4c-3.33301 6.66699 -2.66602 13 2.00098 19l-9 5l-12 -7l-10 7h-11l-3 7c-10.667 -1.33301 -22.334 1 -35.001 7v5l11 -2l22 14v9l5 3l-5 16l-14 24h-5l2 -12h-14l-2 12l-19 12l-3 9c-6 6.66699 -13 10.667 -21 12c-6 -1.33301 -21.667 4 -47 16
c-41.333 6.66699 -61 14 -59 22l-109 2c-82 -10.667 -149.667 -34.334 -203 -71.001v-12l9 -4l-5 -10c6.66699 -1.33301 10 -4.33301 10 -9l5 2l-3 -9l10 -3l-5 -16l5 -3l-3 -11l15 7l7 -5l-5 -21l12 9c-2 9.33301 2.66699 13.333 14 12l-7 -12c6 -1.33301 6 -8.33301 0 -21
l54 21c42.667 6.66699 78.334 -0.333008 107.001 -21c20 -12.667 34.667 -35.667 44 -69c2 -40.667 0.666992 -65 -4 -73l-26 -45l-24 -26l10 -2l-8 -10l8 -7l4 2c0 10 2.33301 14 7 12v-7c4.66699 -1.33301 6.33398 -5.33301 5.00098 -12l5 5l2 14l3 -2l4 5v-7l5 2l-2 -7
l4 -3c-2.66699 -12 -2.66699 -20.667 0 -26l7 -2c-2.66699 -1.33301 -1.66699 -6.66602 3 -15.999h5l-3 16l7 14l-2 3l7 -3l-5 -2v-10l7 -11l-4 -10h7l-5 -26l5 -9l-7 -5c-10 3.33301 -15.667 3.33301 -17 0l-7 7l-5 -5l-9 5l-33 5
c-3.33301 -6.66699 -9.66602 -7.66699 -18.999 -3l-7 -2v-7c-8 3.33301 -12.667 3.33301 -14 0c7.33301 1.33301 12 5.33301 14 12l-10 9l-16 -14l-10 7c-4.66699 -3.33301 -10 -3.33301 -16 0l2 14l-7 -11l-9 -5c-10 3.33301 -15.667 3.33301 -17 0l2 7l-2 2l-7 -2l-5 5
l-19 -3l-4 7c-2 -4.66699 -6 -6 -12 -4l-7 9l-3 -7l-2 2l-14 -2l7 7v2h-12l-2 -4l-3 2c-6 -6 -13 -6 -21 0c3.33301 11.333 3.33301 18.333 0 21l5 17l-3 7h-9l5 -14c2.66699 -20.667 -0.666016 -31.667 -9.99902 -33l-16 4l-3 -4l-19 -5l-4 7l4 24l-4 2l2 7l-17 -9
c0 -4.66699 3.33301 -8 10 -10l-7 -16l-38 9l-14 -2c1.33301 8 -0.333984 12.667 -5.00098 14l-7 -2l-5 -10l-5 3l3 23l-10 -2c2 -12.667 -0.333008 -19 -7 -19l-56 9l-3 -2l3 -12l9 5l7 -7l7 2l5 -5l64 -7l7 3l16 -7c3.33301 2.66699 13.666 1.66699 30.999 -3v-4
c-26.667 2.66699 -44 2.66699 -52 0l2 -8l19 -2l7 2l15 -9l28 2l5 -4l23 2c-1.33301 -11.333 2 -16 10 -14l-3 5l3 2l9 -10l12 3c2 -6.66699 7.66699 -7.66699 17 -3l-5 10l-7 -5v10c4.66699 -3.33301 12.667 -2.66602 24 2.00098c6 -1.33301 9 -6 9 -14
c1.33301 -4.66699 -4.33398 -9.33398 -17.001 -14.001l-2 -5l2 -2h8l-3 9l17 -2c-3.33301 7.33301 -3.33301 12.666 0 15.999l21 -9c-3.33301 12.667 -0.333008 19 9 19l15 -3l-3 -2l3 -5c4.66699 -1.33301 7.66699 0.333984 9 5.00098l12 -5l2 3l-2 4l16 -21
c5.33301 16 12.666 23 21.999 21l14 -9l7 5l9 -3l8 -7l21 2l9 -4l38 2l21 -7l-4 -47l2 -3h5l4 50c17.333 3.33301 27.666 2.66602 30.999 -2.00098v-7l-9 -5v-5h7l-5 -31l10 -9h9l2 9h7c0 -6 4 -13 12 -21l-2 -14l5 -2c-3.33301 -16 -3.33301 -24.667 0 -26h21l5 -10l7 2
l-3 5l5 10l-2 23l9 -4c2 4.66699 4.33301 6 7 4l-2 -2l7 -7l5 2l7 -9v9h14l-2 -23c7.33301 2.66699 10.333 9.66699 9 21c8 1.33301 12.667 -1 14 -7l17 -3c-2 -20 -4.33301 -31 -7 -33l-43 -4c-4.66699 -3.33301 -6.33398 -7.33301 -5.00098 -12h-4l-19 -19h-19l-5 5l14 2
l-7 7l-16 -2v-5l7 -2l-3 -5l-2 2l-14 -5l-5 3l3 2l-3 7h-5v-4l-18 -3l2 -5c9.33301 3.33301 15.666 3.33301 18.999 0c-9.33301 0 -13.333 -3.66699 -12 -11l19 2l12 -5c1.33301 3.33301 8.33301 3.33301 21 0l-2 5l-12 5l14 4l2 -2l50 2l5 10
c2.66699 -3.33301 8 -3.33301 16 0l10 9l-3 -7c6.66699 0 10 -1.33301 10 -4l7 2l-2 9l2 -2l12 2l7 -7l21 3l12 -10l7 7c0 8 -4 12.667 -12 14c9.33301 2 13.333 5.33301 12 10c-10.667 0 -20 -3.33301 -28 -10l-3 3l-23 -7l-7 4v8l9 4l-2 5l2 -2l21 4v12h-9l5 26l9 10
c-4.66699 1.33301 -6.33398 3.66602 -5.00098 6.99902l10 4l5 10l11 -10l-2 -7l-14 -4v-5h12l-7 -14l7 4l11 -4l3 2l-3 10l12 -12c2 14 6 19.333 12 16v-9h10l7 9l9 -2l-19 -19h-7l-7 -7l-12 5h-12l3 -7l-14 2l-3 -2l10 -8c10.667 3.33301 19.334 3.33301 26.001 0l4 5
l-2 -9h28v4l-9 8l21 -3l3 3l-3 9h5v12c-6.66699 1.33301 -7.33398 6.66602 -2.00098 15.999l9 7v5l2 -2l7 2l5 -12l26 -4l31 16c-6.66699 8 -6.66699 13.667 0 17h12l-5 -17l12 -5l7 3l14 45l-16 -71l-19 21c-2 -14 -15.667 -18.667 -41 -14l8 -7l-22 7
c-1.33301 8 -4.33301 10.333 -9 7v-12c12.667 -6 29 -10 49 -12c-1.33301 -20 -3.66602 -31 -6.99902 -33h-21l-9 7c-6.66699 -1.33301 -16.334 1 -29.001 7l-4 -4l-24 -3l47 -14l7 -5l-2 -9c-18.667 -4.66699 -34.334 -13.334 -47.001 -26.001l-3 7l-9 -2l2 -7l-12 2
l-11 -21l-26 -5c1.33301 -9.33301 -1.33398 -16.333 -8.00098 -21l-26 -12c-2.66699 -17.333 -16.667 -19.666 -42 -6.99902l5 -7c9.33301 -4.66699 12.333 -10.334 9 -17.001c-9.33301 -3.33301 -13.333 -8 -12 -14l31 2l-2 -16c-2 4.66699 -22 6 -60 4l3 8l16 -3v5h-11
l21 12l5 7h-15c-1.33301 -4.66699 -5 -6.33398 -11 -5.00098l-8 7l-9 -5l7 -7c-16 2 -26.333 -0.333008 -31 -7l-28 5c1.33301 -6 3.66602 -9 6.99902 -9h28l5 -12l-9 -3h-7v7l-31 -4l5 -7l30 -5c-18.667 3.33301 -28 -2.33398 -28 -17.001l-9 5l-34 -2l-14 9l5 -19
c6 -1.33301 10 1 12 7l-3 -9l15 -5l2 -5h5l4 10c14.667 1.33301 22.667 -1 24 -7l-2 -7l-3 2l-9 -2l-5 4c-8 -9.33301 -14.333 -12.333 -19 -9c-1.33301 8 -4.33301 10.333 -9 7l2 -5l-5 -2l-2 2l-19 -2v-5l12 -12l17 3l2 -3l-7 -7l-10 3l-4 -5l-3 2l-9 -2l2 -5l31 3l9 7
l-14 -12l3 -7l-17 -5l7 -5l12 5l16 -9l36 7l12 9h14l16 10l29 9c9.33301 -1.33301 15.666 0.333984 18.999 5.00098v2c-25.333 -1.33301 -45 -6.66602 -59 -15.999l-10 4l-14 -4l-7 4l-14 -7l-3 3c-6 1.33301 -10.667 -0.333984 -14 -5.00098l-5 2l10 12l-2 5l2 -3l21 8
l21 18l-11 8l7 9h-12v9c8 -2.66699 16.667 -2.66699 26 0c-3.33301 6.66699 -3.33301 10.667 0 12l2 -2c16 6 31 6 45 0l-5 9l24 -2c-8 -12.667 -26 -19 -54 -19v-9l-10 -19l-16 -14h16l3 -5c12.667 0 32.334 4 59.001 12l14 -10c-72.667 -39.333 -139 -59.666 -199 -60.999
c-143.333 -4.66699 -263.666 37.666 -360.999 126.999c-88.667 84 -139.334 189.667 -152.001 317c-4.66699 143.333 38 264 128 362c83.333 88 189 138.333 317 151zM752.009 532.003l-7 -5l-24 3l-2 4zM794.009 560.003l50.002 -3.99805l-7 -5l-7 -7l12 2l47 -7h-28
c0 -4.66699 -2.66699 -6.33398 -8 -5.00098l-16 3v-5l40 -2l-14 -10c-12.667 1.33301 -19 3.66602 -19 6.99902l-14 -5l2 3l-2 12l-5 -3l-7 5c-4.66699 -6 -10.334 -6.66699 -17.001 -2l5 4l7 -2l3 2l-10 3v4l-5 -7l-7 3l5 9c-4.66699 2 -6.33398 4.33301 -5.00098 7z
M704.011 589.005l15 -5v5l2 -3h14c2 6.66699 7.66699 7.66699 17 3v-12l-7 9h-7l-3 -9l-31 5v7zM809.011 642.005l-10 -2l-33 6l-71 2l81 1zM661.011 661.005h57l52 -3l39 -4l-81 3l-27 1l-37 2zM831.011 618.005l-48 1l-36 2l-27 1h53l33 -1zM776.011 702.005l-46 2l-39 2
l-26 1l69 -2l56 -3l33 -6zM876.011 584.005l-16 6l-87 6l-41 2l62 -2l30 -1l48 -6zM671.011 749.005l-22 2h30l5 -2h-13zM814.011 671.005l-20 -1l-26 2l-46 -1l41 -3l23 -1l20 2zM767.011 547.005l-39 3l-10 -1l52 -5l28 -1zM820.011 515.005l9 -4l37 -2l40 -3l27 1l8 1
l3 -3l-12 -1l-44 3l-57 2l-62 5zM765.011 526.005l58 -1l98 -4l-15 -3l-101 4zM895.011 576.005l-10 -3l-97 3l-21 5l33 -1z" />
    <glyph glyph-name="asciitilde" unicode="~" horiz-adv-x="600" 
 />
    <glyph glyph-name="bullet" unicode="&#xb6;" horiz-adv-x="1048" 
d="M306 1128l146.001 16l7 -26l-65 -42l-41 -4l-27 -277c21.333 51.333 46.333 86.833 75 106.5s62.167 32.167 100.5 37.5s77 5.66602 116 0.999023s68.667 -13.667 89 -27s37.666 -34.166 51.999 -62.499s23.833 -57.833 28.5 -88.5l7 -15l3 -68l31 -248l-110 -55l4 -11
l11 -9c80.667 20 123 19.333 127 -2l48 -8c17.333 -20 17.333 -35 0 -45l-555 -14l-187 -23c-18.667 14.667 5.33301 36.667 72 66l117 10l-16 18l-7 19l13 23l3 8l-53 24l22 247v61c-10 2 -17.333 10.333 -22 25l31 306l-24 10l-10 30zM615.001 740v-64l4 -8l-1 -314l29 -1
l3 338h5v46zM466.001 745l-12 -38l36 -8l9 44zM408.001 710l6 33l-12 2l-8 -35h14zM348.001 717h5l2 16l-27 2v-13zM713.001 733l-8 -40h16l13 38zM734.001 694l30 -1l13 17l1 18l-31 5zM322.001 707l130.997 -12.999l80 -15l-4 -277l-9 73
c-4.66699 53.333 -10.667 90 -18 110s-17.666 37.833 -30.999 53.5s-27.666 26.667 -42.999 33s-30.666 10.166 -45.999 11.499s-33.333 2.33301 -54 3zM661.998 677.001l115 16.002l1 -28c-14.667 -5.33301 -26.5 -9.83301 -35.5 -13.5s-17.167 -10.334 -24.5 -20.001
s-15 -24.834 -23 -45.501s-16 -62 -24 -124l-10 -80zM315.998 715.003l5 -36c16 0.666992 33 0.5 51 -0.5s34.5 -5.5 49.5 -13.5s29.667 -19.167 44 -33.5s24 -30.5 29 -48.5s14.833 -84.667 29.5 -200l9 -6l6 309l-87 14zM657.998 685.003l-1 -330.001l8 1
c14 126 26.167 201.667 36.5 227s19.333 41.833 27 49.5s17.5 13.834 29.5 18.501s21.333 7 28 7v40zM523.998 354.002l-21 76.999l-17 61.5c-6 21.667 -14.833 43.834 -26.5 66.501s-29.834 38 -54.501 46c-25.333 -1.33301 -42.666 -8 -51.999 -20s-18 -28.333 -26 -49
s-16.667 -53.667 -26 -99zM791.998 424.001c-10 72 -18.8301 119.832 -26.4971 143.499s-17.167 33.167 -28.5 28.5c-14.667 -10.667 -24.834 -21.667 -30.501 -33s-9.33398 -23.166 -11.001 -35.499s-5.83398 -36.5 -12.501 -72.5l-4 -62l-7 -35l120 61v5zM326.001 752
l-4.00098 -5l8 -8l46 6l50 4l69 2l114 -5l75 -7l80 -2l23 -10v25c-20.667 8 -43.167 13.833 -67.5 17.5s-54.5 6.83398 -90.5 9.50098s-71.5 3.66699 -106.5 3s-67.167 -1.83398 -96.5 -3.50098s-62.666 -10.5 -99.999 -26.5zM337 755c36.667 9.33301 77 14.5 121 15.5
s77.5 1.5 100.5 1.5s49.5 -0.5 79.5 -1.5s57.167 -3.33301 81.5 -7s45.5 -9.5 63.5 -17.5l4 -13l-31 7l-106 7l-75 4l-91 1h-66l-57 -5l-31 -6l-4 5zM480 913c38 -4.66699 67.834 -7.5 89.501 -8.5s43 -2.16699 64 -3.5s34 -0.833008 39 1.5s6 5.5 3 9.5s-8.66699 8 -17 12
s-22.5 7 -42.5 9s-37.167 3 -51.5 3s-28.333 -1 -42 -3s-27.834 -8.66699 -42.501 -20zM669.001 891c2.66699 -16 9.16699 -26.168 19.5 -30.501s18.5 -7.5 24.5 -9.5s11 -0.333008 15 5s4.16699 11 0.5 17s-8.66699 11 -15 15s-12.5 6.83301 -18.5 8.5
s-14.667 -0.166016 -26 -5.49902zM687.001 893.999c10 -0.666992 18.333 -3.33301 25 -8s11.667 -9.5 15 -14.5s3.5 -8.5 0.5 -10.5s-5.83301 -2.66699 -8.5 -2l-12.5 3c-5.66699 1.33301 -11 4.33301 -16 9s-8.16699 9.16699 -9.5 13.5s0.666992 7.5 6 9.5zM336.001 1074
l-20 -220l27 220h-7zM247.001 306c-38.667 -6.66699 -63.501 -12.833 -74.501 -18.5s-14.167 -10.167 -9.5 -13.5s11.334 -4.5 20.001 -3.5s18 4.33301 28 10s22 14.167 36 25.5zM913 318.001c-4.66699 12.667 -12.501 18.501 -23.501 17.501s-20.833 -4 -29.5 -9
s-21.167 -8.5 -37.5 -10.5s-30.166 -4.33301 -41.499 -7s-1 -2.83398 31 -0.500977s65.667 5.5 101 9.5zM249.999 234.002c7.33301 -36 0.333984 -57.668 -20.999 -65.001l21 -11c14.667 58 36.334 90.333 65.001 97c71.333 0 110.666 -14.667 117.999 -44
c15.333 -56 -2.33398 -95.333 -53.001 -118h-65l-54 55c-7.33301 -43.333 -58 -61.666 -152 -54.999l-10 107h-27v55c118.667 6.66699 178 -0.333008 178 -21zM153 191.001h42v20h-42v-20zM153 127.001l53 11l-11 20h-42v-31zM336 127.001l44 11l-13 73l-52 -11
c-8 -34.667 -1 -59 21 -73zM444 255.001c93.333 6.66699 143.334 -0.333008 150.001 -21c8.66699 -36 1.66699 -57.667 -21 -65c22.667 7.33301 34 -3 34 -31l41 117h75l43 -128v-34l-106 34l-23 -34l-53 24c-28.667 -22.667 -75.334 -30.667 -140.001 -24v162z
M499.001 191.001h42v20h-42v-20zM499.001 127.001l52 11l-10 20h-42v-31zM671.001 158.001h33l-11 53l-22 -20v-33zM200.001 69.001h151v-54l-75 -11h54v-30h-43l-22 -66l-41 12l-24 95v54zM533.001 25.001c14.667 -55.333 -3 -94.333 -53 -117c-71.333 0 -111 18 -119 54
c-14 35.333 4.33301 71 55 107c72 0 111 -14.667 117 -44zM437.001 -57.999l43 9.99902l-10 73l-54 -10c-7.33301 -35.333 -0.333008 -59.666 21 -72.999zM546.001 72c27.333 13.333 56 -1.66699 86 -45c0 30 7 45 21 45h172v-56h-42v-52h97
c-50 49.333 -56.667 85.333 -20 108h108v-45l-54 -20c44 -42.667 44 -74 0 -94h-173l-12 94l-42 9l-11 -103h-33l-56 51v-51h-41v159z" />
    <glyph glyph-name="registered" unicode="&#xc6;" horiz-adv-x="1420" 
d="M1382 968v-969h-1280l-61 61v333h223v-188h914v185h-581v204h581v170h-914v-201h-223v355l50 50h1291z" />
    <glyph glyph-name="yen" unicode="&#xc7;" horiz-adv-x="1557" 
d="M1064 968l467 -969h-1511v226h1170l-254 520h-916v223h1044z" />
    <glyph glyph-name="dieresis" unicode="&#xd0;" horiz-adv-x="1416" 
d="M1351 13l-25 -7l-37 -6h-1178l-40 4l-24 8l-10 20l-3 33v845l4 31l11 19l20 11l42 3h1178l43 -2l21 -8l9 -18l5 -36v-845l-4 -35zM1148 196v560h-892v-164h556v-200h-560v-196h896z" />
    <glyph glyph-name="lessequal" unicode="&#xd1;" horiz-adv-x="1251" 
d="M1206 968v-969h-198v746h-394l-366 -746h-221l355 729v17h-184v223h1008z" />
    <glyph glyph-name="trademark" unicode="&#xd8;" horiz-adv-x="1020" 
d="M911 966l61 -61v-844l-61 -61h-350v223h188v520h-188v223h350zM464 966v-223h-187v-520h187v-223h-349l-62 61v844l62 61h349z" />
    <glyph glyph-name="copyright" unicode="&#xe6;" horiz-adv-x="1420" 
d="M1382 968v-969h-1280l-61 61v333h223v-188h914v185h-581v204h581v170h-914v-201h-223v355l50 50h1291z" />
    <glyph glyph-name="mu" unicode="&#xe7;" horiz-adv-x="1557" 
d="M1064 968l467 -969h-1511v226h1170l-254 520h-916v223h1044z" />
    <glyph glyph-name="notequal" unicode="&#xf0;" horiz-adv-x="1416" 
d="M1351 13l-25 -7l-37 -6h-1178l-40 4l-24 8l-10 20l-3 33v845l4 31l11 19l20 11l42 3h1178l43 -2l21 -8l9 -18l5 -36v-845l-4 -35zM1148 196v560h-892v-164h556v-200h-560v-196h896z" />
    <glyph glyph-name="greaterequal" unicode="&#xf1;" horiz-adv-x="1251" 
d="M1206 968v-969h-198v746h-394l-366 -746h-221l355 729v17h-184v223h1008z" />
    <glyph glyph-name="acute" unicode="&#xf8;" horiz-adv-x="1020" 
d="M911 966l61 -61v-844l-61 -61h-350v223h188v520h-188v223h350zM464 966v-223h-187v-520h187v-223h-349l-62 61v844l62 61h349z" />
    <glyph glyph-name="partialdiff" unicode="&#x152;" horiz-adv-x="1648" 
d="M99 227l64 -227h1308l61 227h-1433zM94 260l-64 185l97 47l83 60l82 73l69 75l47 86l35 87l27 99h713l20 -77l35 -98l47 -92l69 -85l83 -72l79 -51l98 -52l-71 -185l-120 59l-120 78l-124 107l-79 85l-54 84l-36 82h-388l-48 -97l-50 -67l-84 -94l-110 -92l-120 -81z" />
    <glyph glyph-name="summation" unicode="&#x153;" horiz-adv-x="1648" 
d="M99 227l64 -227h1308l61 227h-1433zM94 260l-64 185l97 47l83 60l82 73l69 75l47 86l35 87l27 99h713l20 -77l35 -98l47 -92l69 -85l83 -72l79 -51l98 -52l-71 -185l-120 59l-120 78l-124 107l-79 85l-54 84l-36 82h-388l-48 -97l-50 -67l-84 -94l-110 -92l-120 -81z" />
    <glyph glyph-name="paragraph" unicode="&#x160;" horiz-adv-x="1743" 
d="M1701 968l-452 -969h-889v299h187v-73h570l246 522l14 23v3h-830v-65h-187v260h1341zM249 968v-260h-224v260h224zM25 298h224v-299h-224v299z" />
    <glyph glyph-name="germandbls" unicode="&#x161;" horiz-adv-x="1743" 
d="M1701 968l-452 -969h-889v299h187v-73h570l246 522l14 23v3h-830v-65h-187v260h1341zM249 968v-260h-224v260h224zM25 298h224v-299h-224v299z" />
    <glyph glyph-name="AE" unicode="&#x2018;" horiz-adv-x="600" 
d="M230 1085l-120 -89h180v-611l222 213v487h-282z" />
    <glyph glyph-name="Oslash" unicode="&#x2019;" horiz-adv-x="600" 
d="M392 1085l120 -89h-180v-611l-222 213v487h282z" />
    <glyph glyph-name="infinity" unicode="&#x201c;" horiz-adv-x="992" 
d="M872 976v-503h-353l-497 503h283l343 -352v352h224z" />
    <glyph glyph-name="plusminus" unicode="&#x201d;" horiz-adv-x="992" 
d="M80 976v-503h353l497 503h-283l-343 -352v352h-224z" />
    <glyph glyph-name=".null" horiz-adv-x="0" 
 />
    <glyph glyph-name="nonmarkingreturn" horiz-adv-x="505" 
 />
    <glyph glyph-name="Ccedilla" horiz-adv-x="992" 
d="M872 976v-503h-353l-497 503h283l343 -352v352h224z" />
    <glyph glyph-name="Eacute" horiz-adv-x="992" 
d="M80 976v-503h353l497 503h-283l-343 -352v352h-224z" />
    <glyph glyph-name="ntilde" horiz-adv-x="600" 
d="M392 1085l120 -89h-180v-611l-222 213v487h282z" />
    <glyph glyph-name="oacute" horiz-adv-x="600" 
d="M230 1085l-120 -89h180v-611l222 213v487h-282z" />
    <glyph glyph-name="dagger" horiz-adv-x="1000" 
d="M50 600h150l184 -210v210h124v-300h-200z" />
    <glyph glyph-name="degree" horiz-adv-x="1000" 
d="M100 600h138l174 -224v224h108v-300h-194z" />
    <glyph glyph-name="cent" horiz-adv-x="1345" 
d="M1261 972l36 -36v-351h-224v185h-821v-546h689l-297 -224h-532l-73 73v860l39 39h1183z" />
    <glyph glyph-name="sterling" horiz-adv-x="1259" 
d="M1204 972v-969h-198v746h-394l-366 -746h-221l355 729v17h-184v223h1008z" />
    <glyph glyph-name="section" horiz-adv-x="1028" 
d="M911 972l61 -61v-844l-61 -61h-350v223h188v520h-188v223h350zM464 972v-223h-187v-520h187v-223h-349l-62 61v844l62 61h349z" />
  </font>
</defs>
</svg>
