<?xml version="1.0" standalone="no"?>
<!DOCTYPE svg PUBLIC "-//W3C//DTD SVG 1.1//EN" "http://www.w3.org/Graphics/SVG/1.1/DTD/svg11.dtd" >
<svg>
<metadata>
Created by FontForge 20090914 at Sun Feb  5 16:10:02 2017
 By www-data
1998 by Boba Fonts - Davide Canavero - canavero@pianeta.net
</metadata>
<defs>
<font id="StarJediLogoMonoLine" horiz-adv-x="1515" >
  <font-face 
    font-family="Star Jedi Logo MonoLine"
    font-weight="400"
    font-stretch="normal"
    units-per-em="2048"
    panose-1="4 11 0 0 0 0 0 0 0 0"
    ascent="1638"
    descent="-410"
    x-height="1444"
    cap-height="1444"
    bbox="-6402 -989 6006 2560"
    underline-thickness="50"
    underline-position="-75"
    unicode-range="U+0020-U+2020"
  />
<missing-glyph horiz-adv-x="3072" 
d="M512 0v2560h2048v-2560h-2048zM2494 66v2428h-1916v-2428h1916z" />
    <glyph glyph-name=".notdef" horiz-adv-x="3072" 
d="M512 0v2560h2048v-2560h-2048zM2494 66v2428h-1916v-2428h1916z" />
    <glyph glyph-name="space" unicode=" " horiz-adv-x="950" 
 />
    <glyph glyph-name="exclam" unicode="!" horiz-adv-x="1041" 
d="M0 1144v300h1041v-300h-1041zM414 920c0 -40 -8.33594 -73.833 -25.0029 -101.5s-40.667 -48.667 -72 -63s-68.666 -21.5 -111.999 -21.5s-80.5 7.16699 -111.5 21.5s-54.333 35.333 -70 63s-23.5 61.5 -23.5 101.5c0 30 4.33301 56.5 13 79.5s21.834 42.333 39.501 58
s39.334 27.5 65.001 35.5s54.834 12 87.501 12c43.333 0 80.666 -7.16699 111.999 -21.5s55.333 -35.333 72 -63s25 -61.167 25 -100.5zM128.997 914c0 -28 4.99902 -52.166 14.999 -72.499s30.333 -30.5 61 -30.5c24 0 41.833 5.5 53.5 16.5s18.834 23.167 21.501 36.5
s4.66699 30 6 50c-1.33301 27.333 -6.83301 51.166 -16.5 71.499s-31.167 30.5 -64.5 30.5c-50.667 0 -76 -34 -76 -102zM434.996 740.001v361h310v-106h-194v-43h126v-61h-126v-151h-116zM569.996 578.001v124h118v-361h-118v130h-96v-130h-116v361h116v-124h96z
M344.996 702.001v-106h-116v-255h-118v255h-113v106h347zM-0.00390625 0.000976562v300h1041v-300h-1041zM701.996 341.001v361h307v-105h-192v-41h124v-64h-124v-41h224v-110h-339z" />
    <glyph glyph-name="quotedbl" unicode="&#x22;" horiz-adv-x="1139" 
d="M635 813v631h307v-631h-307zM197 813v631h307v-631h-307z" />
    <glyph glyph-name="numbersign" unicode="#" horiz-adv-x="1121" 
d="M0 1144v300h1121v-300h-1121zM778 922c0 -40 -8.33594 -73.833 -25.0029 -101.5s-40.667 -48.667 -72 -63s-68.666 -21.5 -111.999 -21.5s-80.5 7.16699 -111.5 21.5s-54.333 35.333 -70 63s-23.5 61.5 -23.5 101.5c0 30 4.33301 56.5 13 79.5s21.834 42.333 39.501 58
s39.334 27.5 65.001 35.5s54.834 12 87.501 12c43.333 0 80.666 -7.16699 111.999 -21.5s55.333 -35.333 72 -63s25 -61.167 25 -100.5zM491.997 921c0 -28 4.99902 -52.166 14.999 -72.499s30.333 -30.5 61 -30.5c24 0 41.833 5.5 53.5 16.5s18.834 23.167 21.501 36.5
s4.66699 30 6 50c-1.33301 27.333 -6.83301 51.166 -16.5 71.499s-31.167 30.5 -64.5 30.5c-50.667 0 -76 -34 -76 -102zM569.996 578.001v124h118v-361h-118v130h-96v-130h-116v361h116v-124h96zM344.996 1102v-106h-116v-255h-118v255h-113v106h347z
M-0.00390625 0.000976562v300h1121v-300h-1121zM701.996 341.001v361h307v-105h-192v-41h124v-64h-124v-41h224v-110h-339zM344.996 702.001v-106h-116v-255h-118v255h-113v106h347z" />
    <glyph glyph-name="dollar" unicode="$" horiz-adv-x="1121" 
d="M0 1144v300h1121v-300h-1121zM722 922c0 -40 -8.33594 -73.833 -25.0029 -101.5s-40.667 -48.667 -72 -63s-68.666 -21.5 -111.999 -21.5s-80.5 7.16699 -111.5 21.5s-54.333 35.333 -70 63s-23.5 61.5 -23.5 101.5c0 30 4.33301 56.5 13 79.5s21.834 42.333 39.501 58
s39.334 27.5 65.001 35.5s54.834 12 87.501 12c43.333 0 80.666 -7.16699 111.999 -21.5s55.333 -35.333 72 -63s25 -61.167 25 -100.5zM433.997 921c0 -28 4.99902 -52.166 14.999 -72.499s30.333 -30.5 61 -30.5c24 0 41.833 5.5 53.5 16.5s18.834 23.167 21.501 36.5
s4.66699 30 6 50c-1.33301 27.333 -6.83301 51.166 -16.5 71.499s-31.167 30.5 -64.5 30.5c-50.667 0 -76 -34 -76 -102zM-0.00390625 741.001v361h310v-106h-194v-43h126v-61h-126v-151h-116zM569.996 578.001v124h118v-361h-118v130h-96v-130h-116v361h116v-124h96z
M344.996 702.001v-106h-116v-255h-118v255h-113v106h347zM-0.00390625 0.000976562v300h1121v-300h-1121zM701.996 341.001v361h307v-105h-192v-41h124v-64h-124v-41h224v-110h-339zM732.996 742.001l-0.000976562 360.999h235c29.333 -1.33301 53.333 -8.33301 72 -21
s32.334 -30 41.001 -52c6.66699 -32 7 -56.667 1 -74s-16.5 -31.666 -31.5 -42.999s-36.5 -20.333 -64.5 -27l27 -35h108v-109h-143l-115 121v-121h-130zM862.995 1021v-67h91c5.33301 0 10.833 1.66699 16.5 5s8.5 12.333 8.5 27c-0.666992 14 -4 23.333 -10 28
s-11 7 -15 7h-91z" />
    <glyph glyph-name="percent" unicode="%" horiz-adv-x="1121" 
d="M0 1144v300h1121v-300h-1121zM570 578v124h118v-361h-118v130h-96v-130h-116v361h116v-124h96zM0 0v300h1121v-300h-1121zM702 341v361h307v-105h-192v-41h124v-64h-124v-41h224v-110h-339zM345 702v-106h-116v-255h-118v255h-113v106h347zM28 1103h172v-361h-172v361z
M268 742v361h129l121 -135v135h133v-361h-133l-121 136v-136h-129z" />
    <glyph glyph-name="ampersand" unicode="&#x26;" horiz-adv-x="1041" 
d="M0 1144v300h1041v-300h-1041zM572 978v124h118v-361h-118v130h-96v-130h-116v361h116v-124h96zM345 1102v-106h-116v-255h-118v255h-113v106h347zM702 741v361h307v-105h-192v-41h124v-64h-124v-41h224v-110h-339z" />
    <glyph glyph-name="quotesingle" unicode="'" horiz-adv-x="647" 
d="M170 813v631h307v-631h-307z" />
    <glyph glyph-name="parenleft" unicode="(" horiz-adv-x="758" 
d="M725 -105l-374.996 0.00390625c-56.667 94.667 -105.834 193.167 -147.501 295.5s-73.834 206.166 -96.501 311.499s-34 211.666 -34 318.999c0 302.667 92.667 612 278 928h375c-38.667 -71.333 -72.334 -144 -101.001 -218s-52.834 -150.833 -72.501 -230.5
s-34.167 -159.5 -43.5 -239.5s-14 -160 -14 -240c0 -79.333 4.83301 -159.333 14.5 -240s24 -160.334 43 -239.001s42.833 -154.834 71.5 -228.501s62.667 -146.5 102 -218.5z" />
    <glyph glyph-name="parenright" unicode=")" horiz-adv-x="758" 
d="M410 -105l-374.999 -0.00195312c154 282.667 231 591.334 231 926.001c0 80 -5 162 -15 246s-24.333 163.667 -43 239s-43.334 152.333 -74.001 231s-63.667 149.334 -99 212.001h375c57.333 -96.667 106.5 -195.334 147.5 -296.001s73 -204.167 96 -310.5
s34.5 -213.5 34.5 -321.5s-11.5 -215.167 -34.5 -321.5s-55.167 -209.666 -96.5 -309.999s-90.333 -198.5 -147 -294.5z" />
    <glyph glyph-name="asterisk" unicode="*" horiz-adv-x="1041" 
d="M570 578v124h118v-361h-118v130h-96v-130h-116v361h116v-124h96zM345 702v-106h-116v-255h-118v255h-113v106h347zM0 0v300h1041v-300h-1041zM702 341v361h307v-105h-192v-41h124v-64h-124v-41h224v-110h-339z" />
    <glyph glyph-name="plus" unicode="+" horiz-adv-x="1456" 
d="M-100 1014v430h1656v-430h-1656z" />
    <glyph glyph-name="comma" unicode="," horiz-adv-x="758" 
d="M188 397h435l-236 -630h-326z" />
    <glyph glyph-name="hyphen" unicode="-" horiz-adv-x="758" 
d="M92 377v360h574v-360h-574z" />
    <glyph glyph-name="period" unicode="." horiz-adv-x="758" 
d="M156 0v397h446v-397h-446z" />
    <glyph glyph-name="slash" unicode="/" horiz-adv-x="3417" 
d="M3364 671v-200.998h-182c-88.667 6 -102 -16 -40 -66c112.667 -88.667 168 -174.334 166 -257.001s-57.333 -132.334 -166 -149.001h-702l-239 223v-223h-273v673h493c60 -4.66699 109.5 -19 148.5 -43s67.167 -55.667 84.5 -95c14 -59.333 14.667 -105.5 2 -138.5
s-34.667 -60.333 -66 -82s-76 -38.167 -134 -49.5l57 -66h387c99.333 -4 112 20.667 38 74c-122 100.667 -173.833 192.5 -155.5 275.5s75.5 124.5 171.5 124.5h410zM1584 1430l0.00195312 -197h-239v-473h-246v473h-296c-90 5.33301 -103.667 -17 -41 -67
c113.333 -88.667 168.833 -174.5 166.5 -257.5s-57.833 -132.5 -166.5 -148.5h-718v200h476c98.667 -4 111 20.333 37 73c-120.667 99.333 -171.834 190.333 -153.501 273s75.166 124 170.499 124h1010zM1042 -1.99805l249 673h375l251 -673h-285l-48 122h-223l-48 -122
h-271zM1482 516.002l-110 -268h209zM2201 507.002v-121.999h191c9.33301 0 20 3.16699 32 9.5s18.333 23.166 19 50.499c-2 25.333 -9 42 -21 50s-22.333 12 -31 12h-190zM310.002 671.003l133 -290l70 290h247l-191 -673h-245l-281 673h267zM760.002 671.003l105 -290
l109 290h266l-249 -673h-245l-95 285l79 284zM1475 760.003l249 670h375l252 -670h-286l-47 121h-224l-48 -121h-271zM1910 1275l-109 -267h208zM2396 760.003v670h491c61.333 -5.33301 111.333 -19.333 150 -42s67 -53.667 85 -93c14.667 -60.667 15.667 -107 3 -139
s-34.667 -59 -66 -81s-76 -39 -134 -51l56 -64h383v-200h-455l-239 221v-221h-274zM2665 1268v-123h191c9.33301 0 19.833 3.16699 31.5 9.5s18.167 22.833 19.5 49.5c-1.33301 26.667 -8.16602 44 -20.5 52c-12.333 8 -22.833 12 -31.5 12h-190z" />
    <glyph glyph-name="zero" unicode="0" horiz-adv-x="0" 
d="M-1630 1760h-3600l3600 200h326c98.667 -4 111 20.333 37 73c-120.667 99.333 -171.834 190.333 -153.501 273s75.166 124 170.499 124h1008v-197h-239v-473h-246v473h-294c-90 5.33301 -103.667 -17 -41 -67c113.333 -88.667 168.833 -174.5 166.5 -257.5
s-57.833 -132.5 -166.5 -148.5h-568zM-334.998 1760l249 670h375l252 -670h-286l-47 121h-224l-48 -121h-271zM104.002 2253l-109 -267h208zM632.002 1760v670h491c61.333 -5.33301 111.333 -19.333 150 -42s67 -53.667 85 -93c14.667 -60.667 15.667 -107 3 -139
s-34.667 -59 -66 -81s-76 -39 -134 -51l56 -64h413l3600 -200h-3600h-485l-239 221v-221h-274zM905.002 2268l-0.000976562 -123h191c9.33301 0 19.833 3.16699 31.5 9.5s18.167 22.833 19.5 49.5c-1.33301 26.667 -8.16602 44 -20.499 52s-22.833 12 -31.5 12h-190z
M-1467 -316l133 -290l70 290h247l105 -290l109 290h266l-249 -673h-245l-90 282l-87 -282h-245l-234 473h-43l-3500 200h3500h263zM-727.999 -989l249 673h375l251 -673h-285l-48 122h-223l-48 -122h-271zM-292.999 -487l-110 -268h209zM439.001 -481v-121.999h191
c9.33301 0 20 3.16699 32 9.5s18.333 23.166 19 50.499c-2 25.333 -9 42 -21 50s-22.333 12 -31 12h-190zM1610 -315.999l120 0.00195312h3500l-3500 -200h-306c-88 5.33301 -101 -17 -39 -67c112.667 -88.667 168 -174.334 166 -257.001s-57.333 -132.334 -166 -149.001
h-702l-239 223v-223h-273v673h493c60 -4.66699 109.5 -19 148.5 -43s67.167 -55.667 84.5 -95c14 -59.333 14.667 -105.5 2 -138.5s-34.667 -60.333 -66 -82s-76 -38.167 -134 -49.5l57 -66h387c99.333 -4 112 20.667 38 74c-122 100.667 -173.833 192.5 -155.5 275.5
s75.5 124.5 171.5 124.5h413z" />
    <glyph glyph-name="one" unicode="1" horiz-adv-x="0" 
d="M-800 1760l0.00195312 -2076h6806v-200h-7006v2476h2368c98.667 -4 111 20.333 37 73c-120.667 99.333 -171.834 190.333 -153.501 273s75.166 124 170.499 124h1008v-197h-239v-473h-246v473h-294c-90 5.33301 -103.667 -17 -41 -67
c113.333 -88.667 168.833 -174.5 166.5 -257.5s-57.833 -132.5 -166.5 -148.5h-2410zM2337 1760l249 670h375l252 -670h-286l-47 121h-224l-48 -121h-271zM2776 2253l-109 -267h208zM3577 2268v-123h191c9.33301 0 19.833 3.16699 31.5 9.5s18.167 22.833 19.5 49.5
c-1.33301 26.667 -8.16602 44 -20.5 52c-12.333 8 -22.833 12 -31.5 12h-190zM3304 1760v670h491c61.333 -5.33301 111.333 -19.333 150 -42s67 -53.667 85 -93c14.667 -60.667 15.667 -107 3 -139s-34.667 -59 -66 -81s-76 -39 -134 -51l56 -64h2117v-200h-2189l-239 221
v-221h-274z" />
    <glyph glyph-name="two" unicode="2" horiz-adv-x="0" 
d="M-200 1760l0.00195312 200h1568c98.667 -4 111 20.333 37 73c-120.667 99.333 -171.834 190.333 -153.501 273s75.166 124 170.499 124h1008v-197h-239v-473h-246v473h-294c-90 5.33301 -103.667 -17 -41 -67c113.333 -88.667 168.833 -174.5 166.5 -257.5
s-57.833 -132.5 -166.5 -148.5h-1810zM2337 1760l249 670h375l252 -670h-286l-47 121h-224l-48 -121h-271zM2776 2253l-109 -267h208zM3577 2268v-123h191c9.33301 0 19.833 3.16699 31.5 9.5s18.167 22.833 19.5 49.5c-1.33301 26.667 -8.16602 44 -20.5 52
c-12.333 8 -22.833 12 -31.5 12h-190zM3304 1760v670h491c61.333 -5.33301 111.333 -19.333 150 -42s67 -53.667 85 -93c14.667 -60.667 15.667 -107 3 -139s-34.667 -59 -66 -81s-76 -39 -134 -51l56 -64h2117v-200h-2189l-239 221v-221h-274z" />
    <glyph glyph-name="three" unicode="3" horiz-adv-x="0" 
d="M-200 1760v200h3200v-200h-3200z" />
    <glyph glyph-name="four" unicode="4" horiz-adv-x="0" 
d="M-4424 1760v200h1568c98.667 -4 111 20.333 37 73c-120.667 99.333 -171.834 190.333 -153.5 273c18.333 82.667 75.166 124 170.5 124h1008v-197h-239v-473h-246v473h-294c-90 5.33301 -103.667 -17 -41 -67c113.333 -88.667 168.833 -174.5 166.5 -257.5
s-57.833 -132.5 -166.5 -148.5h-1810zM1147 1760l249 670h375l252 -670h-286l-47 121h-224l-48 -121h-271zM1580 2253l-109 -267h208zM2351 2268v-123h191c9.33301 0 19.833 3.16699 31.5 9.5s18.167 22.833 19.5 49.5c-1.33301 26.667 -8.16602 44 -20.5 52
c-12.333 8 -22.833 12 -31.5 12h-190zM405 2431l133 -289l70 289h247l105 -289l109 289h266l-249 -671h-245l-90 283l-87 -283h-245l-303 671h289zM-1887 1760l249 670h375l252 -670h-286l-47 121h-224l-48 -121h-271zM-1448 2253l-109 -267h208zM-920 1760v670h491
c61.333 -5.33301 111.333 -19.333 150 -42s67 -53.667 85 -93c14.667 -60.667 15.667 -107 3 -139s-34.667 -59 -66 -81s-76 -39 -134 -51l56 -64h607l92 -200h-771l-239 221v-221h-274zM-647 2268l-0.000976562 -123h191c9.33301 0 19.833 3.16699 31.5 9.5
s18.167 22.833 19.5 49.5c-1.33301 26.667 -8.16602 44 -20.499 52s-22.833 12 -31.5 12h-190zM3514 2433l-1 -200.998h-181c-88.667 6 -102 -16 -40 -66c112.667 -88.667 168 -174.334 166 -257.001s-57.333 -132.334 -166 -149.001h-702l-239 223v-223h-273v673h493
c60 -4.66699 109.5 -19 148.5 -43s67.167 -55.667 84.5 -95c14 -59.333 14.667 -105.5 2 -138.5s-34.667 -60.333 -66 -82s-76 -38.167 -134 -49.5l57 -66h387c99.333 -4 112 20.667 38 74c-122 100.667 -173.833 192.5 -155.5 275.5s75.5 124.5 171.5 124.5h410zM3398 1760
c76.667 6 112 72.667 106 200h1796v-200h-1902z" />
    <glyph glyph-name="five" unicode="5" horiz-adv-x="0" 
d="M-3000 1760v200h3200v-200h-3200z" />
    <glyph glyph-name="six" unicode="6" horiz-adv-x="0" 
d="M-200 -516v200h3200v-200h-3200z" />
    <glyph glyph-name="seven" unicode="7" horiz-adv-x="0" 
d="M-3000 -516v200h3200v-200h-3200z" />
    <glyph glyph-name="eight" unicode="8" horiz-adv-x="0" 
d="M-1166 -316l1366 0.00195312v-200l-1551 -1c-88.667 6 -102 -16 -40 -66c112.667 -88.667 168 -174.334 166 -257.001s-57.333 -132.334 -166 -149.001h-702l-239 223v-223h-273v673h493c60 -4.66699 109.5 -19 148.5 -43s67.167 -55.667 84.5 -95
c14 -59.333 14.667 -105.5 2 -138.5s-34.667 -60.333 -66 -82s-76 -38.167 -134 -49.5l57 -66h387c99.333 -4 112 20.667 38 74c-122 100.667 -173.833 192.5 -155.5 275.5s75.5 124.5 171.5 124.5h413zM-2337 -480.998v-121.999h191c9.33301 0 20 3.16699 32 9.5
s18.333 23.166 19 50.499c-2 25.333 -9 42 -21 50s-22.333 12 -31 12h-190zM-3504 -988.997l249 673h375l251 -673h-285l-48 122h-223l-48 -122h-271zM-3069 -486.997l-110 -268h209zM-4243 -315.997l133 -290l70 290h247l105 -290l109 290h266l-249 -673h-245l-90 282
l-87 -282h-245l-234 473h-1939v200h2159z" />
    <glyph glyph-name="nine" unicode="9" horiz-adv-x="0" 
d="M-1166 -316l1966 0.00195312v2076h-6806v200h7006v-2476l-2351 -1c-88.667 6 -102 -16 -40 -66c112.667 -88.667 168 -174.334 166 -257.001s-57.333 -132.334 -166 -149.001h-702l-239 223v-223h-273v673h493c60 -4.66699 109.5 -19 148.5 -43s67.167 -55.667 84.5 -95
c14 -59.333 14.667 -105.5 2 -138.5s-34.667 -60.333 -66 -82s-76 -38.167 -134 -49.5l57 -66h387c99.333 -4 112 20.667 38 74c-122 100.667 -173.833 192.5 -155.5 275.5s75.5 124.5 171.5 124.5h413zM-2337 -480.998v-121.999h191c9.33301 0 20 3.16699 32 9.5
s18.333 23.166 19 50.499c-2 25.333 -9 42 -21 50s-22.333 12 -31 12h-190zM-3504 -988.997l249 673h375l251 -673h-285l-48 122h-223l-48 -122h-271zM-3069 -486.997l-110 -268h209zM-4243 -315.997l133 -290l70 290h247l105 -290l109 290h266l-249 -673h-245l-90 282
l-87 -282h-245l-234 473h-1543v200h1763z" />
    <glyph glyph-name="colon" unicode=":" horiz-adv-x="758" 
d="M156 0v397h446v-397h-446zM156 680v397h446v-397h-446z" />
    <glyph glyph-name="semicolon" unicode=";" horiz-adv-x="1360" 
d="M60 0v1014h-60v430h1298v-430h-768v-166h496v-252h-496v-166h1230v-430h-1700z" />
    <glyph glyph-name="less" unicode="&#x3c;" horiz-adv-x="0" 
d="M-1656 -512v430h1656v-430h-1656z" />
    <glyph glyph-name="equal" unicode="=" horiz-adv-x="1456" 
d="M-100 0v430h1656v-430h-1656z" />
    <glyph glyph-name="greater" unicode="&#x3e;" horiz-adv-x="0" 
d="M0 -512v430h1656v-430h-1656z" />
    <glyph glyph-name="question" unicode="?" horiz-adv-x="1176" 
d="M711 535l-409.998 -0.00195312c5.33301 95.333 21 168.166 47 218.499s55.833 88 89.5 113l94 71.5c29 22.667 43.5 51.334 43.5 86.001s-17.333 57.334 -52 68.001s-84.667 16 -150 16c-46 0 -96.167 -6.83301 -150.5 -20.5s-100.5 -29.5 -138.5 -47.5v353
c78.667 24.667 152.5 43.334 221.5 56.001s143.833 19 224.5 19c81.333 0 164.666 -9.5 249.999 -28.5s158.666 -54.5 219.999 -106.5s92 -123 92 -213c0 -69.333 -16.167 -126.833 -48.5 -172.5s-81.333 -95.167 -147 -148.5s-113 -97.333 -142 -132
s-43.5 -78.667 -43.5 -132zM283.002 384.998h446v-385h-446v385z" />
    <glyph glyph-name="at" unicode="@" horiz-adv-x="5507" 
d="M5371 882h-781c-184 0 -293.334 -89.333 -328 -268s64 -374.667 296 -588c141.334 -114.667 117.334 -167.334 -72 -158.001h-307v-430h771c208 34.667 314 141.334 318 320.001s-102 362.667 -318 552c-120 106.667 -94.666 154 76 142h344zM2206 2516v-430h-458v-1014
h-470v1014h-328v430h1256zM932 -560l478 1442h716l481 -1442h-546l-91 260h-429l-91 -260h-518zM1771 548l-207 -572h398zM2628 -562v1444h940c116 -10.667 211.333 -41.334 286 -92.001s129.334 -118.667 164 -204c26.667 -128 28 -226.667 4 -296s-66 -127.333 -126 -174
s-146 -83.334 -258 -110.001l108 -138h432v-430h-570l-458 477v-477h-522zM3150 532.002v-266h364c19.333 0 40.333 7.16699 63 21.5s34.667 50.5 36 108.5c-3.33301 55.333 -16.833 91.833 -40.5 109.5s-43.5 26.5 -59.5 26.5h-363zM-469 882.002l256 -624l134 624h470
l-362 -1444h-470l-540 1444h512zM392 882.002l201 -624l207 624h510l-475 -1444h-470l-181 614l152 607zM1968 1072l475 1444h717l483 -1444h-546l-91 260h-429l-91 -260h-518zM2807 2180l-207 -572h398zM3684 1072v1444h940c116 -10.667 211.334 -41.334 286 -92.001
s129.333 -118.667 164 -204c26.666 -128 28 -226.667 4 -296s-66 -127.333 -126 -174s-146 -83.334 -258 -110.001l108 -138h432v-430h-570l-458 477v-477h-522zM4190 2164v-266h364c19.334 0 40.334 7.16699 63 21.5s34.666 50.5 36 108.5
c-3.33398 55.333 -16.834 91.833 -40.5 109.5s-43.5 26.5 -59.5 26.5h-363zM949 2516h-674c-184 0 -293.333 -89.333 -328 -268s64 -374.667 296 -588c141.333 -114.667 117.333 -167.334 -72 -158.001h-912v-430h1376c208 34.667 314 141.334 318 320.001
s-102 362.667 -318 552c-120 106.667 -94.667 154 76 142h238v430z" />
    <glyph glyph-name="A" unicode="A" 
d="M755 1124l-207 -572h398zM-100 1014v430h1212l483 -1444h-546l-91 260h-429l-91 -260h-518l333 1014h-353z" />
    <glyph glyph-name="B" unicode="B" horiz-adv-x="1628" 
d="M60 0l0.000976562 1014h-300v430h1285c158 -1.33301 278.167 -28.666 360.5 -81.999s132.166 -142.666 149.499 -267.999c6 -96 -14.333 -171.333 -61 -226s-123.667 -99.667 -231 -135v-4c52.667 -6.66699 101.334 -20.834 146.001 -42.501
s82.167 -47.334 112.5 -77.001s53.833 -63.167 70.5 -100.5s25 -74 25 -110c0 -114 -29.167 -200.333 -87.5 -259s-133.333 -97 -225 -115s-202.834 -26.333 -333.501 -25h-911zM558.001 559l0.00195312 -267h321c55.333 -2 103.666 10 144.999 36s62 58 62 96
c4 42 -12.833 75 -50.5 99s-89.834 36 -156.501 36h-321zM558.003 1094l0.00195312 -219h350c19.333 0 39.666 10.167 60.999 30.5s32.666 47.5 33.999 81.5c-2.66699 39.333 -15.5 67 -38.5 83s-42.167 24 -57.5 24h-349z" />
    <glyph glyph-name="C" unicode="C" horiz-adv-x="1440" 
d="M478 738c5.33301 -80 22.666 -140 51.999 -180s64.333 -71.667 105 -95s102.334 -40.333 185.001 -51c85.333 5.33301 146.666 16.666 183.999 33.999s80 46 128 86l284 -316c-82.667 -77.333 -164.667 -130.666 -246 -159.999s-199.333 -48 -354 -56
c-149.333 8 -262.333 29.833 -339 65.5s-152.5 83 -227.5 142s-133.667 133 -176 222s-63.5 192.167 -63.5 309.5c0 116 21.167 218.5 63.5 307.5s101 163 176 222s150.833 106.333 227.5 142s189.667 57.5 339 65.5c154.667 -8 272.667 -26.667 354 -56
s163.333 -82.666 246 -159.999l-284 -316c-48 40 -90.667 68.667 -128 86s-98.666 28.666 -183.999 33.999c-82.667 -10.667 -144.334 -27.667 -185.001 -51s-75.667 -55 -105 -95s-46.666 -100 -51.999 -180z" />
    <glyph glyph-name="D" unicode="D" horiz-adv-x="1662" 
d="M60 0l0.00195312 1014h-300v430h1152c115.333 0 217 -15.333 305 -46s162.333 -72 223 -124s111.167 -122.333 151.5 -211s60.5 -204 60.5 -346c-7.33301 -131.333 -29.333 -243 -66 -335s-85.334 -164.667 -146.001 -218s-134.834 -94.666 -222.501 -123.999
s-197.5 -42.666 -329.5 -39.999h-828zM542.002 1086l-0.000976562 -725.998h275c62 0 112 13.167 150 39.5s69 60 93 101s39.333 114.833 46 221.5c-2 97.333 -15.5 169.166 -40.5 215.499s-57.167 82.666 -96.5 108.999s-90.666 39.5 -153.999 39.5h-273z" />
    <glyph glyph-name="E" unicode="E" horiz-adv-x="1360" 
d="M60 0v1014h-300v430h1538v-430h-768v-166h496v-252h-496v-166h890v-430h-1360z" />
    <glyph glyph-name="F" unicode="F" horiz-adv-x="1328" 
d="M60 0v1014h-300v430h1538v-430h-768v-166h496v-252h-496v-596h-470z" />
    <glyph glyph-name="G" unicode="G" horiz-adv-x="1440" 
d="M1001 430v291.999h439v-722h-621c-152 0 -289.5 27.833 -412.5 83.5s-219.833 139.167 -290.5 250.5s-106 247.666 -106 408.999c0 113.333 21.167 214.5 63.5 303.5s101 163 176 222s150.833 106.333 227.5 142s189.667 57.5 339 65.5
c154.667 -8 272.667 -26.667 354 -56s163.333 -82.666 246 -159.999l-284 -316c-48 40 -90.667 68.667 -128 86s-98.666 28.666 -183.999 33.999c-82.667 -10.667 -143.334 -28.667 -182.001 -54s-72.667 -58 -102 -98s-48 -101.333 -56 -184
c8 -82.667 26.667 -140.667 56 -174s66 -60.666 110 -81.999s91.333 -34.666 142 -39.999s121.667 -6 213 -2z" />
    <glyph glyph-name="H" unicode="H" horiz-adv-x="1398" 
d="M888 946v498h470v-1444h-470v520h-378v-520h-470v1014h-300v430h770v-498h378z" />
    <glyph glyph-name="I" unicode="I" horiz-adv-x="1398" 
d="M888 946v498h870v-430h-400v-1014h-470v520h-378v-520h-470v1444h470v-498h378z" />
    <glyph glyph-name="J" unicode="J" horiz-adv-x="877" 
d="M1046 1444l-0.000976562 -429.999h-250v-1022c-4 -110.667 -16 -188.667 -36 -234s-55.667 -88 -107 -128s-115.666 -70.333 -192.999 -91s-147.333 -34.334 -210 -41.001s-146 -10 -250 -10v430c58.667 -1.33301 105.667 0.666992 141 6s65.333 14 90 26
s44.667 29 60 51s27 63 35 123v1320h720z" />
    <glyph glyph-name="K" unicode="K" horiz-adv-x="1404" 
d="M530 1444v-470l330 470h470l-538 -722l240 -292h772v-430h-910l-364 430v-430h-470v1444h470z" />
    <glyph glyph-name="L" unicode="L" horiz-adv-x="1312" 
d="M60 0v1014h-300v430h770v-1014h782v-430h-1252z" />
    <glyph glyph-name="M" unicode="M" horiz-adv-x="1650" 
d="M40 0v1014h-300v430h770l316 -600l314 600h470v-1444h-470v600l-302 -600h-26l-302 600v-600h-470z" />
    <glyph glyph-name="N" unicode="N" horiz-adv-x="1430" 
d="M60 0v1444h470l430 -540v540h870v-430h-400v-1014h-470l-430 540v-540h-470z" />
    <glyph glyph-name="O" unicode="O" horiz-adv-x="1430" 
d="M60 0v1014h-300v430h770l430 -540v540h470v-1444h-470l-430 540v-540h-470z" />
    <glyph glyph-name="P" unicode="P" horiz-adv-x="1501" 
d="M60 0v1014h-300v430h1240c116 -10.667 212 -40.667 288 -90s130 -118 162 -206c29.333 -106.667 41.333 -186.667 36 -240s-16 -103.333 -32 -150s-60 -100.667 -132 -162s-168 -101 -288 -119h-452v-477h-522zM582 1084v-266h364c19.333 0 40.333 7.16699 63 21.5
s34.667 50.5 36 108.5c-3.33301 55.333 -16.833 91.833 -40.5 109.5s-43.5 26.5 -59.5 26.5h-363z" />
    <glyph glyph-name="Q" unicode="Q" horiz-adv-x="1650" 
d="M1610 0v1014h400v430h-870l-316 -600l-314 600h-470v-1444h470v600l302 -600h26l302 600v-600h470z" />
    <glyph glyph-name="R" unicode="R" horiz-adv-x="1550" 
d="M60 0l-0.000976562 1444h940c116 -10.667 211.333 -41.334 286 -92.001s129.334 -118.667 164.001 -204c26.667 -128 28 -226.667 4 -296s-66 -127.333 -126 -174s-146 -83.334 -258 -110.001l108 -138h772v-430h-910l-458 477v-477h-522zM581.999 1084v-266h364
c19.333 0 40.333 7.16699 63 21.5s34.667 50.5 36 108.5c-3.33301 55.333 -16.833 91.833 -40.5 109.5s-43.5 26.5 -59.5 26.5h-363z" />
    <glyph glyph-name="S" unicode="S" horiz-adv-x="1135" 
d="M1298 1444h-889.999c-184 0 -293.333 -89.333 -328 -268s64 -374.667 296 -588c140.667 -110.667 116.667 -163.334 -72 -158.001h-796v-430h1260c208 34.667 314 141.334 318 320.001s-102 362.667 -318 552c-120.667 100 -95.334 147.333 75.999 142h454v430z" />
    <glyph glyph-name="T" unicode="T" horiz-adv-x="1070" 
d="M1228 1444v-430h-458v-1014h-470v1014h-458v430h1386z" />
    <glyph glyph-name="U" unicode="U" horiz-adv-x="1404" 
d="M60 0v372v1072h470v-470l330 470h470l-538 -722l460 -718c41.333 -61.333 92 -90 152 -86v-430c-166.667 -1.33301 -284 58.667 -352 180l-522 762v-430h-470z" />
    <glyph glyph-name="V" unicode="V" horiz-adv-x="1550" 
d="M60 372l0.000976562 1072h940c116 -10.667 209 -39.334 279 -86.001s117.667 -91.667 143 -135s43.333 -96.333 54 -159s3.66699 -131 -21 -205s-67 -134.333 -127 -181s-146 -83.334 -258 -110.001l372 -608c24 -34.667 60 -48.667 108 -42v-430
c-190.667 -5.33301 -315.334 32 -374.001 112l-594 877v-477h-522v372zM582.001 1084v-266h364c19.333 0 40.333 7.16699 63 21.5s34.667 50.5 36 108.5c-3.33301 55.333 -16.833 91.833 -40.5 109.5s-43.5 26.5 -59.5 26.5h-363z" />
    <glyph glyph-name="W" unicode="W" horiz-adv-x="1800" 
d="M1006 612l-152 -612h-470l-332 1014h-300v430h662l198 -624l172 624h432l201 -624l134 624h465l-357 -1444h-470z" />
    <glyph glyph-name="X" unicode="X" horiz-adv-x="1550" 
d="M564 1014l-564.001 0.00195312v430h1000c116 -10.667 211.333 -41.334 286 -92.001s129.334 -118.667 164.001 -204c26.667 -128 28 -226.667 4 -296s-66 -127.333 -126 -174s-146 -83.334 -258 -110.001l108 -138h432v-430h-570l-458 477v-477h-522v864h886
c19.333 0 40.333 4.33301 63 13s34.667 28.667 36 60c-3.33301 31.333 -16.833 51.833 -40.5 61.5s-43.5 14.5 -59.5 14.5z" />
    <glyph glyph-name="Y" unicode="Y" horiz-adv-x="1472" 
d="M-136 1444v-430h300l336 -484v-530h472v530l630 914h-570l-294 -446l-298 446h-576z" />
    <glyph glyph-name="Z" unicode="Z" 
d="M739 1124l207 -572h-398zM1594 1014v430h-1212l-483 -1444h546l91 260h429l91 -260h518l-333 1014h353z" />
    <glyph glyph-name="bracketleft" unicode="[" horiz-adv-x="1404" 
d="M530 1444v-470l330 470h470l-538 -722l240 -292h772v-430h-910l-364 430v-430h-470v1014h-300v430h770z" />
    <glyph glyph-name="backslash" unicode="\" horiz-adv-x="56" 
d="M-296 0v430h650v-430h-650z" />
    <glyph glyph-name="bracketright" unicode="]" horiz-adv-x="1800" 
d="M922 612l-152 -612h-470l-440 1444h470l198 -624l172 624h432l201 -624l134 624h763v-430h-400l-255 -1014h-470z" />
    <glyph glyph-name="asciicircum" unicode="^" horiz-adv-x="2048" 
d="M499 2515l379.001 39.002l20 -64l-167 -119l-106 -10l-70 -738c53.333 138.667 117.166 233.667 191.499 285s161.166 83.666 260.499 96.999s200.333 14.166 303 2.49902s180.834 -34.834 234.501 -69.501s99 -90 136 -166s60.833 -153.667 71.5 -233l20 -40l5 -183
l81 -649l-283 -148l5 -25l30 -25c210.667 52.667 322 49.334 334 -9.99902l122 -19c46 -53.333 45.667 -91.333 -1 -114l-1445 -40l-485 -59c-50 36 10.667 93.667 182 173l313 25l-45 49l-20 50l40 59l5 25l-141 64l60 644v164c-26.667 6.66699 -46.667 29.667 -60 69
l86 807l-66 30l-25 84zM1302 1482v-173l10 -20l-5 -827l81 -5l5 891h15v124zM918.001 1492l-35 -99l96 -20l20 114zM764.001 1400l15 90l-30 2l-20 -92h35zM610.001 1423h10l8 37l-71 5v-37zM1557 1462l-20 -106l40 2l36 97zM1618 1361l73 -3l33 45l7 44l-80 15z
M544.001 1395l335.001 -34.002l213 -42l-15 -728l-21 191c-14.667 140 -30.334 236.333 -47.001 289s-43.5 98.834 -80.5 138.501s-74 69 -111 88s-75.833 29.833 -116.5 32.5s-88.667 5.33398 -144 8.00098zM1432 1315l292 40.999l10 -72c-44 -13.333 -77.667 -25 -101 -35
s-43.5 -28.167 -60.5 -54.5s-36.5 -66.666 -58.5 -120.999s-43 -162.5 -63 -324.5l-23 -213zM524.002 1415l13 -96c42 1.33301 86.167 0.833008 132.5 -1.5s89.333 -13.833 129 -34.5s77.5 -50 113.5 -88s61.667 -80.667 77 -128s41.333 -223.333 78 -528l23 -13l18 810
l-230 40zM1416 1334l-3.00098 -870l23 3c35.333 332 66.833 531.833 94.5 599.5s50.834 112.167 69.501 133.5s43.5 37.833 74.5 49.5s55.167 17.5 72.5 17.5v104zM1067 458.999l-56.499 208.003c-13 50 -28 104.333 -45 163s-40.167 117 -69.5 175s-75 97.333 -137 118
c-65.333 -4.66699 -110.333 -22.334 -135 -53.001s-47.834 -72.834 -69.501 -126.501s-44.5 -140.834 -68.5 -261.501zM1767 648.002c-26 186.667 -50.001 311 -72.001 373s-45.667 88.333 -71 79c-41.333 -26 -69.166 -54.667 -83.499 -86s-24.333 -62.333 -30 -93
s-15.5 -93.667 -29.5 -189l-15 -164l-10 -96l311 163v13zM555.001 1514l-10.999 -14.999l16 -24l121 17l131 12l179 3l298 -12l195 -20l204 -3l66 -27l-5 67c-55.333 21.333 -114.333 36.666 -177 45.999s-140.334 17 -233.001 23s-184.667 8 -276 6s-175 -4.66699 -251 -8
s-161.667 -25 -257 -65zM582.002 1519c93.333 24.667 198 38.667 314 42s203.5 5 262.5 5s127.5 -1.66699 205.5 -5s147.833 -9.83301 209.5 -19.5s118.5 -24.5 170.5 -44.5l5 -37l-83 20l-270 19l-197 10l-240 5l-172 -2l-142 -13l-85 -14l-5 12zM954.002 1933
c100.667 -11.333 178.333 -18.333 233 -21s109.834 -5.66699 165.501 -9s89 -2 100 4s13.5 14.667 7.5 26s-20.333 22 -43 32s-58.834 17.5 -108.501 22.5s-94.667 7.5 -135 7.5s-77 -2.5 -110 -7.5s-69.5 -23.167 -109.5 -54.5zM1443 1883
c10.667 -46 28.167 -75.168 52.5 -87.501s44.5 -20.166 60.5 -23.499s29.5 1.16699 40.5 13.5s11.833 26.833 2.5 43.5s-22.833 31.167 -40.5 43.5s-33.667 19.333 -48 21s-36.833 -1.83301 -67.5 -10.5zM1493 1888c23.333 -0.666992 43.668 -7.16699 61.001 -19.5
s30.166 -26.166 38.499 -41.499s9.5 -25.5 3.5 -30.5s-13.333 -6.16699 -22 -3.5s-19.667 5.66699 -33 9s-27 11.5 -41 24.5s-23.167 25.167 -27.5 36.5s2.5 19.666 20.5 24.999zM577.003 2364l-53 -587l71 587h-18zM340.003 338.002c-98 -20 -160.832 -37 -188.499 -51
s-35.667 -25.5 -24 -34.5s29 -11.833 52 -8.5s46.667 12.333 71 27s54.166 37 89.499 67zM2077 370.002c-13.333 33.333 -33.5 49.168 -60.5 47.501s-51.833 -9.16699 -74.5 -22.5s-54.667 -22.833 -96 -28.5s-77 -12.334 -107 -20.001s-3.83301 -8.5 78.5 -2.5
s168.833 14.667 259.5 26zM353.004 145.004c18.667 -93.333 0.000976562 -149.333 -55.999 -168l56 -28c37.333 149.333 93.666 233.333 168.999 252c186.667 0 289.334 -37.333 308.001 -112c37.333 -150 -9.33398 -253 -140.001 -309h-168l-141 141
c-18.667 -112.667 -149.667 -159.667 -393 -141l-28 281h-84v140c318 18.667 477 0 477 -56zM101.005 33.0039h112v56h-112v-56zM101.005 -135.996l140 28l-28 57h-112v-85zM578.005 -135.996l111.999 28l-28 197l-140 -28c-19.333 -93.333 -0.666016 -159 56.001 -197z
M858.004 201.004c243.333 18.667 374.334 -0.000976562 393.001 -56.001c18.667 -93.333 0 -149.333 -56 -168c56 18.667 84 -9.66602 84 -84.999l112 309h197l112 -337v-84l-281 84l-56 -84l-140 56c-74.667 -56 -196.334 -74.667 -365.001 -56v421zM998.005 33.0029h113
v56h-113v-56zM998.005 -135.997l141 28l-28 57h-113v-85zM1447 -50.9971h85l-29 140l-56 -56v-84zM224.005 -286.997h393v-140l-196 -28h140v-84h-112l-56 -169l-113 28l-56 253v140zM1094 -398.997c37.333 -150 -9.33398 -252.999 -140.001 -308.999
c-187.333 0 -290.333 47 -309 141c-37.333 93.333 9.33398 186.666 140.001 279.999c187.333 0 290.333 -37.333 309 -112zM841.005 -623.996l113 28l-28 197l-141 -28c-18.667 -93.333 0 -159 56 -197zM1126 -282.996c74.667 37.333 149.333 0 224 -112
c0 74.667 19 112 57 112h448v-140h-112v-140h253c-131.333 130.667 -150 224 -56 280h280v-112l-140 -56c112 -112.667 112 -197 0 -253h-449l-28 253l-112 28l-28 -281h-85l-140 141v-141h-112v421z" />
    <glyph glyph-name="underscore" unicode="_" horiz-adv-x="1454" 
d="M974 1444l-0.00292969 -853.998c4 -97.333 -14.667 -165 -56 -203s-106 -58.333 -194 -61c-70.667 1.33301 -129.667 22 -177 62s-69.666 107.333 -66.999 202v854h-770v-430h300v-417c2 -120 21.833 -215.833 59.5 -287.5s85.334 -131.5 143.001 -179.5
s130 -85.333 217 -112s183.833 -41.334 290.5 -44.001c88.667 2 178.834 14.167 270.501 36.5s171.667 57.5 240 105.5s121 109.667 158 185s55.5 173.666 55.5 294.999v848h-470z" />
    <glyph glyph-name="grave" unicode="`" horiz-adv-x="1630" 
d="M1703 1444l-508 -1444h-767l-371 1014h-299v430h734l332 -1109l328 1109h551z" />
    <glyph glyph-name="a" unicode="a" 
d="M-80 0l475 1444h717l483 -1444h-546l-91 260h-429l-91 -260h-518zM755 1124l-207 -572h398z" />
    <glyph glyph-name="b" unicode="b" horiz-adv-x="1628" 
d="M60 0l0.000976562 1444h985c158 -1.33301 278.167 -28.666 360.5 -81.999s132.166 -142.666 149.499 -267.999c6 -96 -14.333 -171.333 -61 -226s-123.667 -99.667 -231 -135v-4c52.667 -6.66699 101.334 -20.834 146.001 -42.501s82.167 -47.334 112.5 -77.001
s53.833 -63.167 70.5 -100.5s25 -74 25 -110c0 -114 -29.167 -200.333 -87.5 -259s-133.333 -97 -225 -115s-202.834 -26.333 -333.501 -25h-911zM558.001 559l0.00195312 -267h321c55.333 -2 103.666 10 144.999 36s62 58 62 96c4 42 -12.833 75 -50.5 99
s-89.834 36 -156.501 36h-321zM558.003 1094l0.00195312 -219h350c19.333 0 39.666 10.167 60.999 30.5s32.666 47.5 33.999 81.5c-2.66699 39.333 -15.5 67 -38.5 83s-42.167 24 -57.5 24h-349z" />
    <glyph glyph-name="c" unicode="c" horiz-adv-x="1484" 
d="M1032 430l452.003 0.000976562v-430h-640c-156.667 0 -298.334 27.833 -425.001 83.5s-226.5 139.167 -299.5 250.5s-109.5 247.666 -109.5 408.999c0 113.333 21.833 214.5 65.5 303.5s104.167 163 181.5 222s166.166 103 266.499 132s207.166 43.5 320.499 43.5h396
h244v-430h-452c-101.333 0 -176.333 -3 -225 -9s-92 -16 -130 -30s-71.667 -38.333 -101 -73s-46.333 -96 -51 -184c3.33301 -85.333 20.333 -146.333 51 -183s68 -61 112 -73s89.333 -20.333 136 -25s116 -7 208 -7z" />
    <glyph glyph-name="d" unicode="d" horiz-adv-x="1662" 
d="M60 0l0.00195312 1444h852c115.333 0 217 -15.333 305 -46s162.333 -72 223 -124s111.167 -122.333 151.5 -211s60.5 -204 60.5 -346c-7.33301 -131.333 -29.333 -243 -66 -335s-85.334 -164.667 -146.001 -218s-134.834 -94.666 -222.501 -123.999
s-197.5 -42.666 -329.5 -39.999h-828zM542.002 1086l-0.000976562 -725.998h275c62 0 112 13.167 150 39.5s69 60 93 101s39.333 114.833 46 221.5c-2 97.333 -15.5 169.166 -40.5 215.499s-57.167 82.666 -96.5 108.999s-90.666 39.5 -153.999 39.5h-273z" />
    <glyph glyph-name="e" unicode="e" horiz-adv-x="1360" 
d="M60 0v1444h1238v-430h-768v-166h496v-252h-496v-166h890v-430h-1360z" />
    <glyph glyph-name="f" unicode="f" horiz-adv-x="1328" 
d="M60 0v1444h1238v-430h-768v-166h496v-252h-496v-596h-470z" />
    <glyph glyph-name="g" unicode="g" horiz-adv-x="1484" 
d="M1032 430l0.00292969 292.001h452v-722h-640c-156.667 0 -298.334 27.833 -425.001 83.5s-226.5 139.167 -299.5 250.5s-109.5 247.666 -109.5 408.999c0 113.333 21.833 214.5 65.5 303.5s104.167 163 181.5 222s166.166 103 266.499 132s207.166 43.5 320.499 43.5h396
h244v-430h-452c-101.333 0 -176.333 -3 -225 -9s-92 -16 -130 -30s-71.667 -38.333 -101 -73s-46.333 -96 -51 -184c3.33301 -85.333 20.333 -146.333 51 -183s68 -61 112 -73s89.333 -20.333 136 -25s116 -7 208 -7z" />
    <glyph glyph-name="h" unicode="h" horiz-adv-x="1398" 
d="M888 946v498h470v-1444h-470v520h-378v-520h-470v1444h470v-498h378z" />
    <glyph glyph-name="i" unicode="i" horiz-adv-x="550" 
d="M40 1444h470v-1444h-470v1444z" />
    <glyph glyph-name="j" unicode="j" horiz-adv-x="879" 
d="M878 1444l0.000976562 -430.001h-74v-560c-4 -110.667 -20 -186.667 -48 -228s-69 -81.666 -123 -120.999s-127.667 -69.666 -221 -90.999c-90.667 -6.66699 -164.334 -10.334 -221.001 -11.001s-117.667 -1.66699 -183 -3v430c52 -13.333 110.667 -13.333 176 0
c52 12 88 26 108 42s34 54 42 114v858h544z" />
    <glyph glyph-name="k" unicode="k" horiz-adv-x="1404" 
d="M530 1444v-470l330 470h470l-538 -722l240 -292h432v-430h-570l-364 430v-430h-470v1444h470z" />
    <glyph glyph-name="l" unicode="l" horiz-adv-x="1312" 
d="M60 0v1444h470v-1014h782v-430h-1252z" />
    <glyph glyph-name="m" unicode="m" horiz-adv-x="1650" 
d="M40 0v1444h470l316 -600l314 600h470v-1444h-470v600l-302 -600h-26l-302 600v-600h-470z" />
    <glyph glyph-name="n" unicode="n" horiz-adv-x="1430" 
d="M60 0v1444h470l430 -540v540h470v-1444h-470l-430 540v-540h-470z" />
    <glyph glyph-name="o" unicode="o" horiz-adv-x="1677" 
d="M1668 714c0 -158 -33.0029 -292.667 -99.0029 -404s-161.5 -195 -286.5 -251s-274.167 -84 -447.5 -84s-322.166 28.167 -446.499 84.5s-218.5 139.666 -282.5 249.999s-96 245.166 -96 404.499c0 120.667 18.333 226.834 55 318.501s90.334 168.834 161.001 231.501
s157.334 110.167 260.001 142.5s219 48.5 349 48.5c172.667 0 321.667 -28.5 447 -85.5s221 -141 287 -252s99 -245.5 99 -403.5zM522.997 710c0 -92.667 20.833 -173.332 62.5 -241.999s123.834 -103 246.501 -103c94.667 0 165.5 18 212.5 54s76.333 77.167 88 123.5
s19.5 102.166 23.5 167.499c-4 92.667 -26.333 173.5 -67 242.5s-126.334 103.5 -257.001 103.5c-206 0 -309 -115.333 -309 -346z" />
    <glyph glyph-name="p" unicode="p" horiz-adv-x="1501" 
d="M60 0v1444h940c116 -10.667 212 -40.667 288 -90s130 -118 162 -206c29.333 -106.667 41.333 -186.667 36 -240s-16 -103.333 -32 -150s-60 -100.667 -132 -162s-168 -101 -288 -119h-452v-477h-522zM582 1084v-266h364c19.333 0 40.333 7.16699 63 21.5
s34.667 50.5 36 108.5c-3.33301 55.333 -16.833 91.833 -40.5 109.5s-43.5 26.5 -59.5 26.5h-363z" />
    <glyph glyph-name="q" unicode="q" horiz-adv-x="1639" 
d="M1639 430l-0.000976562 -429.999l-859 -25c-123.333 3.33301 -232.166 21 -326.499 53s-174.833 79.833 -241.5 143.5s-117 141.5 -151 233.5s-51 197.333 -51 316c0 121.333 17.667 225.5 53 312.5s87 162.5 155 226.5s150 112 246 144s218.667 52 368 60
c152 -8 286 -33.333 402 -76s210.667 -113.334 284 -212.001s106 -245.334 98 -440.001c-16 -88 -47.5 -164.667 -94.5 -230s-21.833 -90.666 75.5 -75.999h42zM526.999 702.001c0 -92.667 20.833 -173.333 62.5 -242s123.834 -103 246.501 -103v71
c184 -18.667 283 5.83301 297 73.5s23 134.5 27 200.5c-4 91.333 -26.333 171.5 -67 240.5s-126.334 103.5 -257.001 103.5c-206 0 -309 -114.667 -309 -344z" />
    <glyph glyph-name="r" unicode="r" horiz-adv-x="1550" 
d="M60 0l-0.000976562 1444h940c116 -10.667 211.333 -41.334 286 -92.001s129.334 -118.667 164.001 -204c26.667 -128 28 -226.667 4 -296s-66 -127.333 -126 -174s-146 -83.334 -258 -110.001l108 -138h432v-430h-570l-458 477v-477h-522zM581.999 1084v-266h364
c19.333 0 40.333 7.16699 63 21.5s34.667 50.5 36 108.5c-3.33301 55.333 -16.833 91.833 -40.5 109.5s-43.5 26.5 -59.5 26.5h-363z" />
    <glyph glyph-name="s" unicode="s" horiz-adv-x="1135" 
d="M1196 1444h-787.999c-184 0 -293.333 -89.333 -328 -268s64 -374.667 296 -588c140.667 -110.667 116.667 -163.334 -72 -158.001h-304v-430h768c208 34.667 314 141.334 318 320.001s-102 362.667 -318 552c-120.667 100 -95.334 147.333 75.999 142h352v430z" />
    <glyph glyph-name="t" unicode="t" horiz-adv-x="1366" 
d="M1376 1444v-430h-458v-1014h-470v1014h-458v430h1386z" />
    <glyph glyph-name="u" unicode="u" horiz-adv-x="1454" 
d="M480 1444l0.00292969 -853.998c-4 -97.333 14.667 -165 56 -203s106 -58.333 194 -61c70.667 1.33301 129.667 22 177 62s69.666 107.333 66.999 202v854h470v-847c-2 -120 -21.833 -215.833 -59.5 -287.5s-85.334 -131.5 -143.001 -179.5s-130 -85.333 -217 -112
s-183.833 -41.334 -290.5 -44.001c-88.667 2 -178.834 14.167 -270.501 36.5s-171.667 57.5 -240 105.5s-121 109.667 -158 185s-55.5 173.666 -55.5 294.999v848h470z" />
    <glyph glyph-name="v" unicode="v" horiz-adv-x="1630" 
d="M-80 1444l508 -1444h767l515 1444h-579l-332 -1109l-328 1109h-551z" />
    <glyph glyph-name="w" unicode="w" horiz-adv-x="1800" 
d="M922 612l-152 -612h-470l-440 1444h470l198 -624l172 624h432l201 -624l134 624h470l-362 -1444h-470z" />
    <glyph glyph-name="x" unicode="x" horiz-adv-x="1472" 
d="M1602 1444l-530 -722l530 -722h-570l-298 446l-294 -446h-570l530 722l-530 722h570l294 -446l298 446h570z" />
    <glyph glyph-name="y" unicode="y" horiz-adv-x="1472" 
d="M1602 1444l-630 -914v-530h-472v530l-630 914h570l294 -446l298 446h570z" />
    <glyph glyph-name="z" unicode="z" horiz-adv-x="1400" 
d="M40 1444h1320v-430l-699 -584h699v-430h-1320v430l699 584h-699v430z" />
    <glyph glyph-name="braceleft" unicode="{" horiz-adv-x="2048" 
d="M499 2515l379.001 39.002l20 -64l-167 -119l-106 -10l-70 -738c53.333 138.667 117.166 233.667 191.499 285s161.166 83.666 260.499 96.999s200.333 14.166 303 2.49902s180.834 -34.834 234.501 -69.501s99 -90 136 -166s60.833 -153.667 71.5 -233l20 -40l5 -183
l81 -649l-283 -148l5 -25l30 -25c210.667 52.667 322 49.334 334 -9.99902l122 -19c46 -53.333 45.667 -91.333 -1 -114l-1445 -40l-485 -59c-50 36 10.667 93.667 182 173l313 25l-45 49l-20 50l40 59l5 25l-141 64l60 644v164c-26.667 6.66699 -46.667 29.667 -60 69
l86 807l-66 30l-25 84zM1302 1482v-173l10 -20l-5 -827l81 -5l5 891h15v124zM918.001 1492l-35 -99l96 -20l20 114zM764.001 1400l15 90l-30 2l-20 -92h35zM610.001 1423h10l8 37l-71 5v-37zM1557 1462l-20 -106l40 2l36 97zM1618 1361l73 -3l33 45l7 44l-80 15z
M544.001 1395l335.001 -34.002l213 -42l-15 -728l-21 191c-14.667 140 -30.334 236.333 -47.001 289s-43.5 98.834 -80.5 138.501s-74 69 -111 88s-75.833 29.833 -116.5 32.5s-88.667 5.33398 -144 8.00098zM1432 1315l292 40.999l10 -72c-44 -13.333 -77.667 -25 -101 -35
s-43.5 -28.167 -60.5 -54.5s-36.5 -66.666 -58.5 -120.999s-43 -162.5 -63 -324.5l-23 -213zM524.002 1415l13 -96c42 1.33301 86.167 0.833008 132.5 -1.5s89.333 -13.833 129 -34.5s77.5 -50 113.5 -88s61.667 -80.667 77 -128s41.333 -223.333 78 -528l23 -13l18 810
l-230 40zM1416 1334l-3.00098 -870l23 3c35.333 332 66.833 531.833 94.5 599.5s50.834 112.167 69.501 133.5s43.5 37.833 74.5 49.5s55.167 17.5 72.5 17.5v104zM1067 458.999l-56.499 208.003c-13 50 -28 104.333 -45 163s-40.167 117 -69.5 175s-75 97.333 -137 118
c-65.333 -4.66699 -110.333 -22.334 -135 -53.001s-47.834 -72.834 -69.501 -126.501s-44.5 -140.834 -68.5 -261.501zM1767 648.002c-26 186.667 -50.001 311 -72.001 373s-45.667 88.333 -71 79c-41.333 -26 -69.166 -54.667 -83.499 -86s-24.333 -62.333 -30 -93
s-15.5 -93.667 -29.5 -189l-15 -164l-10 -96l311 163v13zM555.001 1514l-10.999 -14.999l16 -24l121 17l131 12l179 3l298 -12l195 -20l204 -3l66 -27l-5 67c-55.333 21.333 -114.333 36.666 -177 45.999s-140.334 17 -233.001 23s-184.667 8 -276 6s-175 -4.66699 -251 -8
s-161.667 -25 -257 -65zM582.002 1519c93.333 24.667 198 38.667 314 42s203.5 5 262.5 5s127.5 -1.66699 205.5 -5s147.833 -9.83301 209.5 -19.5s118.5 -24.5 170.5 -44.5l5 -37l-83 20l-270 19l-197 10l-240 5l-172 -2l-142 -13l-85 -14l-5 12zM954.002 1933
c100.667 -11.333 178.333 -18.333 233 -21s109.834 -5.66699 165.501 -9s89 -2 100 4s13.5 14.667 7.5 26s-20.333 22 -43 32s-58.834 17.5 -108.501 22.5s-94.667 7.5 -135 7.5s-77 -2.5 -110 -7.5s-69.5 -23.167 -109.5 -54.5zM1443 1883
c10.667 -46 28.167 -75.168 52.5 -87.501s44.5 -20.166 60.5 -23.499s29.5 1.16699 40.5 13.5s11.833 26.833 2.5 43.5s-22.833 31.167 -40.5 43.5s-33.667 19.333 -48 21s-36.833 -1.83301 -67.5 -10.5zM1493 1888c23.333 -0.666992 43.668 -7.16699 61.001 -19.5
s30.166 -26.166 38.499 -41.499s9.5 -25.5 3.5 -30.5s-13.333 -6.16699 -22 -3.5s-19.667 5.66699 -33 9s-27 11.5 -41 24.5s-23.167 25.167 -27.5 36.5s2.5 19.666 20.5 24.999zM577.003 2364l-53 -587l71 587h-18zM340.003 338.002c-98 -20 -160.832 -37 -188.499 -51
s-35.667 -25.5 -24 -34.5s29 -11.833 52 -8.5s46.667 12.333 71 27s54.166 37 89.499 67zM2077 370.002c-13.333 33.333 -33.5 49.168 -60.5 47.501s-51.833 -9.16699 -74.5 -22.5s-54.667 -22.833 -96 -28.5s-77 -12.334 -107 -20.001s-3.83301 -8.5 78.5 -2.5
s168.833 14.667 259.5 26zM353.004 145.004c18.667 -93.333 0.000976562 -149.333 -55.999 -168l56 -28c37.333 149.333 93.666 233.333 168.999 252c186.667 0 289.334 -37.333 308.001 -112c37.333 -150 -9.33398 -253 -140.001 -309h-168l-141 141
c-18.667 -112.667 -149.667 -159.667 -393 -141l-28 281h-84v140c318 18.667 477 0 477 -56zM101.005 33.0039h112v56h-112v-56zM101.005 -135.996l140 28l-28 57h-112v-85zM578.005 -135.996l111.999 28l-28 197l-140 -28c-19.333 -93.333 -0.666016 -159 56.001 -197z
M858.004 201.004c243.333 18.667 374.334 -0.000976562 393.001 -56.001c18.667 -93.333 0 -149.333 -56 -168c56 18.667 84 -9.66602 84 -84.999l112 309h197l112 -337v-84l-281 84l-56 -84l-140 56c-74.667 -56 -196.334 -74.667 -365.001 -56v421zM998.005 33.0029h113
v56h-113v-56zM998.005 -135.997l141 28l-28 57h-113v-85zM1447 -50.9971h85l-29 140l-56 -56v-84zM224.005 -286.997h393v-140l-196 -28h140v-84h-112l-56 -169l-113 28l-56 253v140zM1094 -398.997c37.333 -150 -9.33398 -252.999 -140.001 -308.999
c-187.333 0 -290.333 47 -309 141c-37.333 93.333 9.33398 186.666 140.001 279.999c187.333 0 290.333 -37.333 309 -112zM841.005 -623.996l113 28l-28 197l-141 -28c-18.667 -93.333 0 -159 56 -197zM1126 -282.996c74.667 37.333 149.333 0 224 -112
c0 74.667 19 112 57 112h448v-140h-112v-140h253c-131.333 130.667 -150 224 -56 280h280v-112l-140 -56c112 -112.667 112 -197 0 -253h-449l-28 253l-112 28l-28 -281h-85l-140 141v-141h-112v421z" />
    <glyph glyph-name="bar" unicode="|" horiz-adv-x="56" 
d="M-296 1014v430h650v-430h-650z" />
    <glyph glyph-name="braceright" unicode="}" horiz-adv-x="2048" 
d="M499 2515l379.001 39.002l20 -64l-167 -119l-106 -10l-70 -738c53.333 138.667 117.166 233.667 191.499 285s161.166 83.666 260.499 96.999s200.333 14.166 303 2.49902s180.834 -34.834 234.501 -69.501s99 -90 136 -166s60.833 -153.667 71.5 -233l20 -40l5 -183
l81 -649l-283 -148l5 -25l30 -25c210.667 52.667 322 49.334 334 -9.99902l122 -19c46 -53.333 45.667 -91.333 -1 -114l-1445 -40l-485 -59c-50 36 10.667 93.667 182 173l313 25l-45 49l-20 50l40 59l5 25l-141 64l60 644v164c-26.667 6.66699 -46.667 29.667 -60 69
l86 807l-66 30l-25 84zM1302 1482v-173l10 -20l-5 -827l81 -5l5 891h15v124zM918.001 1492l-35 -99l96 -20l20 114zM764.001 1400l15 90l-30 2l-20 -92h35zM610.001 1423h10l8 37l-71 5v-37zM1557 1462l-20 -106l40 2l36 97zM1618 1361l73 -3l33 45l7 44l-80 15z
M544.001 1395l335.001 -34.002l213 -42l-15 -728l-21 191c-14.667 140 -30.334 236.333 -47.001 289s-43.5 98.834 -80.5 138.501s-74 69 -111 88s-75.833 29.833 -116.5 32.5s-88.667 5.33398 -144 8.00098zM1432 1315l292 40.999l10 -72c-44 -13.333 -77.667 -25 -101 -35
s-43.5 -28.167 -60.5 -54.5s-36.5 -66.666 -58.5 -120.999s-43 -162.5 -63 -324.5l-23 -213zM524.002 1415l13 -96c42 1.33301 86.167 0.833008 132.5 -1.5s89.333 -13.833 129 -34.5s77.5 -50 113.5 -88s61.667 -80.667 77 -128s41.333 -223.333 78 -528l23 -13l18 810
l-230 40zM1416 1334l-3.00098 -870l23 3c35.333 332 66.833 531.833 94.5 599.5s50.834 112.167 69.501 133.5s43.5 37.833 74.5 49.5s55.167 17.5 72.5 17.5v104zM1067 458.999l-56.499 208.003c-13 50 -28 104.333 -45 163s-40.167 117 -69.5 175s-75 97.333 -137 118
c-65.333 -4.66699 -110.333 -22.334 -135 -53.001s-47.834 -72.834 -69.501 -126.501s-44.5 -140.834 -68.5 -261.501zM1767 648.002c-26 186.667 -50.001 311 -72.001 373s-45.667 88.333 -71 79c-41.333 -26 -69.166 -54.667 -83.499 -86s-24.333 -62.333 -30 -93
s-15.5 -93.667 -29.5 -189l-15 -164l-10 -96l311 163v13zM555.001 1514l-10.999 -14.999l16 -24l121 17l131 12l179 3l298 -12l195 -20l204 -3l66 -27l-5 67c-55.333 21.333 -114.333 36.666 -177 45.999s-140.334 17 -233.001 23s-184.667 8 -276 6s-175 -4.66699 -251 -8
s-161.667 -25 -257 -65zM582.002 1519c93.333 24.667 198 38.667 314 42s203.5 5 262.5 5s127.5 -1.66699 205.5 -5s147.833 -9.83301 209.5 -19.5s118.5 -24.5 170.5 -44.5l5 -37l-83 20l-270 19l-197 10l-240 5l-172 -2l-142 -13l-85 -14l-5 12zM954.002 1933
c100.667 -11.333 178.333 -18.333 233 -21s109.834 -5.66699 165.501 -9s89 -2 100 4s13.5 14.667 7.5 26s-20.333 22 -43 32s-58.834 17.5 -108.501 22.5s-94.667 7.5 -135 7.5s-77 -2.5 -110 -7.5s-69.5 -23.167 -109.5 -54.5zM1443 1883
c10.667 -46 28.167 -75.168 52.5 -87.501s44.5 -20.166 60.5 -23.499s29.5 1.16699 40.5 13.5s11.833 26.833 2.5 43.5s-22.833 31.167 -40.5 43.5s-33.667 19.333 -48 21s-36.833 -1.83301 -67.5 -10.5zM1493 1888c23.333 -0.666992 43.668 -7.16699 61.001 -19.5
s30.166 -26.166 38.499 -41.499s9.5 -25.5 3.5 -30.5s-13.333 -6.16699 -22 -3.5s-19.667 5.66699 -33 9s-27 11.5 -41 24.5s-23.167 25.167 -27.5 36.5s2.5 19.666 20.5 24.999zM577.003 2364l-53 -587l71 587h-18zM340.003 338.002c-98 -20 -160.832 -37 -188.499 -51
s-35.667 -25.5 -24 -34.5s29 -11.833 52 -8.5s46.667 12.333 71 27s54.166 37 89.499 67zM2077 370.002c-13.333 33.333 -33.5 49.168 -60.5 47.501s-51.833 -9.16699 -74.5 -22.5s-54.667 -22.833 -96 -28.5s-77 -12.334 -107 -20.001s-3.83301 -8.5 78.5 -2.5
s168.833 14.667 259.5 26zM353.004 145.004c18.667 -93.333 0.000976562 -149.333 -55.999 -168l56 -28c37.333 149.333 93.666 233.333 168.999 252c186.667 0 289.334 -37.333 308.001 -112c37.333 -150 -9.33398 -253 -140.001 -309h-168l-141 141
c-18.667 -112.667 -149.667 -159.667 -393 -141l-28 281h-84v140c318 18.667 477 0 477 -56zM101.005 33.0039h112v56h-112v-56zM101.005 -135.996l140 28l-28 57h-112v-85zM578.005 -135.996l111.999 28l-28 197l-140 -28c-19.333 -93.333 -0.666016 -159 56.001 -197z
M858.004 201.004c243.333 18.667 374.334 -0.000976562 393.001 -56.001c18.667 -93.333 0 -149.333 -56 -168c56 18.667 84 -9.66602 84 -84.999l112 309h197l112 -337v-84l-281 84l-56 -84l-140 56c-74.667 -56 -196.334 -74.667 -365.001 -56v421zM998.005 33.0029h113
v56h-113v-56zM998.005 -135.997l141 28l-28 57h-113v-85zM1447 -50.9971h85l-29 140l-56 -56v-84zM224.005 -286.997h393v-140l-196 -28h140v-84h-112l-56 -169l-113 28l-56 253v140zM1094 -398.997c37.333 -150 -9.33398 -252.999 -140.001 -308.999
c-187.333 0 -290.333 47 -309 141c-37.333 93.333 9.33398 186.666 140.001 279.999c187.333 0 290.333 -37.333 309 -112zM841.005 -623.996l113 28l-28 197l-141 -28c-18.667 -93.333 0 -159 56 -197zM1126 -282.996c74.667 37.333 149.333 0 224 -112
c0 74.667 19 112 57 112h448v-140h-112v-140h253c-131.333 130.667 -150 224 -56 280h280v-112l-140 -56c112 -112.667 112 -197 0 -253h-449l-28 253l-112 28l-28 -281h-85l-140 141v-141h-112v421z" />
    <glyph glyph-name="asciitilde" unicode="~" horiz-adv-x="1472" 
d="M1708 1444v-430h-400l-336 -484v-530h-472v530l-630 914h570l294 -446l298 446h676z" />
    <glyph glyph-name="paragraph" unicode="&#xb6;" horiz-adv-x="2048" 
d="M499 2515l379.001 39.002l20 -64l-167 -119l-106 -10l-70 -738c53.333 138.667 117.166 233.667 191.499 285s161.166 83.666 260.499 96.999s200.333 14.166 303 2.49902s180.834 -34.834 234.501 -69.501s99 -90 136 -166s60.833 -153.667 71.5 -233l20 -40l5 -183
l81 -649l-283 -148l5 -25l30 -25c210.667 52.667 322 49.334 334 -9.99902l122 -19c46 -53.333 45.667 -91.333 -1 -114l-1445 -40l-485 -59c-50 36 10.667 93.667 182 173l313 25l-45 49l-20 50l40 59l5 25l-141 64l60 644v164c-26.667 6.66699 -46.667 29.667 -60 69
l86 807l-66 30l-25 84zM1302 1482v-173l10 -20l-5 -827l81 -5l5 891h15v124zM918.001 1492l-35 -99l96 -20l20 114zM764.001 1400l15 90l-30 2l-20 -92h35zM610.001 1423h10l8 37l-71 5v-37zM1557 1462l-20 -106l40 2l36 97zM1618 1361l73 -3l33 45l7 44l-80 15z
M544.001 1395l335.001 -34.002l213 -42l-15 -728l-21 191c-14.667 140 -30.334 236.333 -47.001 289s-43.5 98.834 -80.5 138.501s-74 69 -111 88s-75.833 29.833 -116.5 32.5s-88.667 5.33398 -144 8.00098zM1432 1315l292 40.999l10 -72c-44 -13.333 -77.667 -25 -101 -35
s-43.5 -28.167 -60.5 -54.5s-36.5 -66.666 -58.5 -120.999s-43 -162.5 -63 -324.5l-23 -213zM524.002 1415l13 -96c42 1.33301 86.167 0.833008 132.5 -1.5s89.333 -13.833 129 -34.5s77.5 -50 113.5 -88s61.667 -80.667 77 -128s41.333 -223.333 78 -528l23 -13l18 810
l-230 40zM1416 1334l-3.00098 -870l23 3c35.333 332 66.833 531.833 94.5 599.5s50.834 112.167 69.501 133.5s43.5 37.833 74.5 49.5s55.167 17.5 72.5 17.5v104zM1067 458.999l-56.499 208.003c-13 50 -28 104.333 -45 163s-40.167 117 -69.5 175s-75 97.333 -137 118
c-65.333 -4.66699 -110.333 -22.334 -135 -53.001s-47.834 -72.834 -69.501 -126.501s-44.5 -140.834 -68.5 -261.501zM1767 648.002c-26 186.667 -50.001 311 -72.001 373s-45.667 88.333 -71 79c-41.333 -26 -69.166 -54.667 -83.499 -86s-24.333 -62.333 -30 -93
s-15.5 -93.667 -29.5 -189l-15 -164l-10 -96l311 163v13zM555.001 1514l-10.999 -14.999l16 -24l121 17l131 12l179 3l298 -12l195 -20l204 -3l66 -27l-5 67c-55.333 21.333 -114.333 36.666 -177 45.999s-140.334 17 -233.001 23s-184.667 8 -276 6s-175 -4.66699 -251 -8
s-161.667 -25 -257 -65zM582.002 1519c93.333 24.667 198 38.667 314 42s203.5 5 262.5 5s127.5 -1.66699 205.5 -5s147.833 -9.83301 209.5 -19.5s118.5 -24.5 170.5 -44.5l5 -37l-83 20l-270 19l-197 10l-240 5l-172 -2l-142 -13l-85 -14l-5 12zM954.002 1933
c100.667 -11.333 178.333 -18.333 233 -21s109.834 -5.66699 165.501 -9s89 -2 100 4s13.5 14.667 7.5 26s-20.333 22 -43 32s-58.834 17.5 -108.501 22.5s-94.667 7.5 -135 7.5s-77 -2.5 -110 -7.5s-69.5 -23.167 -109.5 -54.5zM1443 1883
c10.667 -46 28.167 -75.168 52.5 -87.501s44.5 -20.166 60.5 -23.499s29.5 1.16699 40.5 13.5s11.833 26.833 2.5 43.5s-22.833 31.167 -40.5 43.5s-33.667 19.333 -48 21s-36.833 -1.83301 -67.5 -10.5zM1493 1888c23.333 -0.666992 43.668 -7.16699 61.001 -19.5
s30.166 -26.166 38.499 -41.499s9.5 -25.5 3.5 -30.5s-13.333 -6.16699 -22 -3.5s-19.667 5.66699 -33 9s-27 11.5 -41 24.5s-23.167 25.167 -27.5 36.5s2.5 19.666 20.5 24.999zM577.003 2364l-53 -587l71 587h-18zM340.003 338.002c-98 -20 -160.832 -37 -188.499 -51
s-35.667 -25.5 -24 -34.5s29 -11.833 52 -8.5s46.667 12.333 71 27s54.166 37 89.499 67zM2077 370.002c-13.333 33.333 -33.5 49.168 -60.5 47.501s-51.833 -9.16699 -74.5 -22.5s-54.667 -22.833 -96 -28.5s-77 -12.334 -107 -20.001s-3.83301 -8.5 78.5 -2.5
s168.833 14.667 259.5 26zM353.004 145.004c18.667 -93.333 0.000976562 -149.333 -55.999 -168l56 -28c37.333 149.333 93.666 233.333 168.999 252c186.667 0 289.334 -37.333 308.001 -112c37.333 -150 -9.33398 -253 -140.001 -309h-168l-141 141
c-18.667 -112.667 -149.667 -159.667 -393 -141l-28 281h-84v140c318 18.667 477 0 477 -56zM101.005 33.0039h112v56h-112v-56zM101.005 -135.996l140 28l-28 57h-112v-85zM578.005 -135.996l111.999 28l-28 197l-140 -28c-19.333 -93.333 -0.666016 -159 56.001 -197z
M858.004 201.004c243.333 18.667 374.334 -0.000976562 393.001 -56.001c18.667 -93.333 0 -149.333 -56 -168c56 18.667 84 -9.66602 84 -84.999l112 309h197l112 -337v-84l-281 84l-56 -84l-140 56c-74.667 -56 -196.334 -74.667 -365.001 -56v421zM998.005 33.0029h113
v56h-113v-56zM998.005 -135.997l141 28l-28 57h-113v-85zM1447 -50.9971h85l-29 140l-56 -56v-84zM224.005 -286.997h393v-140l-196 -28h140v-84h-112l-56 -169l-113 28l-56 253v140zM1094 -398.997c37.333 -150 -9.33398 -252.999 -140.001 -308.999
c-187.333 0 -290.333 47 -309 141c-37.333 93.333 9.33398 186.666 140.001 279.999c187.333 0 290.333 -37.333 309 -112zM841.005 -623.996l113 28l-28 197l-141 -28c-18.667 -93.333 0 -159 56 -197zM1126 -282.996c74.667 37.333 149.333 0 224 -112
c0 74.667 19 112 57 112h448v-140h-112v-140h253c-131.333 130.667 -150 224 -56 280h280v-112l-140 -56c112 -112.667 112 -197 0 -253h-449l-28 253l-112 28l-28 -281h-85l-140 141v-141h-112v421z" />
    <glyph glyph-name="questiondown" unicode="&#xbf;" horiz-adv-x="1176" 
d="M465 933l409.998 0.00195312c-5.33301 -95.333 -21 -168.166 -47 -218.499s-55.833 -88 -89.5 -113l-94 -71.5c-29 -22.667 -43.5 -51.334 -43.5 -86.001s17.333 -57.334 52 -68.001s84.667 -16 150 -16c46 0 96.167 6.83301 150.5 20.5s100.5 29.5 138.5 47.5v-353
c-78.667 -24.667 -152.5 -43.334 -221.5 -56.001s-143.833 -19 -224.5 -19c-81.333 0 -164.666 9.5 -249.999 28.5s-158.666 54.5 -219.999 106.5s-92 123 -92 213c0 69.333 16.167 126.833 48.5 172.5s81.333 95.167 147 148.5s113 97.333 142 132s43.5 78.667 43.5 132z
M892.998 1083h-446v385h446v-385z" />
    <glyph glyph-name="Agrave" unicode="&#xc0;" 
d="M-80 0l475 1444h717l483 -1444h-546l-91 260h-429l-91 -260h-518zM755 1124l-207 -572h398zM203 1796h462l176 -318z" />
    <glyph glyph-name="Aacute" unicode="&#xc1;" 
d="M1311 1796h-462l-176 -318zM-80 0l475 1444h717l483 -1444h-546l-91 260h-429l-91 -260h-518zM755 1124l-207 -572h398z" />
    <glyph glyph-name="Acircumflex" unicode="&#xc2;" 
d="M1030 1534l-279 283l-278 -283v-59l280 171l277 -174v62zM-80 0l475 1444h717l483 -1444h-546l-91 260h-429l-91 -260h-518zM755 1124l-207 -572h398z" />
    <glyph glyph-name="Atilde" unicode="&#xc3;" 
d="M-80 0l475 1444h717l483 -1444h-546l-91 260h-429l-91 -260h-518zM755 1124l-207 -572h398zM1052 1676c-98.667 -93.333 -206.333 -76.334 -323 50.999s-224 101 -322 -79l60 -47c56.667 111.333 141 106.333 253 -15s248 -104.666 408 50.001z" />
    <glyph glyph-name="Adieresis" unicode="&#xc4;" 
d="M-80 0l475 1444h717l483 -1444h-546l-91 260h-429l-91 -260h-518zM755 1124l-207 -572h398zM563 1764c34 0 61.8311 -11.167 83.498 -33.5s32.5 -50.166 32.5 -83.499c-3.33301 -40.667 -16.166 -71.334 -38.499 -92.001s-50.166 -31 -83.499 -31c-32 0 -59 11 -81 33
s-33 49.667 -33 83c0 37.333 11 67.333 33 90s51 34 87 34zM940.998 1764c34 0 61.8311 -11.167 83.498 -33.5s32.5 -50.166 32.5 -83.499c-3.33301 -40.667 -16.166 -71.334 -38.499 -92.001s-50.166 -31 -83.499 -31c-32 0 -59 11 -81 33s-33 49.667 -33 83
c0 37.333 11 67.333 33 90s51 34 87 34z" />
    <glyph glyph-name="Aring" unicode="&#xc5;" 
d="M-80 0l475 1444h717l483 -1444h-546l-91 260h-429l-91 -260h-518zM755 1124l-207 -572h398zM754 1844c55.333 0 101.168 -18.333 137.501 -55s54.5 -82 54.5 -136c0 -54.667 -19.833 -101.5 -59.5 -140.5s-86.834 -58.5 -141.501 -58.5
c-52.667 0 -97.167 17.667 -133.5 53s-54.5 80.333 -54.5 135c0 60.667 18.333 109.5 55 146.5s84 55.5 142 55.5zM753.002 1768c-36 0 -64.998 -11.333 -86.998 -34s-33 -52.667 -33 -90c0 -33.333 11 -61 33 -83s49 -33 81 -33c33.333 0 61.166 10.333 83.499 31
s35.166 51.334 38.499 92.001c0 33.333 -10.833 61.166 -32.5 83.499s-49.5 33.5 -83.5 33.5z" />
    <glyph glyph-name="AE" unicode="&#xc6;" horiz-adv-x="2062" 
d="M756 1122l-208 -570h208v570zM756 0v260h-227l-91 -260h-518l475 1444h1605v-430h-768v-166h496v-252h-496v-166h890v-430h-1366z" />
    <glyph glyph-name="Ccedilla" unicode="&#xc7;" horiz-adv-x="1440" 
d="M692 4c-66.667 5.33301 -138.333 25.832 -215 61.499s-152.5 83 -227.5 142s-133.667 133 -176 222s-63.5 192.167 -63.5 309.5c0 116 21.167 218.5 63.5 307.5s101 163 176 222s150.833 106.333 227.5 142s189.667 57.5 339 65.5c154.667 -8 272.667 -26.667 354 -56
s163.333 -82.666 246 -159.999l-284 -316c-48 40 -90.667 68.667 -128 86s-98.666 28.666 -183.999 33.999c-82.667 -10.667 -144.334 -27.667 -185.001 -51s-75.667 -55 -105 -95s-46.666 -100 -51.999 -180c5.33301 -80 22.666 -140 51.999 -180s64.333 -71.667 105 -95
s102.334 -40.333 185.001 -51c85.333 5.33301 146.666 16.666 183.999 33.999s80 46 128 86l284 -316c-82.667 -77.333 -164.667 -130.666 -246 -159.999s-172 -47.666 -272 -54.999v-113c71.333 -13.333 124.333 -36 159 -68s52 -70.667 52 -116
c0 -61.333 -33.833 -114.833 -101.5 -160.5s-154.834 -68.5 -261.501 -68.5c-42 0 -95 2.66699 -159 8l15 87c28 -8 61.333 -12.667 100 -14c66.667 0 111.834 10.333 135.501 31s35.5 49 35.5 85c0 25.333 -13 47.333 -39 66s-58.333 28 -97 28c-11.333 0 -26 -1 -44 -3z
" />
    <glyph glyph-name="Egrave" unicode="&#xc8;" horiz-adv-x="1360" 
d="M60 0v1444h1238v-430h-768v-166h496v-252h-496v-166h890v-430h-1360zM203 1796h462l176 -318z" />
    <glyph glyph-name="Eacute" unicode="&#xc9;" horiz-adv-x="1360" 
d="M60 0v1444h1238v-430h-768v-166h496v-252h-496v-166h890v-430h-1360zM1311 1796h-462l-176 -318z" />
    <glyph glyph-name="Ecircumflex" unicode="&#xca;" horiz-adv-x="1360" 
d="M60 0v1444h1238v-430h-768v-166h496v-252h-496v-166h890v-430h-1360zM1030 1534l-279 283l-278 -283v-59l280 171l277 -174v62z" />
    <glyph glyph-name="Edieresis" unicode="&#xcb;" horiz-adv-x="1360" 
d="M60 0v1444h1238v-430h-768v-166h496v-252h-496v-166h890v-430h-1360zM563 1764c34 0 61.8311 -11.167 83.498 -33.5s32.5 -50.166 32.5 -83.499c-3.33301 -40.667 -16.166 -71.334 -38.499 -92.001s-50.166 -31 -83.499 -31c-32 0 -59 11 -81 33s-33 49.667 -33 83
c0 37.333 11 67.333 33 90s51 34 87 34zM940.998 1764c34 0 61.8311 -11.167 83.498 -33.5s32.5 -50.166 32.5 -83.499c-3.33301 -40.667 -16.166 -71.334 -38.499 -92.001s-50.166 -31 -83.499 -31c-32 0 -59 11 -81 33s-33 49.667 -33 83c0 37.333 11 67.333 33 90
s51 34 87 34z" />
    <glyph glyph-name="Igrave" unicode="&#xcc;" horiz-adv-x="550" 
d="M40 1444h470v-1444h-470v1444zM26 1796h371l113 -316z" />
    <glyph glyph-name="Iacute" unicode="&#xcd;" horiz-adv-x="550" 
d="M508 1444h-467v-1444h467v1444zM522 1796h-368l-113 -316z" />
    <glyph glyph-name="Icircumflex" unicode="&#xce;" horiz-adv-x="550" 
d="M40 1444h470v-1444h-470v1444zM502 1540l-229 283l-228 -283v-59l229 171l228 -174v62z" />
    <glyph glyph-name="Idieresis" unicode="&#xcf;" horiz-adv-x="550" 
d="M40 1444h470v-1444h-470v1444zM123 1764c34 0 61.8311 -11.167 83.498 -33.5s32.5 -50.166 32.5 -83.499c-3.33301 -40.667 -16.166 -71.334 -38.499 -92.001s-50.166 -31 -83.499 -31c-32 0 -59 11 -81 33s-33 49.667 -33 83c0 37.333 11 67.333 33 90s51 34 87 34z
M434.998 1764c34 0 61.8311 -11.167 83.498 -33.5s32.5 -50.166 32.5 -83.499c-3.33301 -40.667 -16.166 -71.334 -38.499 -92.001s-50.166 -31 -83.499 -31c-32 0 -59 11 -81 33s-33 49.667 -33 83c0 37.333 11 67.333 33 90s51 34 87 34z" />
    <glyph glyph-name="Eth" unicode="&#xd0;" horiz-adv-x="1804" 
d="M212 0l0.00195312 541.998h-254v252h254v650h852c115.333 0 217 -15.333 305 -46s162.333 -72 223 -124s111.167 -122.333 151.5 -211s60.5 -204 60.5 -346c-7.33301 -131.333 -29.333 -243 -66 -335s-85.334 -164.667 -146.001 -218s-134.834 -94.666 -222.501 -123.999
s-197.5 -42.666 -329.5 -39.999h-828zM694.002 1086l-0.000976562 -289.998h280v-254h-280v-182h275c62 0 112 13.167 150 39.5s69 60 93 101s39.333 114.833 46 221.5c-2 97.333 -15.5 169.166 -40.5 215.499s-57.167 82.666 -96.5 108.999s-90.666 39.5 -153.999 39.5
h-273z" />
    <glyph glyph-name="Ntilde" unicode="&#xd1;" horiz-adv-x="1430" 
d="M60 0v1444h470l430 -540v540h470v-1444h-470l-430 540v-540h-470zM1036 1676c-98.667 -93.333 -206.333 -76.334 -323 50.999s-224 101 -322 -79l60 -47c56.667 111.333 141 106.333 253 -15s248 -104.666 408 50.001z" />
    <glyph glyph-name="Ograve" unicode="&#xd2;" horiz-adv-x="1677" 
d="M1668 714c0 -158 -33.0029 -292.667 -99.0029 -404s-161.5 -195 -286.5 -251s-274.167 -84 -447.5 -84s-322.166 28.167 -446.499 84.5s-218.5 139.666 -282.5 249.999s-96 245.166 -96 404.499c0 120.667 18.333 226.834 55 318.501s90.334 168.834 161.001 231.501
s157.334 110.167 260.001 142.5s219 48.5 349 48.5c172.667 0 321.667 -28.5 447 -85.5s221 -141 287 -252s99 -245.5 99 -403.5zM202.997 1796h462l176 -318zM522.997 710c0 -92.667 20.833 -173.332 62.5 -241.999s123.834 -103 246.501 -103c94.667 0 165.5 18 212.5 54
s76.333 77.167 88 123.5s19.5 102.166 23.5 167.499c-4 92.667 -26.333 173.5 -67 242.5s-126.334 103.5 -257.001 103.5c-206 0 -309 -115.333 -309 -346z" />
    <glyph glyph-name="Oacute" unicode="&#xd3;" horiz-adv-x="1677" 
d="M1668 714c0 -158 -33.0029 -292.667 -99.0029 -404s-161.5 -195 -286.5 -251s-274.167 -84 -447.5 -84s-322.166 28.167 -446.499 84.5s-218.5 139.666 -282.5 249.999s-96 245.166 -96 404.499c0 120.667 18.333 226.834 55 318.501s90.334 168.834 161.001 231.501
s157.334 110.167 260.001 142.5s219 48.5 349 48.5c172.667 0 321.667 -28.5 447 -85.5s221 -141 287 -252s99 -245.5 99 -403.5zM1311 1796h-462l-176 -318zM522.997 710c0 -92.667 20.833 -173.332 62.5 -241.999s123.834 -103 246.501 -103c94.667 0 165.5 18 212.5 54
s76.333 77.167 88 123.5s19.5 102.166 23.5 167.499c-4 92.667 -26.333 173.5 -67 242.5s-126.334 103.5 -257.001 103.5c-206 0 -309 -115.333 -309 -346z" />
    <glyph glyph-name="Ocircumflex" unicode="&#xd4;" horiz-adv-x="1677" 
d="M1668 714c0 -158 -33.0029 -292.667 -99.0029 -404s-161.5 -195 -286.5 -251s-274.167 -84 -447.5 -84s-322.166 28.167 -446.499 84.5s-218.5 139.666 -282.5 249.999s-96 245.166 -96 404.499c0 120.667 18.333 226.834 55 318.501s90.334 168.834 161.001 231.501
s157.334 110.167 260.001 142.5s219 48.5 349 48.5c172.667 0 321.667 -28.5 447 -85.5s221 -141 287 -252s99 -245.5 99 -403.5zM1114 1538l-290 300l-287 -300v-62l290 181l287 -185v66zM522.997 710c0 -92.667 20.833 -173.332 62.5 -241.999s123.834 -103 246.501 -103
c94.667 0 165.5 18 212.5 54s76.333 77.167 88 123.5s19.5 102.166 23.5 167.499c-4 92.667 -26.333 173.5 -67 242.5s-126.334 103.5 -257.001 103.5c-206 0 -309 -115.333 -309 -346z" />
    <glyph glyph-name="Otilde" unicode="&#xd5;" horiz-adv-x="1677" 
d="M1668 714c0 -158 -33.0029 -292.667 -99.0029 -404s-161.5 -195 -286.5 -251s-274.167 -84 -447.5 -84s-322.166 28.167 -446.499 84.5s-218.5 139.666 -282.5 249.999s-96 245.166 -96 404.499c0 120.667 18.333 226.834 55 318.501s90.334 168.834 161.001 231.501
s157.334 110.167 260.001 142.5s219 48.5 349 48.5c172.667 0 321.667 -28.5 447 -85.5s221 -141 287 -252s99 -245.5 99 -403.5zM1124 1680c-98.667 -93.333 -206.333 -76.334 -323 50.999s-224 101 -322 -79l60 -47c56.667 111.333 141 106.333 253 -15
s248 -104.666 408 50.001zM522.998 709.999c0 -92.667 20.833 -173.332 62.5 -241.999s123.834 -103 246.501 -103c94.667 0 165.5 18 212.5 54s76.333 77.167 88 123.5s19.5 102.166 23.5 167.499c-4 92.667 -26.333 173.5 -67 242.5s-126.334 103.5 -257.001 103.5
c-206 0 -309 -115.333 -309 -346z" />
    <glyph glyph-name="Odieresis" unicode="&#xd6;" horiz-adv-x="1677" 
d="M1668 714c0 -158 -33.0029 -292.667 -99.0029 -404s-161.5 -195 -286.5 -251s-274.167 -84 -447.5 -84s-322.166 28.167 -446.499 84.5s-218.5 139.666 -282.5 249.999s-96 245.166 -96 404.499c0 120.667 18.333 226.834 55 318.501s90.334 168.834 161.001 231.501
s157.334 110.167 260.001 142.5s219 48.5 349 48.5c172.667 0 321.667 -28.5 447 -85.5s221 -141 287 -252s99 -245.5 99 -403.5zM1123 1764c34 0 61.8311 -11.167 83.498 -33.5s32.5 -50.166 32.5 -83.499c-3.33301 -40.667 -16.166 -71.334 -38.499 -92.001
s-50.166 -31 -83.499 -31c-32 0 -59 11 -81 33s-33 49.667 -33 83c0 37.333 11 67.333 33 90s51 34 87 34zM562.995 1764c34 0 61.8311 -11.167 83.498 -33.5s32.5 -50.166 32.5 -83.499c-3.33301 -40.667 -16.166 -71.334 -38.499 -92.001s-50.166 -31 -83.499 -31
c-32 0 -59 11 -81 33s-33 49.667 -33 83c0 37.333 11 67.333 33 90s51 34 87 34zM522.993 710c0 -92.667 20.833 -173.332 62.5 -241.999s123.834 -103 246.501 -103c94.667 0 165.5 18 212.5 54s76.333 77.167 88 123.5s19.5 102.166 23.5 167.499
c-4 92.667 -26.333 173.5 -67 242.5s-126.334 103.5 -257.001 103.5c-206 0 -309 -115.333 -309 -346z" />
    <glyph glyph-name="Oslash" unicode="&#xd8;" horiz-adv-x="1677" 
d="M640 420c2.66699 -32 65.333 -49.334 188 -52.001c98.667 0 178 25.333 238 76s91.333 132.334 94 245.001v123zM1446 1274l109.997 87.999l112 -150l-88 -78c58.667 -122 88 -262 88 -420s-33 -292.667 -99 -404s-161.5 -195 -286.5 -251s-274.167 -84 -447.5 -84
s-358.333 49.667 -555 149l-168 -132l-110 148l134 108c-84 151.333 -126 306.666 -126 465.999c0 120.667 18.333 226.834 55 318.501s90.334 168.834 161.001 231.501s157.334 110.167 260.001 142.5s219 48.5 349 48.5c172.667 0 309.334 -23.833 410.001 -71.5
s167.667 -84.167 201 -109.5zM1056 971.998c0 50.667 -73.333 78.667 -220 84c-213.333 0 -315.333 -116.333 -306 -349c-4 -44.667 -2 -89.667 6 -135z" />
    <glyph glyph-name="Ugrave" unicode="&#xd9;" horiz-adv-x="1454" 
d="M480 1444l0.00292969 -853.998c-4 -97.333 14.667 -165 56 -203s106 -58.333 194 -61c70.667 1.33301 129.667 22 177 62s69.666 107.333 66.999 202v854h470v-847c-2 -120 -21.833 -215.833 -59.5 -287.5s-85.334 -131.5 -143.001 -179.5s-130 -85.333 -217 -112
s-183.833 -41.334 -290.5 -44.001c-88.667 2 -178.834 14.167 -270.501 36.5s-171.667 57.5 -240 105.5s-121 109.667 -158 185s-55.5 173.666 -55.5 294.999v848h470zM203.003 1796h462l176 -318z" />
    <glyph glyph-name="Uacute" unicode="&#xda;" horiz-adv-x="1454" 
d="M480 1444l0.00292969 -853.998c-4 -97.333 14.667 -165 56 -203s106 -58.333 194 -61c70.667 1.33301 129.667 22 177 62s69.666 107.333 66.999 202v854h470v-847c-2 -120 -21.833 -215.833 -59.5 -287.5s-85.334 -131.5 -143.001 -179.5s-130 -85.333 -217 -112
s-183.833 -41.334 -290.5 -44.001c-88.667 2 -178.834 14.167 -270.501 36.5s-171.667 57.5 -240 105.5s-121 109.667 -158 185s-55.5 173.666 -55.5 294.999v848h470zM1311 1796h-462l-176 -318z" />
    <glyph glyph-name="Ucircumflex" unicode="&#xdb;" horiz-adv-x="1454" 
d="M480 1444l0.00292969 -853.998c-4 -97.333 14.667 -165 56 -203s106 -58.333 194 -61c70.667 1.33301 129.667 22 177 62s69.666 107.333 66.999 202v854h470v-847c-2 -120 -21.833 -215.833 -59.5 -287.5s-85.334 -131.5 -143.001 -179.5s-130 -85.333 -217 -112
s-183.833 -41.334 -290.5 -44.001c-88.667 2 -178.834 14.167 -270.501 36.5s-171.667 57.5 -240 105.5s-121 109.667 -158 185s-55.5 173.666 -55.5 294.999v848h470zM1030 1538l-290 300l-287 -300v-62l290 181l287 -185v66z" />
    <glyph glyph-name="Udieresis" unicode="&#xdc;" horiz-adv-x="1454" 
d="M480 1444l0.00292969 -853.998c-4 -97.333 14.667 -165 56 -203s106 -58.333 194 -61c70.667 1.33301 129.667 22 177 62s69.666 107.333 66.999 202v854h470v-847c-2 -120 -21.833 -215.833 -59.5 -287.5s-85.334 -131.5 -143.001 -179.5s-130 -85.333 -217 -112
s-183.833 -41.334 -290.5 -44.001c-88.667 2 -178.834 14.167 -270.501 36.5s-171.667 57.5 -240 105.5s-121 109.667 -158 185s-55.5 173.666 -55.5 294.999v848h470zM947.003 1768c34 0 61.8311 -11.167 83.498 -33.5s32.5 -50.166 32.5 -83.499
c-3.33301 -40.667 -16.166 -71.334 -38.499 -92.001s-50.166 -31 -83.499 -31c-32 0 -59 11 -81 33s-33 49.667 -33 83c0 37.333 11 67.333 33 90s51 34 87 34zM499.001 1764c34 0 61.8311 -11.167 83.498 -33.5s32.5 -50.166 32.5 -83.499
c-3.33301 -40.667 -16.166 -71.334 -38.499 -92.001s-50.166 -31 -83.499 -31c-32 0 -59 11 -81 33s-33 49.667 -33 83c0 37.333 11 67.333 33 90s51 34 87 34z" />
    <glyph glyph-name="Yacute" unicode="&#xdd;" horiz-adv-x="1472" 
d="M1602 1444l-630 -914v-530h-472v530l-630 914h570l294 -446l298 446h570zM1259 1796h-462l-176 -318z" />
    <glyph glyph-name="Thorn" unicode="&#xde;" horiz-adv-x="1378" 
d="M510 272l-0.00292969 -272.002h-470v1444h470v-253c266.667 0.666992 435.834 -8.66602 507.501 -27.999s132.167 -45.666 181.5 -78.999s90.333 -78.166 123 -134.499s49 -129.833 49 -220.5c-5.33301 -84 -23 -155.333 -53 -214s-69.667 -105 -119 -139
s-109.666 -60.333 -180.999 -79s-160.666 -27.334 -267.999 -26.001zM509.997 907.998l-0.00292969 -378l222 -1c50 0 90.5 6.83301 121.5 20.5s56.333 31.334 76 53.001s32.167 60.5 37.5 116.5c-1.33301 50.667 -12.166 88.167 -32.499 112.5
s-46.666 43.166 -78.999 56.499s-74.166 20 -125.499 20h-220z" />
    <glyph glyph-name="germandbls" unicode="&#xdf;" horiz-adv-x="1628" 
d="M558 559l0.00488281 -855h-498v1740h985c158 -1.33301 278.167 -28.666 360.5 -81.999s132.166 -142.666 149.499 -267.999c6 -96 -14.333 -171.333 -61 -226s-123.667 -99.667 -231 -135v-4c52.667 -6.66699 101.334 -20.834 146.001 -42.501
s82.167 -47.334 112.5 -77.001s53.833 -63.167 70.5 -100.5s25 -74 25 -110c0 -114 -29.167 -200.333 -87.5 -259s-133.333 -97 -225 -115s-202.834 -26.333 -333.501 -25h-287v292h195c55.333 -2 103.666 10 144.999 36s62 58 62 96c4 42 -12.833 75 -50.5 99
s-89.834 36 -156.501 36l-235 1v316l264 -1c19.333 0 39.666 10.167 60.999 30.5s32.666 47.5 33.999 81.5c-2.66699 39.333 -15.5 67 -38.5 83s-42.167 24 -57.5 24h-349v-535z" />
    <glyph glyph-name="agrave" unicode="&#xe0;" 
d="M-80 0l475 1444h717l483 -1444h-546l-91 260h-429l-91 -260h-518zM755 1124l-207 -572h398zM203 1796h462l176 -318z" />
    <glyph glyph-name="aacute" unicode="&#xe1;" 
d="M1311 1796h-462l-176 -318zM-80 0l475 1444h717l483 -1444h-546l-91 260h-429l-91 -260h-518zM755 1124l-207 -572h398z" />
    <glyph glyph-name="acircumflex" unicode="&#xe2;" 
d="M-80 0l475 1444h717l483 -1444h-546l-91 260h-429l-91 -260h-518zM755 1124l-207 -572h398zM1030 1534l-279 283l-278 -283v-59l280 171l277 -174v62z" />
    <glyph glyph-name="atilde" unicode="&#xe3;" 
d="M-80 0l475 1444h717l483 -1444h-546l-91 260h-429l-91 -260h-518zM755 1124l-207 -572h398zM1052 1676c-98.667 -93.333 -206.333 -76.334 -323 50.999s-224 101 -322 -79l60 -47c56.667 111.333 141 106.333 253 -15s248 -104.666 408 50.001z" />
    <glyph glyph-name="adieresis" unicode="&#xe4;" 
d="M-80 0l475 1444h717l483 -1444h-546l-91 260h-429l-91 -260h-518zM755 1124l-207 -572h398zM563 1764c34 0 61.8311 -11.167 83.498 -33.5s32.5 -50.166 32.5 -83.499c-3.33301 -40.667 -16.166 -71.334 -38.499 -92.001s-50.166 -31 -83.499 -31c-32 0 -59 11 -81 33
s-33 49.667 -33 83c0 37.333 11 67.333 33 90s51 34 87 34zM940.998 1764c34 0 61.8311 -11.167 83.498 -33.5s32.5 -50.166 32.5 -83.499c-3.33301 -40.667 -16.166 -71.334 -38.499 -92.001s-50.166 -31 -83.499 -31c-32 0 -59 11 -81 33s-33 49.667 -33 83
c0 37.333 11 67.333 33 90s51 34 87 34z" />
    <glyph glyph-name="aring" unicode="&#xe5;" 
d="M-80 0l475 1444h717l483 -1444h-546l-91 260h-429l-91 -260h-518zM755 1124l-207 -572h398zM754 1844c55.333 0 101.168 -18.333 137.501 -55s54.5 -82 54.5 -136c0 -54.667 -19.833 -101.5 -59.5 -140.5s-86.834 -58.5 -141.501 -58.5
c-52.667 0 -97.167 17.667 -133.5 53s-54.5 80.333 -54.5 135c0 60.667 18.333 109.5 55 146.5s84 55.5 142 55.5zM753.002 1768c-36 0 -64.998 -11.333 -86.998 -34s-33 -52.667 -33 -90c0 -33.333 11 -61 33 -83s49 -33 81 -33c33.333 0 61.166 10.333 83.499 31
s35.166 51.334 38.499 92.001c0 33.333 -10.833 61.166 -32.5 83.499s-49.5 33.5 -83.5 33.5z" />
    <glyph glyph-name="ae" unicode="&#xe6;" horiz-adv-x="2062" 
d="M756 1122l-208 -570h208v570zM756 0v260h-227l-91 -260h-518l475 1444h1605v-430h-768v-166h496v-252h-496v-166h890v-430h-1366z" />
    <glyph glyph-name="ccedilla" unicode="&#xe7;" horiz-adv-x="1484" 
d="M752 4c-95.333 -2.66699 -206.331 23.834 -332.998 79.501s-226.5 139.167 -299.5 250.5s-109.5 247.666 -109.5 408.999c0 113.333 21.833 214.5 65.5 303.5s104.167 163 181.5 222s166.166 103 266.499 132s207.166 43.5 320.499 43.5h396h244v-430h-452
c-101.333 0 -176.333 -3 -225 -9s-92 -16 -130 -30s-71.667 -38.333 -101 -73s-46.333 -96 -51 -184c3.33301 -85.333 20.333 -146.333 51 -183s68 -61 112 -73s89.333 -20.333 136 -25s116 -7 208 -7h452v-430h-526v-112c71.333 -13.333 124.333 -36 159 -68
s52 -70.667 52 -116c0 -61.333 -33.833 -114.833 -101.5 -160.5s-154.834 -68.5 -261.501 -68.5c-42 0 -95 2.66699 -159 8l15 87c28 -8 61.333 -12.667 100 -14c66.667 0 111.834 10.333 135.501 31s35.5 49 35.5 85c0 25.333 -13 47.333 -39 66s-58.333 28 -97 28
c-11.333 0 -26 -1 -44 -3z" />
    <glyph glyph-name="egrave" unicode="&#xe8;" horiz-adv-x="1360" 
d="M60 0v1444h1238v-430h-768v-166h496v-252h-496v-166h890v-430h-1360zM203 1796h462l176 -318z" />
    <glyph glyph-name="eacute" unicode="&#xe9;" horiz-adv-x="1360" 
d="M60 0v1444h1238v-430h-768v-166h496v-252h-496v-166h890v-430h-1360zM1311 1796h-462l-176 -318z" />
    <glyph glyph-name="ecircumflex" unicode="&#xea;" horiz-adv-x="1360" 
d="M60 0v1444h1238v-430h-768v-166h496v-252h-496v-166h890v-430h-1360zM1030 1534l-279 283l-278 -283v-59l280 171l277 -174v62z" />
    <glyph glyph-name="edieresis" unicode="&#xeb;" horiz-adv-x="1360" 
d="M60 0v1444h1238v-430h-768v-166h496v-252h-496v-166h890v-430h-1360zM563 1764c34 0 61.8311 -11.167 83.498 -33.5s32.5 -50.166 32.5 -83.499c-3.33301 -40.667 -16.166 -71.334 -38.499 -92.001s-50.166 -31 -83.499 -31c-32 0 -59 11 -81 33s-33 49.667 -33 83
c0 37.333 11 67.333 33 90s51 34 87 34zM940.998 1764c34 0 61.8311 -11.167 83.498 -33.5s32.5 -50.166 32.5 -83.499c-3.33301 -40.667 -16.166 -71.334 -38.499 -92.001s-50.166 -31 -83.499 -31c-32 0 -59 11 -81 33s-33 49.667 -33 83c0 37.333 11 67.333 33 90
s51 34 87 34z" />
    <glyph glyph-name="igrave" unicode="&#xec;" horiz-adv-x="550" 
d="M40 1444h470v-1444h-470v1444zM26 1796h371l113 -316z" />
    <glyph glyph-name="iacute" unicode="&#xed;" horiz-adv-x="550" 
d="M508 1444h-467v-1444h467v1444zM522 1796h-368l-113 -316z" />
    <glyph glyph-name="icircumflex" unicode="&#xee;" horiz-adv-x="550" 
d="M40 1444h470v-1444h-470v1444zM502 1540l-229 283l-228 -283v-59l229 171l228 -174v62z" />
    <glyph glyph-name="idieresis" unicode="&#xef;" horiz-adv-x="550" 
d="M40 1444h470v-1444h-470v1444zM123 1764c34 0 61.8311 -11.167 83.498 -33.5s32.5 -50.166 32.5 -83.499c-3.33301 -40.667 -16.166 -71.334 -38.499 -92.001s-50.166 -31 -83.499 -31c-32 0 -59 11 -81 33s-33 49.667 -33 83c0 37.333 11 67.333 33 90s51 34 87 34z
M434.998 1764c34 0 61.8311 -11.167 83.498 -33.5s32.5 -50.166 32.5 -83.499c-3.33301 -40.667 -16.166 -71.334 -38.499 -92.001s-50.166 -31 -83.499 -31c-32 0 -59 11 -81 33s-33 49.667 -33 83c0 37.333 11 67.333 33 90s51 34 87 34z" />
    <glyph glyph-name="eth" unicode="&#xf0;" horiz-adv-x="1804" 
d="M212 0l0.00195312 541.998h-254v252h254v650h852c115.333 0 217 -15.333 305 -46s162.333 -72 223 -124s111.167 -122.333 151.5 -211s60.5 -204 60.5 -346c-7.33301 -131.333 -29.333 -243 -66 -335s-85.334 -164.667 -146.001 -218s-134.834 -94.666 -222.501 -123.999
s-197.5 -42.666 -329.5 -39.999h-828zM694.002 1086l-0.000976562 -289.998h280v-254h-280v-182h275c62 0 112 13.167 150 39.5s69 60 93 101s39.333 114.833 46 221.5c-2 97.333 -15.5 169.166 -40.5 215.499s-57.167 82.666 -96.5 108.999s-90.666 39.5 -153.999 39.5
h-273z" />
    <glyph glyph-name="ntilde" unicode="&#xf1;" horiz-adv-x="1430" 
d="M60 0v1444h470l430 -540v540h470v-1444h-470l-430 540v-540h-470zM1036 1676c-98.667 -93.333 -206.333 -76.334 -323 50.999s-224 101 -322 -79l60 -47c56.667 111.333 141 106.333 253 -15s248 -104.666 408 50.001z" />
    <glyph glyph-name="ograve" unicode="&#xf2;" horiz-adv-x="1677" 
d="M1668 714c0 -158 -33.0029 -292.667 -99.0029 -404s-161.5 -195 -286.5 -251s-274.167 -84 -447.5 -84s-322.166 28.167 -446.499 84.5s-218.5 139.666 -282.5 249.999s-96 245.166 -96 404.499c0 120.667 18.333 226.834 55 318.501s90.334 168.834 161.001 231.501
s157.334 110.167 260.001 142.5s219 48.5 349 48.5c172.667 0 321.667 -28.5 447 -85.5s221 -141 287 -252s99 -245.5 99 -403.5zM202.997 1796h462l176 -318zM522.997 710c0 -92.667 20.833 -173.332 62.5 -241.999s123.834 -103 246.501 -103c94.667 0 165.5 18 212.5 54
s76.333 77.167 88 123.5s19.5 102.166 23.5 167.499c-4 92.667 -26.333 173.5 -67 242.5s-126.334 103.5 -257.001 103.5c-206 0 -309 -115.333 -309 -346z" />
    <glyph glyph-name="oacute" unicode="&#xf3;" horiz-adv-x="1677" 
d="M1668 714c0 -158 -33.0029 -292.667 -99.0029 -404s-161.5 -195 -286.5 -251s-274.167 -84 -447.5 -84s-322.166 28.167 -446.499 84.5s-218.5 139.666 -282.5 249.999s-96 245.166 -96 404.499c0 120.667 18.333 226.834 55 318.501s90.334 168.834 161.001 231.501
s157.334 110.167 260.001 142.5s219 48.5 349 48.5c172.667 0 321.667 -28.5 447 -85.5s221 -141 287 -252s99 -245.5 99 -403.5zM1311 1796h-462l-176 -318zM522.997 710c0 -92.667 20.833 -173.332 62.5 -241.999s123.834 -103 246.501 -103c94.667 0 165.5 18 212.5 54
s76.333 77.167 88 123.5s19.5 102.166 23.5 167.499c-4 92.667 -26.333 173.5 -67 242.5s-126.334 103.5 -257.001 103.5c-206 0 -309 -115.333 -309 -346z" />
    <glyph glyph-name="ocircumflex" unicode="&#xf4;" horiz-adv-x="1677" 
d="M1668 714c0 -158 -33.0029 -292.667 -99.0029 -404s-161.5 -195 -286.5 -251s-274.167 -84 -447.5 -84s-322.166 28.167 -446.499 84.5s-218.5 139.666 -282.5 249.999s-96 245.166 -96 404.499c0 120.667 18.333 226.834 55 318.501s90.334 168.834 161.001 231.501
s157.334 110.167 260.001 142.5s219 48.5 349 48.5c172.667 0 321.667 -28.5 447 -85.5s221 -141 287 -252s99 -245.5 99 -403.5zM1114 1538l-290 300l-287 -300v-62l290 181l287 -185v66zM522.997 710c0 -92.667 20.833 -173.332 62.5 -241.999s123.834 -103 246.501 -103
c94.667 0 165.5 18 212.5 54s76.333 77.167 88 123.5s19.5 102.166 23.5 167.499c-4 92.667 -26.333 173.5 -67 242.5s-126.334 103.5 -257.001 103.5c-206 0 -309 -115.333 -309 -346z" />
    <glyph glyph-name="otilde" unicode="&#xf5;" horiz-adv-x="1677" 
d="M1668 714c0 -158 -33.0029 -292.667 -99.0029 -404s-161.5 -195 -286.5 -251s-274.167 -84 -447.5 -84s-322.166 28.167 -446.499 84.5s-218.5 139.666 -282.5 249.999s-96 245.166 -96 404.499c0 120.667 18.333 226.834 55 318.501s90.334 168.834 161.001 231.501
s157.334 110.167 260.001 142.5s219 48.5 349 48.5c172.667 0 321.667 -28.5 447 -85.5s221 -141 287 -252s99 -245.5 99 -403.5zM1124 1680c-98.667 -93.333 -206.333 -76.334 -323 50.999s-224 101 -322 -79l60 -47c56.667 111.333 141 106.333 253 -15
s248 -104.666 408 50.001zM522.998 709.999c0 -92.667 20.833 -173.332 62.5 -241.999s123.834 -103 246.501 -103c94.667 0 165.5 18 212.5 54s76.333 77.167 88 123.5s19.5 102.166 23.5 167.499c-4 92.667 -26.333 173.5 -67 242.5s-126.334 103.5 -257.001 103.5
c-206 0 -309 -115.333 -309 -346z" />
    <glyph glyph-name="odieresis" unicode="&#xf6;" horiz-adv-x="1677" 
d="M1668 714c0 -158 -33.0029 -292.667 -99.0029 -404s-161.5 -195 -286.5 -251s-274.167 -84 -447.5 -84s-322.166 28.167 -446.499 84.5s-218.5 139.666 -282.5 249.999s-96 245.166 -96 404.499c0 120.667 18.333 226.834 55 318.501s90.334 168.834 161.001 231.501
s157.334 110.167 260.001 142.5s219 48.5 349 48.5c172.667 0 321.667 -28.5 447 -85.5s221 -141 287 -252s99 -245.5 99 -403.5zM1123 1764c34 0 61.8311 -11.167 83.498 -33.5s32.5 -50.166 32.5 -83.499c-3.33301 -40.667 -16.166 -71.334 -38.499 -92.001
s-50.166 -31 -83.499 -31c-32 0 -59 11 -81 33s-33 49.667 -33 83c0 37.333 11 67.333 33 90s51 34 87 34zM562.995 1764c34 0 61.8311 -11.167 83.498 -33.5s32.5 -50.166 32.5 -83.499c-3.33301 -40.667 -16.166 -71.334 -38.499 -92.001s-50.166 -31 -83.499 -31
c-32 0 -59 11 -81 33s-33 49.667 -33 83c0 37.333 11 67.333 33 90s51 34 87 34zM522.993 710c0 -92.667 20.833 -173.332 62.5 -241.999s123.834 -103 246.501 -103c94.667 0 165.5 18 212.5 54s76.333 77.167 88 123.5s19.5 102.166 23.5 167.499
c-4 92.667 -26.333 173.5 -67 242.5s-126.334 103.5 -257.001 103.5c-206 0 -309 -115.333 -309 -346z" />
    <glyph glyph-name="oslash" unicode="&#xf8;" horiz-adv-x="1677" 
d="M640 420c2.66699 -32 65.333 -49.334 188 -52.001c98.667 0 178 25.333 238 76s91.333 132.334 94 245.001v123zM1446 1274l109.997 87.999l112 -150l-88 -78c58.667 -122 88 -262 88 -420s-33 -292.667 -99 -404s-161.5 -195 -286.5 -251s-274.167 -84 -447.5 -84
s-358.333 49.667 -555 149l-168 -132l-110 148l134 108c-84 151.333 -126 306.666 -126 465.999c0 120.667 18.333 226.834 55 318.501s90.334 168.834 161.001 231.501s157.334 110.167 260.001 142.5s219 48.5 349 48.5c172.667 0 309.334 -23.833 410.001 -71.5
s167.667 -84.167 201 -109.5zM1056 971.998c0 50.667 -73.333 78.667 -220 84c-213.333 0 -315.333 -116.333 -306 -349c-4 -44.667 -2 -89.667 6 -135z" />
    <glyph glyph-name="ugrave" unicode="&#xf9;" horiz-adv-x="1454" 
d="M480 1444l0.00292969 -853.998c-4 -97.333 14.667 -165 56 -203s106 -58.333 194 -61c70.667 1.33301 129.667 22 177 62s69.666 107.333 66.999 202v854h470v-847c-2 -120 -21.833 -215.833 -59.5 -287.5s-85.334 -131.5 -143.001 -179.5s-130 -85.333 -217 -112
s-183.833 -41.334 -290.5 -44.001c-88.667 2 -178.834 14.167 -270.501 36.5s-171.667 57.5 -240 105.5s-121 109.667 -158 185s-55.5 173.666 -55.5 294.999v848h470zM203.003 1796h462l176 -318z" />
    <glyph glyph-name="uacute" unicode="&#xfa;" horiz-adv-x="1454" 
d="M480 1444l0.00292969 -853.998c-4 -97.333 14.667 -165 56 -203s106 -58.333 194 -61c70.667 1.33301 129.667 22 177 62s69.666 107.333 66.999 202v854h470v-847c-2 -120 -21.833 -215.833 -59.5 -287.5s-85.334 -131.5 -143.001 -179.5s-130 -85.333 -217 -112
s-183.833 -41.334 -290.5 -44.001c-88.667 2 -178.834 14.167 -270.501 36.5s-171.667 57.5 -240 105.5s-121 109.667 -158 185s-55.5 173.666 -55.5 294.999v848h470zM1311 1796h-462l-176 -318z" />
    <glyph glyph-name="ucircumflex" unicode="&#xfb;" horiz-adv-x="1454" 
d="M480 1444l0.00292969 -853.998c-4 -97.333 14.667 -165 56 -203s106 -58.333 194 -61c70.667 1.33301 129.667 22 177 62s69.666 107.333 66.999 202v854h470v-847c-2 -120 -21.833 -215.833 -59.5 -287.5s-85.334 -131.5 -143.001 -179.5s-130 -85.333 -217 -112
s-183.833 -41.334 -290.5 -44.001c-88.667 2 -178.834 14.167 -270.501 36.5s-171.667 57.5 -240 105.5s-121 109.667 -158 185s-55.5 173.666 -55.5 294.999v848h470zM1030 1538l-290 300l-287 -300v-62l290 181l287 -185v66z" />
    <glyph glyph-name="udieresis" unicode="&#xfc;" horiz-adv-x="1454" 
d="M480 1444l0.00292969 -853.998c-4 -97.333 14.667 -165 56 -203s106 -58.333 194 -61c70.667 1.33301 129.667 22 177 62s69.666 107.333 66.999 202v854h470v-847c-2 -120 -21.833 -215.833 -59.5 -287.5s-85.334 -131.5 -143.001 -179.5s-130 -85.333 -217 -112
s-183.833 -41.334 -290.5 -44.001c-88.667 2 -178.834 14.167 -270.501 36.5s-171.667 57.5 -240 105.5s-121 109.667 -158 185s-55.5 173.666 -55.5 294.999v848h470zM947.003 1768c34 0 61.8311 -11.167 83.498 -33.5s32.5 -50.166 32.5 -83.499
c-3.33301 -40.667 -16.166 -71.334 -38.499 -92.001s-50.166 -31 -83.499 -31c-32 0 -59 11 -81 33s-33 49.667 -33 83c0 37.333 11 67.333 33 90s51 34 87 34zM499.001 1764c34 0 61.8311 -11.167 83.498 -33.5s32.5 -50.166 32.5 -83.499
c-3.33301 -40.667 -16.166 -71.334 -38.499 -92.001s-50.166 -31 -83.499 -31c-32 0 -59 11 -81 33s-33 49.667 -33 83c0 37.333 11 67.333 33 90s51 34 87 34z" />
    <glyph glyph-name="yacute" unicode="&#xfd;" horiz-adv-x="1472" 
d="M1602 1444l-630 -914v-530h-472v530l-630 914h570l294 -446l298 446h570zM1259 1796h-462l-176 -318z" />
    <glyph glyph-name="thorn" unicode="&#xfe;" horiz-adv-x="1378" 
d="M510 272l-0.00292969 -272.002h-470v1444h470v-253c266.667 0.666992 435.834 -8.66602 507.501 -27.999s132.167 -45.666 181.5 -78.999s90.333 -78.166 123 -134.499s49 -129.833 49 -220.5c-5.33301 -84 -23 -155.333 -53 -214s-69.667 -105 -119 -139
s-109.666 -60.333 -180.999 -79s-160.666 -27.334 -267.999 -26.001zM509.997 907.998l-0.00292969 -378l222 -1c50 0 90.5 6.83301 121.5 20.5s56.333 31.334 76 53.001s32.167 60.5 37.5 116.5c-1.33301 50.667 -12.166 88.167 -32.499 112.5
s-46.666 43.166 -78.999 56.499s-74.166 20 -125.499 20h-220z" />
    <glyph glyph-name="ydieresis" unicode="&#xff;" horiz-adv-x="1472" 
d="M1602 1444l-630 -914v-530h-472v530l-630 914h570l294 -446l298 446h570zM499 1764c34 0 61.8311 -11.167 83.498 -33.5s32.5 -50.166 32.5 -83.499c-3.33301 -40.667 -16.166 -71.334 -38.499 -92.001s-50.166 -31 -83.499 -31c-32 0 -59 11 -81 33s-33 49.667 -33 83
c0 37.333 11 67.333 33 90s51 34 87 34zM946.998 1768c34 0 61.8311 -11.167 83.498 -33.5s32.5 -50.166 32.5 -83.499c-3.33301 -40.667 -16.166 -71.334 -38.499 -92.001s-50.166 -31 -83.499 -31c-32 0 -59 11 -81 33s-33 49.667 -33 83c0 37.333 11 67.333 33 90
s51 34 87 34z" />
    <glyph glyph-name="OE" unicode="&#x152;" horiz-adv-x="2062" 
d="M756 0c-117.333 -5.33301 -237.333 23.332 -360 85.999s-216 144 -280 244s-94.667 228.667 -92 386c-5.33301 120 12 223.333 52 310s94.667 161.334 164 224.001s153.333 110 252 142s212 49.333 340 52h1168v-430h-768v-166h496v-252h-496v-166h890v-430h-1366z
M523 709.998c0 -92.667 20.832 -173.333 62.499 -242s123.834 -103 246.501 -103v691c-206 0 -309 -115.333 -309 -346z" />
    <glyph glyph-name="oe" unicode="&#x153;" horiz-adv-x="2062" 
d="M756 0c-117.333 -5.33301 -237.333 23.332 -360 85.999s-216 144 -280 244s-94.667 228.667 -92 386c-5.33301 120 12 223.333 52 310s94.667 161.334 164 224.001s153.333 110 252 142s212 49.333 340 52h1168v-430h-768v-166h496v-252h-496v-166h890v-430h-1366z
M523 709.998c0 -92.667 20.832 -173.333 62.499 -242s123.834 -103 246.501 -103v691c-206 0 -309 -115.333 -309 -346z" />
    <glyph glyph-name="Scaron" unicode="&#x160;" horiz-adv-x="1135" 
d="M1196 1444h-787.999c-184 0 -293.333 -89.333 -328 -268s64 -374.667 296 -588c140.667 -110.667 116.667 -163.334 -72 -158.001h-304v-430h768c208 34.667 314 141.334 318 320.001s-102 362.667 -318 552c-120.667 100 -95.334 147.333 75.999 142h352v430z
M922.001 1824l-290 -366l-287 366v76l290 -221l287 225v-80z" />
    <glyph glyph-name="scaron" unicode="&#x161;" horiz-adv-x="1135" 
d="M1196 1444h-787.999c-184 0 -293.333 -89.333 -328 -268s64 -374.667 296 -588c140.667 -110.667 116.667 -163.334 -72 -158.001h-304v-430h768c208 34.667 314 141.334 318 320.001s-102 362.667 -318 552c-120.667 100 -95.334 147.333 75.999 142h352v430z
M922.001 1824l-290 -366l-287 366v76l290 -221l287 225v-80z" />
    <glyph glyph-name="Ydieresis" unicode="&#x178;" horiz-adv-x="1472" 
d="M1602 1444l-630 -914v-530h-472v530l-630 914h570l294 -446l298 446h570zM499 1764c34 0 61.8311 -11.167 83.498 -33.5s32.5 -50.166 32.5 -83.499c-3.33301 -40.667 -16.166 -71.334 -38.499 -92.001s-50.166 -31 -83.499 -31c-32 0 -59 11 -81 33s-33 49.667 -33 83
c0 37.333 11 67.333 33 90s51 34 87 34zM946.998 1768c34 0 61.8311 -11.167 83.498 -33.5s32.5 -50.166 32.5 -83.499c-3.33301 -40.667 -16.166 -71.334 -38.499 -92.001s-50.166 -31 -83.499 -31c-32 0 -59 11 -81 33s-33 49.667 -33 83c0 37.333 11 67.333 33 90
s51 34 87 34z" />
    <glyph glyph-name="Zcaron" unicode="&#x17d;" horiz-adv-x="1400" 
d="M40 1444h1320v-430l-699 -584h699v-430h-1320v430l699 584h-699v430zM922 1824l-290 -366l-287 366v76l290 -221l287 225v-80z" />
    <glyph glyph-name="zcaron" unicode="&#x17e;" horiz-adv-x="1400" 
d="M40 1444h1320v-430l-699 -584h699v-430h-1320v430l699 584h-699v430zM922 1824l-290 -366l-287 366v76l290 -221l287 225v-80z" />
    <glyph glyph-name="quoteleft" unicode="&#x2018;" horiz-adv-x="647" 
d="M476 814l-306 314v316h307z" />
    <glyph glyph-name="quoteright" unicode="&#x2019;" horiz-adv-x="647" 
d="M170 813v631h307v-315z" />
    <glyph glyph-name="quotedblleft" unicode="&#x201c;" horiz-adv-x="1139" 
d="M504 814l-307 314v316h307v-630zM942 814l-307 314v316h307v-630z" />
    <glyph glyph-name="quotedblright" unicode="&#x201d;" horiz-adv-x="1139" 
d="M197 813v631h307v-315zM635 813v631h307v-315z" />
    <glyph glyph-name="quotedblbase" unicode="&#x201e;" horiz-adv-x="1649" 
d="M1183 478l-193.997 -0.00292969v254h660v-732h-348v118c-22.667 -32 -53.334 -58.333 -92.001 -79s-89 -36.5 -151 -47.5s-126 -16.5 -192 -16.5c-116.667 -2 -226.334 13.667 -329.001 47s-193.334 82 -272.001 146s-140.834 134.167 -186.501 210.5
s-68.5 197.833 -68.5 364.5c0 117.333 22.5 221.833 67.5 313.5s107.167 168 186.5 229s170.5 106.667 273.5 137s212.5 45.5 328.5 45.5c102 -2.66699 207 -21.334 315 -56.001s192 -82 252 -142s104 -124 132 -192s46.667 -119.333 56 -154h-436
c-49.333 82.667 -96.666 133.334 -141.999 152.001s-94.666 28 -147.999 28s-102.666 -8.66699 -147.999 -26s-81.333 -40.666 -108 -69.999s-50.667 -64.666 -72 -105.999s-33.333 -103.333 -36 -186c0 -88 16.667 -157.333 50 -208s70.666 -88 111.999 -112
s95.666 -39.333 162.999 -46s127.333 -1.66699 180 15s101.667 54.334 147 113.001z" />
    <glyph glyph-name="dagger" unicode="&#x2020;" horiz-adv-x="1650" 
d="M1144 528l497 0.000976562c-4 -32 -45.333 -104 -124 -216s-171.334 -195.333 -278.001 -250s-231 -83.667 -373 -87c-160.667 0 -306 28.667 -436 86s-232.5 143.666 -307.5 258.999s-112.5 256.333 -112.5 423c0 117.333 22.5 221.833 67.5 313.5
s107.167 168 186.5 229s170.5 106.667 273.5 137s212.5 45.5 328.5 45.5c104.667 0 202.334 -14.667 293.001 -44s172 -76 244 -140s128.667 -139.333 170 -226s64 -146 68 -178h-497c-10.667 66.667 -31 115 -61 145s-56.167 50 -78.5 60s-57.5 15 -105.5 15
s-96.667 -8 -146 -24s-87.333 -38.667 -114 -68s-48 -62 -64 -98s-28 -100.667 -36 -194c8 -93.333 29.333 -165.333 64 -216s77.334 -88 128.001 -112s100.667 -37.333 150 -40s86.5 0 111.5 8s54.167 24.333 87.5 49s54.666 65.667 63.999 123z" />
    <glyph glyph-name=".null" horiz-adv-x="0" 
 />
    <glyph glyph-name="nonmarkingreturn" horiz-adv-x="0" 
 />
    <glyph glyph-name="glyph98" horiz-adv-x="2059" 
d="M181 992v-23l117 5c7.33301 12 -10.334 27.667 -53.001 47c-27.333 0 -48.666 -9.66699 -63.999 -29zM286 1266v-6h12v6h-12zM298 1260v-11l17 -12l12 12l-6 17zM286 776h47l23 -23c0 -50.667 -9.66699 -76 -29 -76c-42.667 -8 -68 7.66699 -76 47
c4 26.667 15.667 44 35 52zM181 1079c54.667 12 109 -1.33203 163 -39.999l41 -94l-6 -23l-181 -18h-75l-6 12c-12 93.333 9.33301 147.666 64 162.999zM373 1529l53 -47h6l-12 41l-17 12zM239 1324l187 -5l12 -6c-4 -16 -0.333008 -25.667 11 -29v-30h-58l-18 -52l30 -53
l-35 -17c-20 -4 -31.667 0 -35 12l-170 163zM455 1465v-6h6v6h-6zM379 1605l59 -18l40 -64l88 -12l12 -29v-41l-117 18v-12l70 -41l-23 -47l-41 12l-76 64c-23.333 8 -56.333 33.333 -99 76c27.333 54.667 56.333 86 87 94zM461 595.001
c50.667 15.333 93.333 -0.333984 128 -47.001l-41 -52h-23c-8 15.333 -25.333 23 -52 23c-20 -15.333 -33.667 -32.666 -41 -51.999c4 -42.667 9.66699 -64 17 -64l-46 -41c-23.333 -4 -37 25 -41 87c23.333 89.333 56.333 138 99 146zM612.999 309.001v-28.999
c11.333 0 15 -5.66699 11 -17c35.333 0 64.666 29 87.999 87c4 23.333 -2 41 -18 53c-11.333 3.33301 -30.666 -10.334 -57.999 -41.001zM670.999 461.002c19.333 4 46.667 -1.99902 82 -17.999l23 -29v-81c-27.333 -74 -70 -119 -128 -135c-58.667 8 -92 31.333 -100 70
c0 97.333 41 161.666 123 192.999zM554 1762l35 -6.00098l24 -46l17 -12l-6 105l65 -23l5 -94c50.667 -15.333 80 -32.666 88 -51.999l-6 -64l-87 46h-12l6 -23h11l24 -53l-41 -29l-64 76l-82 134v24zM764 1214v-30l35 88l12 6v17l-23 -23zM811 1307v-12l12 6v12zM823 1319
v-6h6v6h-6zM829 1324v-5h5v5h-5zM834 1336v-6h6v6h-6zM840 1342v-6h6v6h-6zM939 1254v-17h12l-6 17h-6zM951 1237v-12h12l-6 12h-6zM963 1225v-11h11l-5 11h-6zM974 1214v-6h12v6h-12zM928 1791c27.333 0 46.666 -9.66602 57.999 -28.999c12 -34.667 -1.66699 -60 -41 -76
c-38.667 4 -60 15.667 -64 35c-15.333 23.333 0.333984 46.666 47.001 69.999zM986 1208v-6h6v6h-6zM998 1202l11 -18h12l-17 18h-6zM1021 1184v-11h23l-5 11h-18zM893 403.003c27.333 -43.333 39 -78.333 35 -105l23 -18l47 99c15.333 4 23 -1.66699 23 -17
c23.333 -97.333 31 -148 23 -152l12 -23v-53l-35 -17l-23 6l-18 105l-52 -88l-47 88l-29 -100l-53 30l35 110l12 12c-4 15.333 7.66699 46.333 35 93v24zM747 1068l17 -140.001h12l23 -88l47 -93l152 -6l70 6l-105 12l-82 -6c-23.333 -4 -56.333 54.333 -99 175
c-15.333 42.667 -23 87.334 -23 134.001l5 122l-11 -17l-6 -70c8 -8 8 -17.667 0 -29zM1068 1190v-6h11v6h-11zM811 601.002l327 -6l-12 -29l-309 6l-12 17zM823 648.002h291l24 -18v-17l-333 5c4 20 10 30 18 30zM834 560.002l280.001 -6l24 -17l11 -47l12 -12l-6 -11
l-367 11c23.333 58.667 38.666 86 45.999 82zM1132 1307l17 -23l12 5l-12 18h-17zM1138 397.002h35l52 -234v-23l-46 -12c-16 12 -37.667 86 -65 222c-7.33301 31.333 0.666992 47 24 47zM1138 1855l46.001 -5l12 -12c-11.333 -23.333 -17 -52.666 -17 -87.999l29 -5h23
l18 87l52 -6l6 -11l-58 -251l-59 11c4 46.667 10 70 18 70c11.333 27.333 -0.333984 41 -35.001 41l-18 -6l-17 -87l-59 6c12 93.333 31.667 178.666 59 255.999zM1289 1103v-18l24 12v6h-24zM998.002 1564l45.999 -12l47 -47l23 -46l-5 -24c30.667 8 48 -15.333 52 -70h12
l128 -175l53 -105c7.33301 -15.333 -10.334 -36.666 -53.001 -63.999h-17c-23.333 27.333 -43 39 -59 35l29 -64c-15.333 -19.333 -32.666 -31 -51.999 -35l-47 41c0 66 -17.333 108.667 -52 128l-47 23l-35 6l-23 -35v-99l58 -70l93 -47l12 -11l12 -82
c-16 -97.333 -33.667 -150 -53 -158l-303 6c-58.667 82 -95.667 202.667 -111 362v123l35 128l35 64l70 76c42.667 35.333 95.334 62.666 158.001 81.999zM1330 473.002c19.333 11.333 39.001 -2.33398 59.001 -41.001l-35 -47c-8 -31.333 9.33301 -56.666 52 -75.999l59 6
l23 -29l-6 -41c-101.333 -11.333 -169.333 23.667 -204 105v64c15.333 27.333 32.666 47 51.999 59zM1418 1570v-41l12 -6l46 12l47 64v41l-12 5c-27.333 8 -58.333 -17 -93 -75zM1465 1710c66 11.333 108.667 -8.33105 128 -58.998
c8 -38.667 -7.66699 -83.334 -47 -134.001c-38.667 -42.667 -71.667 -64 -99 -64c-58.667 4 -91.667 31.333 -99 82c7.33301 81.333 46.333 139.666 117 174.999zM1488 607.005l35 -6c0 -12 7.66699 -18 23 -18l-17 -52l76 -6l35 -23l23 -76l-23 -64
c-12 -4 -31.667 7.66699 -59 35l18 46l-29 12c-58.667 -8 -93.667 17.333 -105 76zM1651 1383v-6h35l29 23v18zM1710 753.005c42.667 -12 59.999 -25.668 51.999 -41.001c8 -15.333 -1.66699 -36.666 -29 -63.999c-35.333 -12 -60.666 -0.333008 -75.999 35
c0 46.667 17.667 70 53 70zM1721 1500l47 -53l12 -35c11.333 -54.667 -25.667 -84 -111 -88l-35 -75l-70 5l6 30l58 75v6l-82 -52l-35 29c-4 19.333 0 31 12 35zM1651 1173l24 -0.000976562v-18l17 -17h18l35 58c66 31.333 114.333 14 145 -52
c0 -20 -15.333 -31.667 -46 -35l-41 35l-41 -59c-70 -27.333 -122.333 -7.66602 -157 59.001zM1640 969.003h58l198 -30l-6 -99l-52 6l-6 -6l-6 47l-35 12l-6 -35l-46 -6l-18 6v40h-35l-6 -46l-64 11l12 94zM53.001 1062v-152l11 -17v-59l12 -11l12 -82l11 -6v-29l82 -181
l117 -152l58 -58l128 -99c144 -85.333 295.667 -136 455 -152l199 6c66 12 147.667 33.333 245 64v12l64 17l123 76l163 146l117 163c66 148 102.667 274.667 110 380c12 140 -9.33301 282 -64 426l-99 181c-186.667 256.667 -437.667 392.667 -753 408l-157 -6l-204 -47
c-190.667 -66 -350.334 -188.333 -479.001 -367c-85.333 -136 -135.666 -289.667 -150.999 -461zM1144 1990c159.333 -23.333 303 -78 431 -164l175 -151c78 -90 140.333 -189.333 187 -298c4 -35.333 17.667 -78 41 -128c78 -311.333 13.667 -607 -193 -887
c-198 -222 -429.333 -342.667 -694 -362c-120.667 -4 -216 2 -286 18c-466.667 120 -731 419.333 -793 898c-4 120.667 1.66699 216 17 286c116.667 447.333 398.667 710 846 788h269z" />
  </font>
</defs>
</svg>
